<svg width="143" height="31" viewBox="0 0 143 31" fill="none" xmlns="http://www.w3.org/2000/svg">
<g clip-path="url(#clip0_0_1253)">
<path d="M118.426 0.495654C118.426 0.495654 118.447 0.475001 118.461 0.468116C118.475 0.468116 118.488 0.454348 118.502 0.447464C118.53 0.433695 118.564 0.419926 118.592 0.406158C118.627 0.406158 118.661 0.413042 118.675 0.378621C118.689 0.378621 118.703 0.371736 118.716 0.364852C118.73 0.357968 118.751 0.351083 118.765 0.344199C118.875 0.309778 118.986 0.28224 119.096 0.247819C119.186 0.240935 119.283 0.275356 119.359 0.199629C119.428 0.206513 119.497 0.199629 119.566 0.178976C120.077 0.0688271 120.602 0.020637 121.128 -0.00690021C121.514 -0.0275531 121.894 0.020637 122.281 0.0619428C122.309 0.0619428 122.343 0.0619428 122.371 0.0619428C122.406 0.08948 122.44 0.13767 122.495 0.117017C122.565 0.117017 122.641 0.117017 122.71 0.123901C122.71 0.151439 122.723 0.165207 122.751 0.158323C122.799 0.158323 122.841 0.144554 122.889 0.144554L122.903 0.158323H122.924C122.938 0.158323 122.951 0.165207 122.965 0.172092C122.965 0.192744 122.979 0.213397 123.014 0.206513C123.027 0.206513 123.048 0.206513 123.062 0.199629C123.131 0.213397 123.2 0.23405 123.276 0.247819C123.318 0.247819 123.359 0.247819 123.4 0.254703C123.407 0.275356 123.414 0.296009 123.449 0.28224C123.539 0.289125 123.628 0.302893 123.718 0.309778C123.746 0.316662 123.767 0.33043 123.794 0.337315C124.402 0.516307 124.955 0.812331 125.501 1.12901C125.805 1.34931 126.109 1.56272 126.413 1.78302C126.509 1.89317 126.62 1.98955 126.744 2.07216C126.779 2.12723 126.827 2.17542 126.889 2.20296C127.014 2.34065 127.145 2.47833 127.269 2.61602C127.456 2.85697 127.642 3.09792 127.836 3.33199C127.85 3.38706 127.877 3.42837 127.926 3.46279C127.988 3.57294 128.05 3.68308 128.105 3.79323C128.105 3.84831 128.14 3.88961 128.181 3.92403C128.195 3.98599 128.223 4.04795 128.278 4.08926C128.292 4.1168 128.306 4.14433 128.319 4.17187C128.354 4.30956 128.43 4.42659 128.492 4.55051C128.492 4.58493 128.492 4.61935 128.527 4.64C128.568 4.75015 128.616 4.8603 128.658 4.97733C128.658 5.05306 128.679 5.1219 128.713 5.18386C128.734 5.25959 128.755 5.32843 128.775 5.40416C128.817 5.55561 128.851 5.70707 128.893 5.85852C129.01 6.69841 129.107 7.53141 129.017 8.39194C128.948 9.03218 128.817 9.65177 128.568 10.2438C128.105 11.3522 127.435 12.3366 126.544 13.1628C126.475 13.2178 126.413 13.2729 126.343 13.328C126.15 13.4588 125.964 13.5896 125.77 13.7204C125.687 13.7686 125.59 13.7961 125.521 13.8718C125.176 14.0508 124.831 14.2367 124.478 14.4157C124.368 14.4364 124.271 14.4777 124.188 14.5396C124.098 14.5534 124.008 14.5809 123.932 14.6291C123.87 14.6291 123.815 14.6498 123.76 14.6773C123.373 14.7737 122.986 14.8632 122.599 14.9596C122.544 14.9596 122.489 14.9733 122.426 14.9802C122.267 15.0009 122.109 15.0078 121.957 15.0628C121.874 15.0491 121.784 15.0491 121.701 15.0697C121.611 15.0697 121.528 15.0766 121.438 15.0835C121.342 15.0422 121.238 15.0422 121.141 15.0835C121.1 15.0835 121.052 15.0835 121.01 15.0766C120.913 15.0353 120.817 15.0559 120.713 15.0559C120.609 15.0559 120.513 15.0559 120.409 15.0559C120.209 15.0284 120.008 14.994 119.808 14.9665C119.532 14.8494 119.228 14.8494 118.944 14.7393C118.378 14.519 117.818 14.2987 117.279 14.0302C117.245 13.9889 117.203 13.9613 117.148 13.9545C117.045 13.8925 116.948 13.8237 116.844 13.7617C116.602 13.5827 116.368 13.4037 116.126 13.2178C116.077 13.1559 116.022 13.1008 115.946 13.0664C115.884 13.0113 115.829 12.9562 115.767 12.9012C115.684 12.8117 115.601 12.7222 115.518 12.6396C115.504 12.6258 115.497 12.612 115.483 12.6051C115.311 12.4055 115.138 12.2127 114.972 12.0131C114.965 11.9993 114.958 11.9855 114.951 11.9787C114.654 11.421 114.254 10.9254 114.067 10.3127V10.2989V10.292C113.977 9.97533 113.894 9.65866 113.791 9.34886C113.708 9.10791 113.756 8.83943 113.639 8.60536C113.639 8.56405 113.639 8.52275 113.639 8.48144C113.625 8.31622 113.604 8.14411 113.59 7.97889C113.59 7.55895 113.583 7.13212 113.632 6.71218C113.728 5.9549 113.929 5.21828 114.24 4.51608C114.509 3.8965 114.882 3.33887 115.276 2.79501C115.456 2.67109 115.559 2.48522 115.704 2.33376C115.925 2.10658 116.195 1.94136 116.395 1.70041C116.561 1.61779 116.685 1.48011 116.824 1.36308C116.879 1.35619 116.927 1.32865 116.955 1.28046C117.079 1.28046 117.148 1.19785 117.217 1.10836C117.459 0.991323 117.701 0.87429 117.943 0.757257C117.977 0.757257 118.012 0.771026 118.033 0.736604C118.088 0.72972 118.122 0.688414 118.157 0.640224C118.171 0.640224 118.184 0.63334 118.198 0.626455C118.288 0.58515 118.378 0.543844 118.468 0.495654H118.426ZM118.972 4.46789C118.744 4.59181 118.585 4.78457 118.426 4.97045C118.267 5.15632 118.039 5.29401 117.977 5.55561C117.908 5.63134 117.846 5.71395 117.818 5.81722C117.805 5.84475 117.791 5.87229 117.777 5.89983C117.694 5.99621 117.646 6.11324 117.611 6.23716C117.57 6.33354 117.535 6.42992 117.494 6.5263C117.411 6.7879 117.349 7.05639 117.355 7.33176C117.335 7.45568 117.335 7.58648 117.355 7.7104C117.342 7.82743 117.376 7.93758 117.397 8.04773C117.397 8.07527 117.397 8.1028 117.404 8.13723C117.411 8.17165 117.418 8.19918 117.431 8.23361C117.431 8.35064 117.466 8.4539 117.501 8.56405C117.501 8.57782 117.514 8.59159 117.521 8.60536C117.528 8.64666 117.535 8.68797 117.549 8.72928C117.957 9.84453 118.682 10.6569 119.801 11.1319C120.388 11.3797 120.989 11.5518 121.632 11.4623C122.875 11.2902 123.898 10.7257 124.63 9.69996C125.217 8.88073 125.39 7.972 125.231 6.99443C125.231 6.98066 125.217 6.97378 125.217 6.96001C125.217 6.93247 125.217 6.90494 125.217 6.87051C125.176 6.38861 124.983 5.96179 124.713 5.5625C124.637 5.4317 124.554 5.30089 124.451 5.18386C124.423 5.15632 124.395 5.12879 124.368 5.09437C124.243 4.88095 124.064 4.71573 123.85 4.58493C123.449 4.28202 123.055 3.97222 122.558 3.83454C122.544 3.83454 122.537 3.82765 122.523 3.82077C121.867 3.59359 121.21 3.55228 120.533 3.73127C120.506 3.73127 120.471 3.72439 120.457 3.75193C120.361 3.75193 120.278 3.78635 120.195 3.83454C119.753 3.97911 119.352 4.18564 118.993 4.46789H118.972Z" fill="#484848"/>
<path d="M127.359 19.3035C127.476 19.4412 127.615 19.5651 127.698 19.7304C127.711 19.7441 127.725 19.7579 127.739 19.7717C127.753 19.7854 127.767 19.7992 127.78 19.813C127.946 20.1159 128.091 20.4257 128.299 20.7011C128.299 20.763 128.312 20.8181 128.354 20.8732C128.347 20.9007 128.361 20.9076 128.388 20.9145C128.388 20.9145 128.416 20.9695 128.43 20.9971C128.416 21.1003 128.478 21.1761 128.52 21.2518C128.513 21.2793 128.527 21.2862 128.554 21.2862C128.554 21.3138 128.554 21.3551 128.596 21.3688C128.596 21.4101 128.609 21.4583 128.609 21.4996C128.596 21.5272 128.609 21.5341 128.637 21.5341C128.637 21.5616 128.651 21.596 128.651 21.6235C128.637 21.6511 128.651 21.658 128.679 21.658C128.679 21.6855 128.685 21.7199 128.692 21.7475C128.679 21.775 128.692 21.7819 128.72 21.7888C128.755 21.8852 128.789 21.9815 128.817 22.0848C128.817 22.1536 128.789 22.2294 128.817 22.2913C128.976 22.7663 128.996 23.2689 129.017 23.7577C129.086 25.2378 128.651 26.5802 127.794 27.7988C127.269 28.5492 126.647 29.2169 125.874 29.7333C125.736 29.8227 125.59 29.9122 125.452 30.0017C124.976 30.2427 124.492 30.4699 123.981 30.6351C123.898 30.6557 123.815 30.6764 123.739 30.6902C123.677 30.7108 123.622 30.7246 123.559 30.7452C123.532 30.7521 123.504 30.759 123.483 30.7728C123.449 30.7728 123.407 30.7728 123.387 30.8072C123.276 30.8279 123.166 30.8416 123.055 30.8623C122.841 30.876 122.634 30.9105 122.426 30.9724C121.832 31.0344 121.238 31.0137 120.651 30.938C120.644 30.9242 120.63 30.9174 120.616 30.9311C120.437 30.8829 120.257 30.8485 120.071 30.8485C119.449 30.7108 118.868 30.4699 118.288 30.2289H118.274L118.26 30.222C118.164 30.1463 118.06 30.0912 117.943 30.0499C117.535 29.7814 117.121 29.5267 116.741 29.2169C116.409 28.9484 116.112 28.6524 115.842 28.3289C115.753 28.2187 115.67 28.1017 115.58 27.9915C115.559 27.9089 115.511 27.847 115.456 27.785C115.421 27.7162 115.387 27.6473 115.345 27.5854C115.048 27.1654 114.868 26.7042 114.709 26.2223C114.426 25.348 114.343 24.4461 114.336 23.5374C114.364 23.4823 114.364 23.4272 114.357 23.3722C114.357 22.9522 114.475 22.5598 114.578 22.1605C114.772 21.4101 115.096 20.7079 115.511 20.047C115.594 19.9231 115.677 19.7923 115.753 19.6684C115.822 19.6064 115.884 19.5376 115.925 19.455C115.939 19.4412 115.953 19.4275 115.96 19.4068C116.312 18.9731 116.748 18.622 117.148 18.2365C117.342 18.1057 117.535 17.9749 117.722 17.8441C117.756 17.8234 117.784 17.8028 117.818 17.7821C118.343 17.4654 118.91 17.2451 119.483 17.0455C119.849 16.9491 120.223 16.8734 120.602 16.8321C120.92 16.8045 121.231 16.777 121.549 16.7563C121.59 16.7563 121.632 16.7563 121.68 16.7632C121.777 16.8045 121.881 16.8045 121.977 16.777C122.019 16.777 122.06 16.777 122.102 16.7839C122.115 16.7839 122.136 16.7839 122.15 16.7839C122.378 16.8114 122.606 16.839 122.827 16.8596C122.917 16.8803 123.007 16.894 123.09 16.9147C123.573 17.0593 124.064 17.2038 124.547 17.3484C124.665 17.4241 124.803 17.4654 124.934 17.5136C125.141 17.6169 125.349 17.7133 125.535 17.851C125.653 17.9198 125.763 17.9818 125.881 18.0506C126.233 18.264 126.551 18.5256 126.834 18.8216C126.834 18.8492 126.848 18.8561 126.869 18.8629C126.951 19.0075 127.138 19.0557 127.228 19.2003C127.255 19.2553 127.29 19.2967 127.345 19.3242L127.359 19.3035ZM125.556 26.773C125.632 26.7179 125.68 26.6422 125.715 26.5596C125.853 26.3944 125.929 26.2016 126.019 26.0088C126.419 25.3755 126.544 24.6733 126.571 23.9436C126.571 23.9022 126.571 23.8609 126.565 23.8196C126.578 23.7301 126.551 23.6475 126.53 23.5649C126.53 23.3584 126.489 23.1656 126.413 22.9729C126.399 22.8076 126.357 22.6562 126.288 22.5047C126.267 22.4497 126.247 22.3946 126.226 22.3395C126.178 22.1743 126.122 22.016 126.026 21.8714C125.825 21.2793 125.376 20.8594 124.948 20.4326C124.679 20.1572 124.375 19.9094 124.001 19.7648C123.967 19.6959 123.884 19.6891 123.829 19.6409L123.359 19.4275C123.324 19.3793 123.276 19.393 123.228 19.393C123.124 19.3311 123 19.2967 122.882 19.276C122.82 19.2278 122.744 19.2209 122.668 19.2278C122.516 19.159 122.357 19.1383 122.191 19.1452C122.178 19.1452 122.171 19.1314 122.157 19.1314C122.095 19.1314 122.039 19.1177 121.977 19.1177C121.791 19.1177 121.604 19.1177 121.418 19.1177C121.3 19.097 121.19 19.1314 121.072 19.159C121.058 19.159 121.045 19.159 121.031 19.159C120.913 19.1865 120.796 19.1865 120.685 19.2416C120.368 19.3242 120.05 19.4068 119.773 19.5996C119.718 19.6271 119.663 19.6546 119.601 19.6822C119.518 19.6959 119.449 19.7372 119.373 19.7786C118.855 20.0333 118.461 20.4394 118.046 20.825C117.521 21.3206 117.252 21.9609 117.031 22.6287C116.893 23.0348 116.823 23.441 116.837 23.8678C116.817 24.2327 116.893 24.5907 116.969 24.9487C117.19 25.94 117.708 26.7661 118.488 27.427C119.048 27.902 119.677 28.2738 120.402 28.4665C120.485 28.5216 120.575 28.5492 120.678 28.5492C120.844 28.6042 121.017 28.6318 121.197 28.6249C121.224 28.6249 121.252 28.6249 121.28 28.6249C121.48 28.6455 121.68 28.6455 121.881 28.6249C121.963 28.6249 122.053 28.6249 122.136 28.6249C122.357 28.6249 122.578 28.6111 122.792 28.556H122.806H122.82C122.834 28.556 122.848 28.556 122.868 28.556C122.958 28.556 123.048 28.5285 123.124 28.4803C123.186 28.4803 123.242 28.4597 123.297 28.4321C123.414 28.4046 123.539 28.377 123.642 28.3151C124.036 28.1223 124.416 27.9089 124.748 27.6129C124.837 27.5647 124.927 27.5027 124.989 27.4201C125.121 27.3169 125.231 27.1998 125.321 27.069C125.411 26.9933 125.501 26.9176 125.535 26.8005L125.556 26.773Z" fill="#484848"/>
<path d="M138.102 22.257C137.397 22.4773 136.672 22.5805 135.933 22.5461C135.283 22.5117 134.648 22.3878 134.019 22.2225C133.977 22.2088 133.936 22.2088 133.895 22.2019C133.86 22.1606 133.812 22.1675 133.763 22.1606C133.521 22.0642 133.28 21.9609 133.031 21.8646C133.003 21.8508 132.976 21.837 132.948 21.8232C132.844 21.7475 132.734 21.6924 132.61 21.6511C132.575 21.603 132.534 21.5754 132.471 21.5685C132.451 21.5341 132.423 21.5272 132.388 21.5272C132.347 21.4997 132.306 21.4721 132.257 21.4515C131.836 21.1555 131.414 20.8526 131.027 20.5083C130.648 20.1641 130.35 19.7511 130.081 19.3174C129.922 19.0695 129.805 18.7942 129.673 18.5326C129.66 18.5188 129.653 18.505 129.639 18.4912C129.473 18.1195 129.328 17.7409 129.238 17.3485C129.072 16.66 128.92 15.9647 129.024 15.2419C129.059 14.9803 129.093 14.7187 129.128 14.457C129.155 14.3607 129.183 14.2574 129.211 14.161C129.259 14.044 129.293 13.9201 129.3 13.7893C129.356 13.6929 129.369 13.5896 129.383 13.4864C129.411 13.39 129.439 13.2936 129.473 13.1903C129.556 13.0251 129.66 12.8737 129.694 12.6878C129.825 12.4399 129.943 12.1852 130.102 11.958C130.385 11.545 130.71 11.1526 131.062 10.7946C131.124 10.7602 131.2 10.7326 131.235 10.6638C131.684 10.2232 132.202 9.87899 132.762 9.60362C133.383 9.29382 134.04 9.06664 134.737 8.97714C134.827 8.96338 134.917 8.94961 135.014 8.93584C135.629 8.93584 136.243 8.93584 136.858 8.92896C137.549 8.92896 138.199 9.10795 138.827 9.3902C138.869 9.41086 138.917 9.42462 138.965 9.43839C138.986 9.47281 139.014 9.4797 139.048 9.4797C139.387 9.67934 139.718 9.88587 140.057 10.0717C140.623 10.3884 141.079 10.8359 141.487 11.3178C141.729 11.6069 141.984 11.8892 142.192 12.2128C142.427 12.5845 142.537 13.0113 142.744 13.39C142.744 13.4175 142.744 13.4451 142.751 13.4726C142.807 13.6722 142.862 13.865 142.917 14.0646C142.917 14.2574 142.924 14.457 142.931 14.6498C142.972 15.235 142.959 15.8201 142.965 16.4122C142.965 16.4328 142.986 16.4466 143 16.4673C143 16.5223 143 16.5843 143 16.6394C142.945 16.9629 142.889 17.2796 142.834 17.6032C142.82 17.6169 142.813 17.6307 142.8 17.6445C142.8 17.672 142.793 17.6996 142.786 17.7271C142.758 17.7477 142.751 17.7822 142.751 17.8166C142.717 17.8648 142.696 17.9199 142.703 17.9818C142.689 17.9956 142.682 18.0093 142.668 18.03C142.668 18.0575 142.661 18.0851 142.655 18.1126C142.613 18.147 142.613 18.1952 142.613 18.2434C142.572 18.3536 142.523 18.4637 142.482 18.5739C142.433 18.6083 142.399 18.6496 142.399 18.7115C142.047 19.3724 141.639 19.992 141.093 20.5221C140.285 21.3138 139.352 21.8783 138.268 22.2157C138.212 22.2294 138.15 22.2432 138.095 22.257H138.102ZM135.518 21.5479C135.85 21.6098 136.181 21.5685 136.513 21.5685C137.446 21.4653 138.309 21.1899 139.117 20.708C139.843 20.2812 140.471 19.7717 140.969 19.0902C141.494 18.3742 141.826 17.5825 142.06 16.7358C142.074 16.722 142.081 16.7013 142.095 16.6876C142.095 16.6187 142.109 16.5499 142.116 16.481C142.275 15.8408 142.199 15.2074 142.019 14.581C142.019 14.5397 142.005 14.4915 142.005 14.4502C141.998 14.4364 141.984 14.4226 141.978 14.4089C141.95 14.2918 141.922 14.1748 141.888 14.0646C141.591 12.9907 141.024 12.0613 140.188 11.3178C139.615 10.8084 138.958 10.3953 138.212 10.1199C137.425 9.8308 136.616 9.65869 135.787 9.70688C134.938 9.75507 134.136 10.0029 133.369 10.3678C131.884 11.0769 130.938 12.2678 130.364 13.748C130.019 14.6498 129.936 15.5998 130.074 16.5568C130.088 16.5705 130.095 16.5912 130.109 16.6049C130.205 17.3071 130.475 17.9543 130.82 18.567C131.103 19.0764 131.504 19.5101 131.946 19.9025C132.485 20.3775 133.024 20.8319 133.715 21.0866C134.302 21.3 134.889 21.5066 135.525 21.541L135.518 21.5479Z" fill="#484848"/>
<path d="M82.3222 6.07888C82.2117 6.06511 82.1012 6.05135 81.9837 6.04446C81.3136 5.83105 81.0372 5.47306 81.0234 4.81217C81.0234 4.79152 81.0234 4.77775 81.0234 4.7571C80.9613 4.01359 81.0165 3.27009 80.9958 2.52658C80.9958 2.45774 81.0096 2.3889 81.0234 2.32006C81.0234 2.30629 81.0234 2.28563 81.0234 2.27187C81.0165 2.07222 81.0718 1.88635 81.1201 1.69358C81.1754 1.4664 81.3136 1.31495 81.5416 1.22545C81.8317 1.1153 82.1288 1.05334 82.4397 1.05334C83.476 1.05334 84.5122 1.05334 85.5416 1.05334C85.5831 1.08088 85.6245 1.08777 85.6729 1.08088C85.8732 1.13596 86.0736 1.17726 86.267 1.25987C86.4881 1.35625 86.6539 1.49394 86.6884 1.74177C86.7299 2.02403 86.7575 2.31317 86.799 2.59543C86.799 2.59543 86.7921 2.6092 86.799 2.6092C86.799 2.62296 86.8059 2.62985 86.8128 2.64362C86.8128 2.68492 86.8128 2.72623 86.8197 2.76754C86.8197 2.76754 86.8059 2.77442 86.8059 2.7813C86.8059 2.79507 86.8128 2.80196 86.8197 2.81573C86.8197 3.43531 86.8681 4.06178 86.8266 4.68137C86.7782 5.47307 86.6815 5.72778 85.9907 5.98939C85.894 6.02381 85.7834 6.03758 85.6798 6.06512C85.4656 6.06512 85.2515 6.06512 85.0373 6.06512C84.9198 6.06512 84.8093 6.06512 84.6919 6.06512C84.1185 6.06512 83.545 6.06512 82.9716 6.06512C82.7575 6.06512 82.5433 6.06512 82.3291 6.06512L82.3222 6.07888Z" fill="#484848"/>
<path d="M121.425 15.0697C121.383 15.0766 121.342 15.0834 121.3 15.0903C121.245 15.0903 121.19 15.0766 121.128 15.0697C121.224 15.0284 121.328 15.0284 121.425 15.0697Z" fill="#484848"/>
<path d="M120.872 15.0835C120.817 15.0697 120.761 15.056 120.699 15.0491C120.796 15.0491 120.9 15.0216 120.996 15.0697C120.955 15.0697 120.913 15.0835 120.872 15.0904V15.0835Z" fill="#484848"/>
<path d="M122.115 16.7564C122.115 16.7564 122.115 16.7358 122.115 16.7289C122.129 16.7358 122.143 16.7495 122.157 16.7564C122.143 16.7564 122.122 16.7564 122.109 16.7564H122.115Z" fill="#484848"/>
<path d="M121.687 16.7426C121.784 16.7357 121.887 16.722 121.984 16.7564C121.881 16.7839 121.784 16.7839 121.687 16.7426Z" fill="#484848"/>
<path d="M86.8199 2.78813C86.8199 2.78813 86.8199 2.81567 86.8199 2.82944C86.8199 2.81567 86.8059 2.80879 86.8059 2.79502C86.8059 2.79502 86.8129 2.78813 86.8199 2.78125V2.78813Z" fill="#484848"/>
<path d="M86.7991 2.60913C86.7991 2.60913 86.8131 2.62978 86.8131 2.64355C86.8131 2.64355 86.8131 2.65732 86.8061 2.65732C86.8061 2.64355 86.7991 2.63667 86.7921 2.6229V2.60913H86.7991Z" fill="#484848"/>
<path d="M81.0234 2.32004C81.0234 2.32004 81.0234 2.29939 81.0234 2.28562C81.0234 2.28562 81.0304 2.27873 81.0375 2.27185C81.0375 2.28562 81.0375 2.30627 81.0375 2.32004H81.0234Z" fill="#484848"/>
<path d="M81.0305 4.81215C81.0305 4.81215 81.0094 4.77773 81.0305 4.75708C81.0305 4.77773 81.0305 4.7915 81.0305 4.81215Z" fill="#484848"/>
<path d="M50.9574 1.73487C50.9229 1.57653 50.8469 1.43884 50.7018 1.35623C50.688 1.34246 50.6741 1.32181 50.6534 1.31492C50.1007 1.05332 49.5066 1.03955 48.9125 1.0189C47.6966 0.977594 46.4807 1.04644 45.2648 1.03955C41.4236 1.01202 37.5894 1.03267 33.7482 1.03267C33.6653 1.03267 33.5755 1.04644 33.4926 1.04644C32.9054 1.05332 32.3181 1.06709 31.7309 1.04644C30.9986 1.0189 30.2732 1.01202 29.5616 1.20478C29.4373 1.22543 29.3198 1.25985 29.2162 1.31492C28.9813 1.36311 28.933 1.55587 28.8846 1.74175C28.8708 1.79683 28.857 1.8519 28.8431 1.90697C28.8293 2.00335 28.8155 2.10662 28.7948 2.203C28.7948 2.24431 28.7948 2.28561 28.7948 2.32692C28.7948 2.4646 28.7948 2.60917 28.7948 2.74686C28.7948 2.80193 28.7948 2.85701 28.7948 2.91208C28.8224 2.91208 28.8501 2.91208 28.8708 2.91208C28.8431 2.91208 28.8155 2.91208 28.7948 2.91208C28.7948 3.30449 28.7948 3.69689 28.7948 4.0893C28.7948 4.18568 28.7948 4.28894 28.7948 4.38532C28.7948 4.45416 28.7948 4.52301 28.7948 4.59874C28.7948 4.72265 28.7948 4.85345 28.7948 4.97737C28.7948 5.10129 28.7948 5.23209 28.7948 5.35601C28.7948 5.42485 28.7948 5.49369 28.7948 5.56942C28.7948 10.8841 28.7948 16.1919 28.7948 21.5066C28.7948 23.4273 28.7948 25.348 28.7948 27.2756C28.7948 27.3307 28.7948 27.3858 28.7948 27.4408C28.7879 27.6061 28.7671 27.7782 28.7671 27.9434C28.781 28.5354 28.6773 29.1344 28.8362 29.7127C28.926 30.0225 29.002 30.346 29.3751 30.463C29.6307 30.5457 29.8932 30.6145 30.1696 30.5938C30.9986 30.5938 31.8276 30.5938 32.6636 30.5938C33.2784 30.5938 33.8933 30.6007 34.5151 30.6076C34.6187 30.6076 34.7154 30.6076 34.819 30.6076C34.8743 30.6076 34.9365 30.6076 34.9918 30.6076C35.0194 30.6076 35.047 30.6076 35.0747 30.6076C35.1299 30.6076 35.1921 30.6007 35.2474 30.5938C35.275 30.5938 35.3026 30.6007 35.3303 30.6076C35.3579 30.6076 35.3855 30.6076 35.4132 30.6076C35.4892 30.6076 35.5721 30.6076 35.6481 30.6076C38.7914 30.6076 41.9417 30.6076 45.0851 30.6076C46.1974 30.6076 47.3166 30.6076 48.4289 30.6007C48.8227 30.6007 49.2095 30.6076 49.6033 30.6007C49.9626 30.6007 50.308 30.5388 50.6189 30.3529C50.6327 30.346 50.6465 30.3322 50.6603 30.3254C50.8952 30.1533 50.985 29.9192 50.9712 29.6369C50.9712 29.5956 50.9712 29.5681 51.0196 29.5612C50.9988 29.4992 51.0196 29.4442 51.0472 29.3891C51.1163 29.2858 51.0887 29.1688 51.0956 29.0518C51.0956 29.0242 51.0956 28.9967 51.1025 28.9692C51.1439 28.8452 51.1439 28.7144 51.1301 28.5905V28.4253C51.1301 28.2119 51.1577 27.9985 51.1025 27.7919C51.1232 27.3858 51.0956 26.9865 51.0058 26.5872C50.9643 26.4082 50.9919 26.2086 50.8469 26.064C50.8469 25.9676 50.764 25.9194 50.7018 25.8643C50.4324 25.6372 50.1076 25.5752 49.7691 25.5614C49.6724 25.4995 49.5619 25.527 49.4582 25.527C48.2354 25.527 47.0195 25.527 45.7967 25.527C44.5877 25.527 43.3787 25.527 42.1697 25.527C40.7535 25.5339 39.3372 25.5064 37.921 25.5477C37.3752 25.5614 36.8225 25.527 36.2767 25.5201C36.2491 25.5201 36.2215 25.5201 36.1938 25.5201C35.9589 25.5201 35.7379 25.4444 35.5099 25.3962C35.0816 25.2379 34.7776 24.9694 34.6809 24.515C34.6325 24.2809 34.6532 24.04 34.6394 23.799V23.5856C34.6394 22.4773 34.6601 21.3689 34.6394 20.2605C34.6325 19.7855 34.7361 19.3724 35.0401 19.0076C35.0677 18.9869 35.0885 18.9732 35.1161 18.9525C35.1299 18.9456 35.1437 18.9318 35.1576 18.925C35.3855 18.7873 35.6273 18.7047 35.8899 18.6634C36.5047 18.5807 37.1196 18.6152 37.7414 18.6221C37.9002 18.6221 38.0591 18.6221 38.2111 18.6221C38.2871 18.6221 38.37 18.6221 38.446 18.6221C39.1991 18.6221 39.9521 18.6221 40.7051 18.6152C40.788 18.6152 40.8778 18.6152 40.9607 18.6152C41.0436 18.6152 41.1334 18.6152 41.2163 18.6152C41.3614 18.6152 41.5065 18.6152 41.6447 18.6152C41.7276 18.6152 41.8174 18.6152 41.9003 18.6152H42.3286C42.4115 18.6152 42.5013 18.6152 42.5842 18.6152C42.7293 18.6152 42.8675 18.6152 43.0126 18.6152C43.1162 18.6152 43.2129 18.6152 43.3165 18.6152C43.4616 18.6152 43.5998 18.6152 43.7449 18.6152C43.8278 18.6152 43.9176 18.6152 44.0005 18.6152C44.1318 18.6152 44.2561 18.6152 44.3874 18.6152C44.4288 18.6152 44.4703 18.6152 44.5186 18.6152C44.6775 18.6152 44.8364 18.6152 44.9884 18.6152C45.3338 18.6152 45.6793 18.6152 46.0178 18.6152C46.1767 18.6152 46.3356 18.6152 46.4876 18.6152C46.7708 18.6152 47.061 18.6014 47.3442 18.6358C47.7726 18.684 48.1802 18.6221 48.5947 18.5326C48.8986 18.4706 49.0852 18.2847 49.1474 17.9887C49.2095 17.7202 49.2648 17.4586 49.2441 17.1832C49.2441 17.1557 49.2441 17.1282 49.2441 17.1006C49.2924 17.0524 49.2648 16.9836 49.2786 16.9285C49.2786 16.8459 49.2786 16.7633 49.2786 16.6738V16.4604C49.2786 16.364 49.2717 16.2607 49.2717 16.1644C49.2579 16.0404 49.2441 15.9096 49.2303 15.7857C49.2303 15.7169 49.2303 15.648 49.2303 15.5723V15.1937C49.2303 14.9665 49.2579 14.7393 49.1888 14.519C49.1888 14.4915 49.1888 14.4639 49.1888 14.4364C49.1888 14.402 49.1888 14.3744 49.1612 14.3538C49.1335 14.2781 49.1059 14.2092 49.0783 14.1335C49.0783 14.1335 49.0783 14.1128 49.0783 14.106C49.0783 14.0233 49.0506 13.9545 48.9954 13.8925C48.9954 13.8788 48.9954 13.865 48.9816 13.8581C48.9125 13.6791 48.795 13.5827 48.5947 13.5483C48.3667 13.5139 48.1456 13.5208 47.9176 13.5277C47.358 13.5277 46.7985 13.5277 46.2389 13.5277C46.1491 13.5277 46.0523 13.5277 45.9625 13.5277C42.8813 13.5277 39.7932 13.5277 36.712 13.5277C36.484 13.5277 36.256 13.5277 36.028 13.4864C35.4063 13.3624 34.8605 13.1353 34.6601 12.4675C34.6532 12.3298 34.6394 12.1921 34.6325 12.0544V10.8772C34.6325 9.78261 34.6325 8.68801 34.6463 7.59341C34.6463 7.23542 34.7361 6.90498 35.0194 6.64337C35.4477 6.25097 35.9728 6.11328 36.5393 6.11328C40.9055 6.11328 45.2717 6.11328 49.6448 6.11328C49.7415 6.11328 49.8451 6.11328 49.9418 6.11328C50.0593 6.11328 50.1698 6.11328 50.2873 6.11328C50.5567 6.0169 50.7778 5.85856 50.8952 5.60384C51.0472 5.25963 51.1439 4.89476 51.1439 4.50924C51.1439 4.00669 51.1577 3.49725 51.1439 2.99469C51.1301 2.58852 51.0887 2.17546 50.9781 1.77617L50.9574 1.73487ZM50.2735 2.96716C50.2735 2.86389 50.2458 2.7744 50.1767 2.73309C50.2527 2.7744 50.2804 2.87078 50.2735 2.96716ZM39.4132 14.6292C39.4132 14.6292 39.427 14.6498 39.4478 14.6498C39.427 14.6498 39.4201 14.636 39.4132 14.6292ZM29.2231 3.75885C29.2438 3.82769 29.2507 3.89654 29.2646 3.96538C29.2577 3.89654 29.2507 3.82081 29.2231 3.75885ZM29.8103 18.5257C29.8103 18.4844 29.7758 18.4706 29.7343 18.4706C29.7136 18.4706 29.6998 18.4706 29.686 18.4775C29.6998 18.4775 29.7136 18.4706 29.7343 18.4706C29.7758 18.4706 29.8034 18.4913 29.8034 18.5257H29.8103ZM29.8103 19.8406C29.8103 19.8406 29.7827 19.8888 29.7551 19.8888C29.7827 19.8888 29.8103 19.875 29.8103 19.8406ZM29.8172 19.1453C29.8172 19.104 29.8103 19.0558 29.7482 19.0626C29.8034 19.0626 29.8103 19.104 29.8172 19.1453ZM49.0506 2.01712C49.0506 2.01712 49.0645 2.04466 49.0645 2.06531C49.0645 2.09973 49.0506 2.14104 49.0092 2.12727C49.0576 2.13416 49.0645 2.09973 49.0645 2.05843C49.0645 2.03778 49.0645 2.02401 49.0506 2.01024V2.01712ZM40.8778 29.8022C40.8778 29.8022 40.8847 29.7815 40.8916 29.7677C40.8916 29.7815 40.8778 29.7884 40.8778 29.8022ZM30.8604 8.56409C30.8604 8.56409 30.8397 8.58474 30.8259 8.6054C30.8604 8.62605 30.8881 8.63982 30.9157 8.63294C30.8881 8.63294 30.8604 8.63294 30.8259 8.6054C30.8328 8.58474 30.8466 8.57098 30.8604 8.56409ZM30.8604 9.23875C30.8604 9.23875 30.8397 9.25941 30.8259 9.28006C30.8604 9.30071 30.8881 9.31448 30.9157 9.3076C30.8881 9.3076 30.8604 9.3076 30.8259 9.28006C30.8328 9.25941 30.8466 9.24564 30.8604 9.23875ZM32.408 12.9012C32.408 12.9012 32.4218 12.915 32.4287 12.915C32.4218 12.915 32.4149 12.9081 32.408 12.9012ZM31.8967 15.4346C31.8967 15.4346 31.9244 15.4484 31.9313 15.4484C31.9244 15.4484 31.9105 15.4415 31.8967 15.4346ZM30.8604 7.88943C30.8604 7.88943 30.8397 7.91008 30.8259 7.93074C30.8604 7.95139 30.8881 7.96516 30.9157 7.95827C30.8881 7.95827 30.8604 7.95827 30.8259 7.93074C30.8328 7.91008 30.8466 7.89632 30.8604 7.88943ZM30.895 11.2214C30.9433 11.2214 30.9641 11.2559 30.9779 11.2972C30.971 11.2559 30.9433 11.2145 30.895 11.2214ZM32.5807 5.94117C32.5323 5.8861 32.4701 5.83791 32.408 5.80349C32.4701 5.83791 32.5323 5.89298 32.5807 5.94117C32.629 5.99625 32.6567 6.04444 32.6498 6.07886C32.6498 6.1064 32.6359 6.12705 32.6014 6.14082C32.6359 6.13393 32.6428 6.1064 32.6498 6.07886C32.6498 6.04444 32.6221 5.99625 32.5807 5.94117ZM31.7102 7.20789C31.7102 7.20789 31.7102 7.24919 31.7102 7.26296C31.7102 7.31803 31.7102 7.35246 31.6895 7.37311C31.7033 7.35246 31.7171 7.31115 31.7102 7.26296C31.7102 7.24231 31.7102 7.22854 31.7102 7.20789ZM42.2526 29.7953C42.2526 29.7953 42.2664 29.7746 42.2664 29.7608C42.2664 29.7608 42.2595 29.7815 42.2526 29.7953ZM41.5687 29.7953C41.5687 29.7953 41.5963 29.809 41.6032 29.809C41.5963 29.809 41.5825 29.8022 41.5687 29.7953ZM34.066 13.2798C34.066 13.2798 34.0384 13.2316 34.0107 13.2316C34.0384 13.2316 34.066 13.2454 34.066 13.2798ZM35.1368 13.5346C35.1368 13.5483 35.123 13.5621 35.123 13.569C35.123 13.5621 35.1299 13.5483 35.1368 13.5346Z" fill="#484848"/>
<path d="M108.803 28.2807C108.768 27.7093 108.741 27.131 108.706 26.5596C108.699 26.3944 108.644 26.2498 108.554 26.1053C108.292 25.706 107.884 25.6234 107.449 25.6234C105.293 25.6234 103.138 25.6234 100.982 25.6234C100.457 25.6234 99.9253 25.5683 99.4279 25.3824C99.0272 25.2379 98.7854 24.9556 98.737 24.5288C98.6679 23.978 98.7025 23.4204 98.6886 22.8697C98.6817 22.3602 98.6748 21.8439 98.6748 21.3345C98.6748 20.9145 98.661 20.4946 98.661 20.0815C98.661 16.8252 98.661 13.569 98.661 10.3127C98.661 8.56408 98.661 6.81547 98.6541 5.07375C98.6541 5.04621 98.6541 5.01867 98.6541 4.99113C98.6541 4.9636 98.6541 4.93606 98.6541 4.90852C98.6541 4.72265 98.6541 4.54365 98.6541 4.35778C98.6541 4.3027 98.6541 4.24763 98.6541 4.18567C98.6403 4.18567 98.6195 4.18567 98.6057 4.1719C98.6195 4.1719 98.6403 4.17879 98.6541 4.18567C98.6541 4.15813 98.6541 4.1306 98.6541 4.10306C98.661 3.72442 98.6679 3.34579 98.6403 2.96715C98.5919 2.96715 98.5574 2.96027 98.5297 2.93961C98.5574 2.96027 98.5919 2.97403 98.6403 2.96715C98.6403 2.91208 98.6403 2.857 98.6403 2.79504C98.6748 2.49902 98.6403 2.20988 98.5712 1.92074C98.5228 1.70044 98.509 1.45949 98.2672 1.32869C98.1429 1.24607 98.0047 1.19788 97.8527 1.18412C97.7836 1.14281 97.7076 1.12904 97.6316 1.10839C97.0997 0.984471 96.5677 1.03266 96.0288 1.03266C96.0012 1.03266 95.9736 1.03266 95.9459 1.03266H95.7732C95.7732 1.03266 95.718 1.03266 95.6903 1.03266C95.0409 1.01201 94.3984 1.03266 93.7559 1.16346C93.5072 1.21854 93.2654 1.27361 93.0582 1.43883C92.8785 1.54898 92.8716 1.74863 92.8164 1.91385C92.7818 2.14792 92.7611 2.38887 92.7611 2.62982C92.7611 2.65736 92.7749 2.68489 92.7749 2.71243C92.7749 2.7262 92.768 2.73997 92.7611 2.75374C92.7611 2.96715 92.7611 3.17368 92.7611 3.38709C92.7611 3.7795 92.768 4.1719 92.7749 4.56431C92.8302 4.55054 92.8509 4.51612 92.8647 4.47481C92.8509 4.51612 92.8302 4.54365 92.7749 4.56431V4.64692C92.7749 4.77084 92.7749 4.90164 92.7749 5.02556C92.7749 5.34912 92.7611 5.67268 92.7611 5.99624C92.7611 6.02378 92.768 6.05132 92.7749 6.07885C92.7749 6.41618 92.7749 6.75351 92.7749 7.09085C92.7749 7.15969 92.7749 7.22853 92.7749 7.30426V8.44017C92.7749 8.53655 92.7749 8.63981 92.7749 8.73619C92.7749 9.54854 92.7749 10.3678 92.7749 11.1801V11.304C92.7749 11.483 92.7749 11.6689 92.7749 11.8479V14.5052C92.7749 14.5878 92.7749 14.6773 92.7749 14.76V17.7959C92.7749 17.9336 92.7749 18.0782 92.7749 18.2159C92.7749 18.2985 92.7749 18.3811 92.7749 18.4706V23.5719C92.7749 23.6958 92.7749 23.8266 92.7749 23.9505V26.9452C92.7611 27.2412 92.7473 27.5372 92.7335 27.8332C92.7335 28.1017 92.7335 28.3702 92.7266 28.6318C92.7266 28.7007 92.7266 28.7695 92.7266 28.8452C92.7266 28.9829 92.7266 29.1275 92.7335 29.2652C92.7127 29.4717 92.7957 29.6576 92.8371 29.8572C92.9269 30.2359 93.1756 30.4424 93.5418 30.5319C93.8388 30.6076 94.1428 30.6283 94.4468 30.6351C94.4744 30.6351 94.5021 30.6351 94.5366 30.6351C94.7991 30.6833 95.0547 30.6076 95.3104 30.6145C95.4831 30.6145 95.6558 30.6145 95.8285 30.6145C96.1739 30.6145 96.5194 30.6145 96.8579 30.6145C96.8993 30.6145 96.9408 30.6145 96.9891 30.6145H97.2447C97.3276 30.6145 97.4175 30.6145 97.5004 30.6145C97.7145 30.6145 97.9287 30.6145 98.1429 30.6145C98.2258 30.6145 98.3156 30.6214 98.3985 30.6283C98.5159 30.6283 98.6265 30.6283 98.7439 30.6283H99.3864C99.4555 30.6283 99.5315 30.6283 99.6006 30.6283V30.6145C99.8285 30.6145 100.063 30.6214 100.305 30.6214C102.336 30.6214 104.361 30.6214 106.392 30.6214H106.564C106.737 30.6076 106.91 30.6007 107.083 30.5938C107.614 30.6558 108.105 30.5457 108.54 30.2359C108.554 30.1808 108.582 30.1326 108.623 30.0982C108.741 29.7195 108.747 29.3202 108.782 28.9278C108.782 28.742 108.796 28.563 108.803 28.3771C108.803 28.3496 108.803 28.322 108.803 28.2945V28.2807ZM106.019 26.6491C106.019 26.6491 106.046 26.6629 106.053 26.6629C106.046 26.6629 106.032 26.656 106.019 26.6491ZM95.4347 19.3862C95.4554 19.4206 95.4693 19.455 95.4762 19.4895C95.4762 19.455 95.4554 19.4206 95.4347 19.3862ZM96.5055 18.5463C96.5055 18.5463 96.5055 18.5945 96.5055 18.6152C96.5055 18.5945 96.5055 18.5739 96.5055 18.5463C96.5608 18.5326 96.6161 18.5188 96.6713 18.4981C96.6161 18.5119 96.5608 18.5257 96.5055 18.5463ZM95.0478 28.3633C95.0478 28.3633 94.9995 28.3633 94.9649 28.3771C94.9995 28.3633 95.0271 28.3564 95.0478 28.3633ZM95.0962 28.6249C95.0962 28.6249 95.0616 28.6525 95.034 28.6387C95.0616 28.6525 95.0824 28.6387 95.0962 28.6249ZM96.3743 3.51101C96.3605 3.46282 96.3535 3.42151 96.3397 3.39398C96.3535 3.42151 96.3674 3.46282 96.3743 3.51101ZM93.5832 8.47459C93.5832 8.47459 93.5832 8.50213 93.5832 8.51589C93.5832 8.50213 93.5832 8.48836 93.5832 8.47459C93.5832 8.44705 93.5832 8.41263 93.5349 8.41951C93.5763 8.41263 93.5763 8.44705 93.5832 8.47459ZM93.5487 16.6325C93.5763 16.6187 93.5832 16.5912 93.5832 16.5636C93.5832 16.5912 93.5832 16.6187 93.5487 16.6325ZM93.5487 15.8408C93.5487 15.8408 93.5694 15.8546 93.5763 15.8683C93.5763 15.8546 93.5625 15.8477 93.5487 15.8408ZM93.5487 13.2661C93.5487 13.2661 93.5832 13.2248 93.5832 13.1972C93.5832 13.2248 93.5832 13.2523 93.5487 13.2661ZM93.5072 15.2625C93.5072 15.2625 93.521 15.2832 93.5349 15.29C93.521 15.29 93.5141 15.2763 93.5072 15.2625ZM93.5832 17.2452C93.5832 17.2452 93.5832 17.3003 93.5487 17.314C93.5763 17.3003 93.5832 17.2727 93.5832 17.2452ZM93.5418 9.77572C93.5625 9.77572 93.5694 9.78949 93.5763 9.79637C93.5763 9.78261 93.5625 9.77572 93.5418 9.77572ZM93.5418 11.249C93.5418 11.249 93.5141 11.2352 93.5072 11.2283C93.5072 11.2421 93.521 11.249 93.5418 11.249ZM93.5418 12.5983C93.5418 12.5983 93.5141 12.5845 93.5072 12.5776C93.5072 12.5914 93.521 12.5983 93.5418 12.5983ZM93.5349 19.8956C93.5349 19.8956 93.5003 19.9369 93.5003 19.9645C93.5003 19.9369 93.5003 19.9094 93.5349 19.8956ZM93.5763 22.6149C93.5763 22.6149 93.5625 22.5943 93.5487 22.5874C93.5625 22.5874 93.5694 22.6012 93.5763 22.6149ZM93.5694 18.5945C93.5694 18.5945 93.5418 18.5807 93.5349 18.5807C93.5418 18.5807 93.5556 18.5876 93.5694 18.5945ZM93.5349 11.8066C93.5349 11.8066 93.5003 11.8479 93.5003 11.8754C93.5003 11.8479 93.5003 11.8204 93.5349 11.8066ZM93.5349 14.5052C93.5349 14.5052 93.5003 14.5465 93.5003 14.5741C93.5003 14.5465 93.5003 14.519 93.5349 14.5052Z" fill="#484848"/>
<path d="M24.3594 29.0655C23.9242 28.3977 23.3784 27.8125 22.9086 27.1723C22.501 26.6215 22.0796 26.0846 21.6651 25.5407C21.3957 25.1414 21.1331 24.7421 20.8361 24.3635C20.7117 24.1914 20.5874 24.0262 20.4561 23.854C20.4215 23.7095 20.2281 23.6682 20.2074 23.5098C20.1176 23.3859 20.0278 23.262 19.938 23.1381C19.6132 22.6768 19.3024 22.2087 18.9638 21.7681C18.7566 21.4927 18.5977 21.2174 18.6391 20.8663C18.653 20.7217 18.6944 20.584 18.8119 20.4876C18.8257 20.4739 18.8395 20.467 18.8602 20.4532C19.1158 20.2811 19.3784 20.109 19.634 19.9369C19.6478 19.93 19.6616 19.9162 19.6754 19.9093C19.8896 19.751 20.1245 19.6133 20.3179 19.4343C20.3317 19.4274 20.3456 19.4137 20.3594 19.4068C20.4008 19.3724 20.4423 19.3448 20.4837 19.3104C20.4975 19.2966 20.5114 19.2898 20.5321 19.276C21.292 18.677 21.9207 17.9749 22.425 17.1625C22.4388 17.1487 22.4527 17.135 22.4665 17.1212C22.4665 17.073 22.501 17.0317 22.5287 16.9904C22.9639 16.3777 23.3024 15.7099 23.5442 15.0008C23.8482 14.1265 24.0278 13.2247 24.1453 12.3022C24.2558 11.4485 24.2143 10.5949 24.0969 9.74811C24.0347 9.3144 23.9587 8.88069 23.8551 8.44698C23.786 8.15096 23.7584 7.84116 23.5926 7.56579C23.5788 7.46941 23.5649 7.37303 23.4958 7.2973C23.3922 7.02882 23.3093 6.74656 23.1435 6.49872C23.1159 6.36792 23.0261 6.27154 22.9639 6.16139C22.9086 6.0719 22.8603 5.98929 22.805 5.89979C22.7912 5.83783 22.7635 5.78276 22.7152 5.74145C22.6668 5.63819 22.6254 5.53492 22.5425 5.44543C22.5148 5.37658 22.4803 5.31463 22.4181 5.26644C22.4043 5.2389 22.3905 5.21825 22.3698 5.19071C22.3007 5.06679 22.2316 4.94976 22.121 4.84649C22.0312 4.68127 21.9345 4.52293 21.7825 4.4059C21.7342 4.34394 21.6789 4.28198 21.6305 4.22002C20.9673 3.4421 20.1728 2.82251 19.2816 2.31307C19.1711 2.20981 19.0398 2.15473 18.8948 2.10654C18.8464 2.05835 18.7842 2.03081 18.7151 2.03081C18.5148 1.92067 18.3006 1.83117 18.0796 1.76921C17.817 1.63153 17.5338 1.56957 17.2574 1.48696C16.8498 1.36304 16.4422 1.25977 16.0208 1.19781L15.9724 1.18405C15.247 1.04636 14.5078 1.02571 13.7755 1.02571C10.5285 1.02571 7.27459 0.991285 4.02757 1.04636C3.69596 1.04636 3.37126 0.991285 3.03965 1.01882H2.90838C2.4386 1.01882 1.96882 0.99817 1.49904 1.01882C1.18125 1.03259 0.842729 1.05324 0.566387 1.25289C0.324588 1.34927 0.131148 1.48695 0.062063 1.76233C0.0275202 1.89313 0.0344288 2.02393 0.0275202 2.14785C-0.0691994 2.47141 0.0413373 2.79497 0.0482459 3.11853C0.062063 3.71058 0.062063 4.29575 0.062063 4.8878C0.062063 11.5793 0.062063 18.264 0.062063 24.9555C0.062063 25.9538 0.062063 26.9451 0.0551544 27.9433C0.0551544 28.322 0.0551544 28.7006 0.0551544 29.0792C0.0758801 29.2445 0.0966057 29.4097 0.117331 29.5818C0.207142 29.8227 0.366039 30.0293 0.50421 30.2427C0.635472 30.3597 0.780552 30.4561 0.960174 30.4699C1.27797 30.5938 1.62339 30.5318 1.9481 30.6007C1.98955 30.6007 2.031 30.6007 2.07936 30.6007C2.14844 30.6007 2.22444 30.6007 2.29352 30.6007C2.34879 30.6007 2.41097 30.6007 2.46624 30.6007C2.84621 30.5662 3.23309 30.6007 3.61306 30.6144C4.20719 30.6213 4.78751 30.6351 5.36783 30.5043C5.36783 30.4905 5.37473 30.4767 5.38164 30.463C5.46455 30.4286 5.54745 30.401 5.63726 30.3666C5.77543 30.0775 5.86524 29.7745 5.85833 29.451C5.85833 29.4097 5.87215 29.3684 5.87906 29.3339C5.90669 29.2926 5.89978 29.2444 5.89288 29.2031C5.89288 29.0379 5.89288 28.8658 5.89978 28.7006C5.9136 28.4046 5.96887 28.1085 5.89978 27.8125C5.89978 27.1654 5.89978 26.5183 5.89288 25.8711C5.89288 25.8436 5.89288 25.8161 5.89288 25.7885C5.89288 25.3892 5.89288 24.99 5.90669 24.5907C5.94124 23.7645 5.8307 22.9315 5.96196 22.1054C6.10704 21.8163 6.34884 21.6098 6.59064 21.4101C6.77717 21.355 6.9637 21.3 7.15023 21.2518C8.16579 21.2036 9.18134 21.2242 10.1969 21.2518C10.5354 21.3206 10.8739 21.3895 11.1848 21.534C11.2539 21.5685 11.323 21.596 11.399 21.6304C11.5164 21.6993 11.627 21.775 11.7444 21.8438C11.772 21.892 11.8135 21.9196 11.8688 21.9333C11.9862 22.0435 12.0968 22.1536 12.2142 22.2638C12.2418 22.2913 12.2626 22.3188 12.2902 22.3464L13.6235 24.0881C13.6581 24.1638 13.6926 24.2327 13.7617 24.2878C13.7686 24.3291 13.7893 24.3566 13.8308 24.3704C13.8999 24.4874 13.9621 24.6044 14.0657 24.7008C14.2384 24.9693 14.4526 25.2171 14.6667 25.4581C14.7773 25.5889 14.8878 25.7128 14.9914 25.8436C15.2332 26.2291 15.5303 26.5665 15.7997 26.9313C15.9379 27.1172 16.0761 27.3031 16.2212 27.489C16.7807 28.1912 17.2367 28.9622 17.8101 29.6506C18.1694 30.0774 18.5977 30.3459 19.1297 30.4836C19.6685 30.6213 20.2212 30.5938 20.767 30.6007C20.8084 30.6007 20.8499 30.6007 20.8982 30.6007C21.3749 30.6007 21.8585 30.6007 22.3352 30.6007C22.957 30.6007 23.5788 30.6144 24.2005 30.5662C24.7048 30.5249 24.8707 30.3115 24.7394 29.8296C24.6634 29.5474 24.4976 29.3064 24.3387 29.0655H24.3594ZM7.54402 16.1849C6.62518 16.1849 5.96887 15.6273 5.96887 14.6842C5.96887 14.5947 5.98269 14.4983 5.94124 14.4157C5.94124 12.0406 5.88597 9.67239 5.96196 7.2973C6.02414 7.18027 6.02414 7.04259 6.05177 6.91867C6.14849 6.78098 6.19685 6.60199 6.34884 6.49872C6.36266 6.48496 6.37647 6.47807 6.3972 6.4643C6.78408 6.17516 7.23313 6.08567 7.70291 6.07878C9.39551 6.0719 11.0881 6.07878 12.7876 6.07878C13.5475 6.07878 14.2937 6.16139 15.0398 6.28531C15.0951 6.29908 15.1572 6.31285 15.2125 6.32662C15.4612 6.38858 15.6961 6.47807 15.931 6.58822C16.4146 6.8154 16.8153 7.14585 17.1883 7.5176C17.4163 7.82051 17.6443 8.12342 17.7963 8.47452C18.2039 9.41078 18.3835 10.3815 18.3628 11.4003C18.3421 12.495 18.0312 13.4932 17.3611 14.3812C17.0087 14.7048 16.6909 15.0697 16.2902 15.345C15.8343 15.6067 15.3645 15.8338 14.8464 15.9646C14.3282 16.0886 13.8032 16.1987 13.2643 16.1987C11.3644 16.1987 9.45769 16.1987 7.55784 16.1987L7.54402 16.1849ZM15.7168 24.7283C15.7168 24.7283 15.7168 24.7765 15.703 24.7972C15.7168 24.7834 15.7237 24.7559 15.7168 24.7283ZM21.5822 5.41101C21.5822 5.41101 21.5891 5.39035 21.596 5.37658C21.596 5.39035 21.5891 5.39724 21.5822 5.41101ZM6.26594 4.28886C6.30739 4.28886 6.33502 4.26133 6.34193 4.22691C6.34193 4.26133 6.30739 4.28886 6.26594 4.28886ZM3.8065 15.4552C3.8065 15.4552 3.77886 15.4414 3.77195 15.4414C3.77886 15.4414 3.79268 15.4483 3.8065 15.4552ZM3.06728 22.8902C3.06728 22.8902 3.07419 22.8696 3.0811 22.8558C3.0811 22.8558 3.06728 22.8834 3.06728 22.8902ZM3.06728 16.1505C3.06728 16.1505 3.09491 16.1643 3.10182 16.1643C3.09491 16.1643 3.0811 16.1574 3.06728 16.1505ZM3.12255 15.4759C3.12255 15.4759 3.12255 15.4483 3.10873 15.4414C3.11564 15.4414 3.11564 15.4621 3.12255 15.4759ZM3.12255 19.5238C3.12255 19.5238 3.12255 19.4963 3.10873 19.4894C3.11564 19.4894 3.11564 19.5101 3.12255 19.5238ZM3.37126 15.1179C3.37126 15.1179 3.4058 15.0628 3.44725 15.0628C3.4058 15.0628 3.37817 15.0834 3.37126 15.1179ZM3.10873 18.1952C3.10873 18.1952 3.12255 18.1676 3.12255 18.1607C3.12255 18.1676 3.11564 18.1814 3.10873 18.1952ZM4.20028 12.9493C4.20028 12.9493 4.18647 12.8942 4.16574 12.8805C4.18647 12.8942 4.20719 12.9149 4.20028 12.9493ZM4.2141 10.9322C4.2141 10.946 4.2141 10.9598 4.20028 10.9735C4.20719 10.9666 4.2141 10.9529 4.2141 10.9322ZM4.15192 9.64485C4.19337 9.64485 4.2141 9.61731 4.20719 9.57601C4.20719 9.61731 4.18647 9.64485 4.15192 9.64485ZM4.87041 7.33861C4.87041 7.33861 4.84969 7.35238 4.84278 7.35926C4.84969 7.35926 4.8635 7.34549 4.87041 7.33861ZM4.73224 7.37992C4.75297 7.51072 4.62861 7.58644 4.60789 7.70348C4.62861 7.58644 4.74606 7.51072 4.6977 7.36615C4.6977 7.36615 4.70461 7.36615 4.71151 7.36615C4.72533 7.36615 4.72533 7.36615 4.72533 7.35926C4.73915 7.35926 4.75987 7.35926 4.77369 7.35926C4.75987 7.35926 4.75297 7.37303 4.73224 7.36615V7.37992ZM4.15883 7.53825C4.15883 7.53825 4.1312 7.52449 4.12429 7.52449C4.1312 7.52449 4.14501 7.53137 4.15883 7.53825ZM2.77021 7.41434C2.77021 7.41434 2.72185 7.46941 2.68731 7.49695C2.72185 7.46941 2.74949 7.44187 2.77021 7.41434ZM2.37643 7.67594C2.37643 7.67594 2.32116 7.67594 2.29352 7.67594C2.32116 7.67594 2.34879 7.67594 2.37643 7.67594ZM4.19337 24.5356C4.19337 24.5356 4.16574 24.5494 4.15192 24.5494C4.16574 24.5494 4.17956 24.5356 4.19337 24.5356ZM4.373 23.5993C4.373 23.5993 4.38681 23.62 4.38681 23.6475C4.38681 23.6269 4.3799 23.6131 4.373 23.5993ZM5.8307 4.39213C5.82379 4.30952 5.89978 4.30263 5.96196 4.29575C5.89288 4.29575 5.82379 4.30952 5.8307 4.39213ZM11.5924 4.34394C11.5924 4.37836 11.5648 4.4059 11.5233 4.4059C11.5648 4.4059 11.5855 4.37836 11.5924 4.34394ZM21.6029 13.803C21.6375 13.7617 21.7065 13.7823 21.7549 13.7823C21.6996 13.7823 21.6305 13.7617 21.6029 13.803ZM21.8862 13.6928C21.8862 13.6928 21.8723 13.741 21.8654 13.7617C21.8723 13.741 21.8793 13.7135 21.8862 13.6928ZM17.4578 3.93088C17.5061 3.924 17.5407 3.94465 17.5614 3.98596C17.5614 4.02038 17.5476 4.04103 17.52 4.04103C17.5545 4.04103 17.5683 4.01349 17.5614 3.98596C17.5407 3.94465 17.5131 3.924 17.4578 3.93088ZM18.7151 14.3812C18.6875 14.6084 18.5148 14.5189 18.3973 14.5534C18.3973 14.5534 18.3973 14.5534 18.3973 14.5465C18.4112 14.5327 18.3973 14.5327 18.3973 14.5327C18.3559 14.4157 18.2868 14.3124 18.2868 14.1954C18.2868 14.3193 18.3628 14.4226 18.4043 14.5327C18.5286 14.5189 18.6944 14.6015 18.722 14.3744L18.7151 14.3812ZM14.4595 24.3635C14.4595 24.3635 14.4664 24.3428 14.4733 24.3291C14.4733 24.3428 14.4595 24.3566 14.4595 24.3635ZM7.39203 2.09966C7.39203 2.09966 7.39203 2.13408 7.39203 2.14785C7.39203 2.23046 7.39203 2.31307 7.50948 2.30619C7.39894 2.30619 7.39203 2.22357 7.39203 2.14785C7.39203 2.13408 7.39203 2.11343 7.39203 2.09966ZM13.0778 22.2156C13.0778 22.1743 13.0501 22.1743 13.0225 22.1674C13.0501 22.1674 13.0778 22.1674 13.0778 22.2156ZM14.4249 24.8316C14.4249 24.8316 14.3973 24.8523 14.3973 24.8798C14.3973 24.8523 14.4111 24.8385 14.4249 24.8316Z" fill="#484848"/>
<path d="M77.0441 3.20805C77.0234 2.80188 77.0718 2.39571 76.9958 1.99642C76.9336 1.68662 76.8645 1.37683 76.5053 1.25291C76.4776 1.23226 76.45 1.20472 76.4155 1.19784C76.0148 1.08769 75.6141 1.01885 75.1996 1.02573C74.3291 1.02573 73.4517 1.01196 72.5812 1.04638C71.9871 1.06704 71.3999 1.02573 70.8057 1.02573C67.3791 1.0395 63.9455 0.984424 60.5189 1.05327C59.6139 1.07392 58.7089 0.963771 57.7969 1.05327C57.4308 1.08769 57.0577 1.11523 56.6985 1.19784C56.2771 1.3011 56.0214 1.5627 55.9524 1.98953V2.07214C55.9524 2.12722 55.9524 2.18229 55.9455 2.24425C55.9455 2.38194 55.8695 2.51962 55.9247 2.66419C55.8833 2.84318 55.904 3.02906 55.904 3.21494C55.904 3.24247 55.904 3.27001 55.904 3.29755V5.19762C55.904 5.4248 55.904 5.64509 55.904 5.87228V6.33352C55.904 6.40237 55.8971 6.47121 55.8971 6.54694C55.8971 12.612 55.8971 18.684 55.8971 24.749C55.8971 24.99 55.8971 25.224 55.904 25.465C55.904 26.7455 55.8902 28.0328 55.904 29.3133C55.904 30.0362 56.429 30.58 57.1614 30.5938C58.3358 30.6213 59.5103 30.6144 60.6778 30.5938C61.113 30.5938 61.5137 30.4492 61.6726 29.9742C61.7348 29.7815 61.797 29.5887 61.7832 29.3822C61.8384 29.3202 61.8108 29.2376 61.8315 29.1687C61.8315 29.1412 61.8315 29.1137 61.8315 29.0861C61.8315 28.9622 61.8384 28.8314 61.8453 28.7075C61.797 28.501 61.8661 28.3013 61.8661 28.1017C61.8661 26.7042 61.8661 25.2998 61.8661 23.9023C61.8661 23.8334 61.8661 23.7646 61.8661 23.6888C61.8661 23.503 61.8661 23.324 61.8661 23.1381C61.8661 23.0968 61.8661 23.0555 61.8661 23.0142C61.8661 22.8903 61.8661 22.7595 61.8661 22.6355C61.8661 22.5116 61.8661 22.3808 61.8661 22.2569C61.8661 22.1881 61.8661 22.1192 61.8661 22.0435C61.8661 21.8783 61.8661 21.7062 61.8661 21.5409C61.8661 21.5134 61.8661 21.4859 61.8661 21.4583C61.8661 21.3206 61.8661 21.1761 61.8592 21.0384C61.8592 20.7974 61.8592 20.5634 61.8592 20.3224C61.8592 20.1641 61.8592 19.9989 61.873 19.8405C61.9006 19.4894 62.025 19.1934 62.3151 18.9593C62.5155 18.7941 62.7504 18.739 62.9853 18.6702C63.386 18.622 63.7867 18.5738 64.1874 18.5945C64.215 18.5945 64.2426 18.5945 64.2702 18.5945C64.443 18.5945 64.6157 18.5945 64.7884 18.5945C64.8437 18.5945 64.9058 18.5945 64.9611 18.5945C64.9887 18.5945 65.0164 18.5807 65.044 18.5807H66.9784C68.0976 18.5807 69.2099 18.5876 70.329 18.5945C70.861 18.5945 71.3861 18.5945 71.918 18.5945C72.0562 18.5945 72.1874 18.5669 72.3118 18.5187C72.6158 18.3879 72.8852 18.2089 72.9474 17.8716C72.9819 17.672 73.0234 17.4586 73.0027 17.252C72.9681 17.1969 72.9405 17.1488 72.9128 17.0937C72.9405 17.1488 72.9681 17.2038 73.0027 17.252C73.1201 17.0248 73.0648 16.7701 73.0856 16.5361C73.0856 16.4259 73.0856 16.3089 73.0856 16.1987C73.0786 16.185 73.0717 16.1712 73.0648 16.1574C73.0648 16.0817 73.0717 16.006 73.0648 15.9302C73.0303 15.3864 72.9681 14.8494 72.9612 14.3055C72.9612 13.982 72.8023 13.7823 72.5467 13.624C72.3325 13.4932 72.0907 13.4381 71.8351 13.4244C71.6555 13.4106 71.4828 13.383 71.3031 13.383C70.3083 13.383 69.3204 13.383 68.3256 13.383C67.3031 13.3899 66.2806 13.3555 65.2582 13.4037C64.5604 13.4381 63.8557 13.3693 63.158 13.3624C62.8195 13.3142 62.4948 13.2247 62.2115 13.0319C61.9352 12.7979 61.9144 12.4674 61.8523 12.1508C61.8177 11.7721 61.8108 11.3935 61.8523 11.0148C61.8592 10.5811 61.8661 10.1405 61.8799 9.70683C61.8799 8.99086 61.8661 8.2749 61.8799 7.55893C61.8868 7.25602 61.9352 6.94623 62.0941 6.67086C62.1217 6.65709 62.1424 6.64332 62.1701 6.62267C62.1701 6.6089 62.1701 6.59513 62.1701 6.58136C62.2184 6.5194 62.2599 6.45744 62.3497 6.45056C62.3704 6.40237 62.4188 6.3886 62.4602 6.36106C62.8609 6.127 63.31 6.07881 63.759 6.07881C67.8696 6.07881 71.9733 6.07881 76.0839 6.07881C76.222 6.07881 76.3671 6.09257 76.4707 5.98931C76.7333 5.73459 76.9405 5.44545 76.9613 5.06681C77.0027 4.99797 76.9958 4.92224 77.0096 4.84652C77.0787 4.33019 77.0372 3.81387 77.058 3.29755V3.21494L77.0441 3.20805ZM75.8559 3.22182C75.8559 3.22182 75.8835 3.23559 75.8904 3.23559C75.8835 3.23559 75.8697 3.22871 75.8559 3.22182ZM65.1545 13.8856C65.1545 13.8856 65.1822 13.8994 65.1891 13.8994C65.1822 13.8994 65.1684 13.8925 65.1545 13.8856ZM68.9542 15.2625C68.9888 15.2625 69.0302 15.2625 69.0648 15.2487C69.0302 15.2625 68.9957 15.2625 68.9612 15.2625H68.9542ZM64.1183 16.24C64.1183 16.24 64.1252 16.2194 64.1321 16.2056C64.1321 16.2056 64.1252 16.2263 64.1183 16.24ZM58.9023 22.7182C58.9092 22.6562 58.9023 22.6011 58.8747 22.5667C58.9023 22.6011 58.9161 22.6493 58.9023 22.7182ZM59.8488 13.6171C59.8488 13.624 59.8488 13.6309 59.8419 13.6378C59.8419 13.6309 59.8419 13.624 59.8488 13.6171ZM59.7037 14.8356C59.7521 14.9182 59.8557 14.9251 59.9662 14.9182C59.8557 14.9182 59.7521 14.9182 59.7106 14.8356H59.7037ZM60.3669 3.50408C60.4291 3.46277 60.4982 3.42147 60.5604 3.37328C60.4982 3.42147 60.4291 3.45589 60.3669 3.50408ZM63.1511 13.9269C63.1511 13.9269 63.082 13.9613 63.0958 14.0026C63.0889 13.9613 63.1165 13.9407 63.1511 13.9269Z" fill="#484848"/>
<path d="M86.8611 13.7824C86.9025 13.0733 86.8473 12.3711 86.8404 11.662C86.8404 11.2008 86.8335 10.7395 86.792 10.2783C86.7298 9.47972 86.336 9.05978 85.583 9.02536C85.3274 8.94963 85.0649 8.99094 84.8093 8.9634C84.7263 8.94275 84.6365 8.94275 84.5536 8.95652C84.3671 8.93586 84.1806 8.94275 83.994 8.95652H83.9111C83.9111 8.95652 83.8904 8.98405 83.8835 9.00471C83.8766 8.99094 83.8628 8.97028 83.8559 8.95652C83.8006 8.95652 83.7384 8.93586 83.6901 8.98405C83.2617 8.95652 82.8334 8.97028 82.4051 8.99782C82.3774 8.99782 82.3498 8.99782 82.3222 8.99782C81.956 9.06666 81.5899 9.12862 81.3066 9.39023C81.1408 9.49349 81.1477 9.67248 81.1132 9.82394C81.0648 9.92032 81.0372 10.0167 81.0441 10.12C81.0165 10.3334 80.9888 10.5468 80.9888 10.7671C80.9888 14.698 80.9888 18.629 80.9888 22.553C80.9888 24.4187 81.0234 26.2843 80.9474 28.1499C80.9474 28.1912 80.9474 28.2326 80.9474 28.2739C80.975 28.6938 80.899 29.1137 81.0026 29.5268C81.1615 30.1946 81.3826 30.5457 82.0735 30.5594C82.1218 30.6008 82.1771 30.5939 82.2393 30.5939C83.1443 30.5939 84.0493 30.587 84.9543 30.5801C84.982 30.5801 85.0096 30.5939 85.0372 30.5939C85.1063 30.5939 85.1823 30.5939 85.2514 30.5939C85.4172 30.5801 85.5968 30.5801 85.7557 30.5457C86.5433 30.3667 86.7367 30.2015 86.7851 29.575C86.8127 29.3616 86.8404 29.1551 86.868 28.9416C86.868 28.8866 86.868 28.8315 86.868 28.7695C86.868 27.4891 86.868 26.2155 86.868 24.935C86.868 24.639 86.868 24.3429 86.868 24.0469C86.868 23.9574 86.868 23.8679 86.868 23.7715C86.868 21.2863 86.868 18.7942 86.868 16.3089C86.868 15.9785 86.868 15.6481 86.868 15.3245C86.868 15.1868 86.868 15.0422 86.868 14.9046C86.868 14.8495 86.868 14.7944 86.868 14.7393C86.8749 14.4158 86.8818 14.0922 86.8542 13.7686L86.8611 13.7824ZM85.3827 28.384C85.3827 28.384 85.4034 28.3978 85.4103 28.4115C85.4103 28.3978 85.3965 28.3909 85.3827 28.384ZM83.3515 14.2024C83.2756 14.2024 83.2134 14.2024 83.1719 14.2024C83.2203 14.2024 83.2756 14.2024 83.3515 14.2024ZM83.393 12.9081C83.393 12.9081 83.3723 12.8668 83.3585 12.853C83.3585 12.853 83.3792 12.8875 83.393 12.9081Z" fill="#484848"/>
</g>
<defs>
<clipPath id="clip0_0_1253">
<rect width="300" height="300" fill="white"/>
</clipPath>
</defs>
</svg>
