<svg width="238" height="25" viewBox="0 0 238 25" fill="none" xmlns="http://www.w3.org/2000/svg">
<g clip-path="url(#clip0_0_1271)">
<path d="M201.168 23.0273C199.259 22.8503 197.915 21.7877 196.819 20.3168C195.073 17.9703 193.308 15.6385 191.557 13.2969C191.428 13.1248 191.334 12.9329 191.2 12.7115C191.865 12.4459 192.475 12.254 193.04 11.9785C195.088 10.9848 196.591 9.59268 196.824 7.16745C197.102 4.29457 195.981 2.40063 193.293 1.28886C191.87 0.698542 190.372 0.560801 188.874 0.541124C185.433 0.491931 181.986 0.526366 178.545 0.526366H177.959V1.97265C178.188 1.98249 178.396 1.97265 178.589 2.00708C181.138 2.37603 181.138 2.66135 181.173 4.63892V5.0669C181.178 10.2027 181.193 15.3384 181.188 20.4742C181.183 22.3386 180.533 22.7912 179.065 22.9585C177.87 23.0962 177.875 23.1307 177.945 24.3556C177.945 24.39 177.979 24.4244 177.999 24.4589H188.279C188.408 23.5832 188.053 23.0929 187.213 22.988C185.418 22.7666 185.031 22.3337 185.026 20.548C185.026 20.489 185.031 20.4299 185.031 20.366C185.026 18.4081 185.016 16.4551 185.011 14.4972V13.7397C185.76 13.7397 186.415 13.72 187.069 13.7544C187.238 13.7643 187.446 13.9118 187.55 14.0545C189.961 17.4341 192.356 20.8186 194.766 24.1981C194.875 24.3457 195.113 24.4884 195.292 24.4933C197.211 24.513 199.13 24.4884 201.044 24.513C201.714 24.5228 201.595 24.0506 201.669 23.6865C201.748 23.2979 201.605 23.0667 201.168 23.0273ZM187.268 12.0179C186.712 12.0425 186.157 12.0327 185.601 12.072C185.135 12.1065 184.996 11.9097 185.001 11.4669C185.021 9.9813 185.011 8.49567 185.011 7.01003H185.021C185.021 5.56867 185.036 4.12239 185.011 2.67611C185.006 2.20386 185.155 1.99232 185.641 2.03168C186.792 2.11531 187.952 2.10055 189.083 2.28748C191.309 2.64659 192.579 4.71763 192.381 7.21173C192.153 10.06 190.01 11.8851 187.268 12.0179Z" fill="#484848"/>
<path d="M113.892 23.0273C112.072 22.8749 110.768 21.8861 109.716 20.489C107.936 18.1179 106.151 15.7468 104.37 13.3756C104.232 13.1936 104.113 12.987 103.939 12.7164C104.554 12.4705 105.095 12.2786 105.61 12.0474C107.718 11.1029 109.26 9.7009 109.563 7.28552C109.855 4.91932 109.052 2.51869 106.389 1.42168C104.842 0.78709 103.25 0.565721 101.623 0.541124C98.2211 0.491931 94.8191 0.526366 91.4171 0.526366H90.822C90.8072 0.7133 90.7923 0.811687 90.7873 0.914992C90.7543 1.56106 91.0535 1.93329 91.6849 2.03168C93.6091 2.32684 93.9612 2.75482 93.9562 4.73239C93.9414 8.66785 93.9314 12.6033 93.9166 16.5338C93.9116 18.1031 93.9562 19.6724 93.8868 21.2367C93.8422 22.2698 93.3512 22.7174 92.3296 22.9044C92.0668 22.9536 91.799 22.9929 91.5312 23.0175C90.7229 23.0864 90.7179 23.0815 90.7724 23.8686C90.7824 24.0653 90.8171 24.2621 90.8419 24.4982C94.1546 24.4982 97.4276 24.5031 100.701 24.4835C100.849 24.4835 101.078 24.267 101.122 24.1096C101.37 23.2487 101.231 23.0765 100.354 23.0273C100.15 23.0126 99.9419 22.988 99.7386 22.9536C98.1666 22.6978 97.7599 22.2501 97.75 20.6956C97.7351 18.4179 97.745 16.1354 97.745 13.7397C98.3996 13.7397 98.9947 13.7003 99.5799 13.7593C99.8428 13.7839 100.17 13.9364 100.329 14.1381C101.38 15.4713 102.426 16.8142 103.408 18.1966C104.777 20.1299 106.086 22.1074 107.445 24.0506C107.599 24.2621 107.921 24.4785 108.169 24.4835C110.044 24.5228 111.923 24.4933 113.798 24.513C114.333 24.5179 114.343 24.2031 114.338 23.839C114.338 23.4898 114.492 23.0765 113.892 23.0273ZM100.046 12.0179C99.4708 12.0474 98.8906 12.0425 98.3153 12.0671C97.9087 12.0819 97.7401 11.954 97.75 11.5063C97.7847 10.0207 97.7649 8.5301 97.7649 7.04447C97.7649 5.55883 97.7847 4.15191 97.7549 2.70563C97.745 2.1645 97.9285 1.97757 98.4691 2.02184C99.3716 2.09563 100.279 2.09071 101.182 2.17926C104.083 2.45966 105.437 4.68319 105.124 7.47245C104.876 9.69598 103.046 11.8752 100.046 12.0179Z" fill="#484848"/>
<path d="M137.384 8.4022C136.025 3.25167 131.76 0.0590319 125.551 0C121.966 0.0983865 118.593 1.96773 116.391 5.7802C114.795 8.54978 114.527 11.5506 114.904 14.6547C115.538 19.8249 119.253 24.3359 124.936 24.9065C129.295 25.3444 132.93 23.9522 135.524 20.4152C138.207 16.7651 138.504 12.6427 137.384 8.4022ZM132.142 19.6625C130.624 22.4616 128.065 23.7161 124.936 23.1503C123.22 22.8404 121.951 21.832 120.998 20.425C119.729 18.536 119.208 16.4109 119.089 14.1873C118.931 11.1767 119.094 8.20051 120.483 5.42109C122.184 2.02676 126.032 0.688705 129.3 2.39079C131.204 3.37958 132.246 5.0669 132.881 7.02971C133.471 8.84986 133.669 10.7241 133.659 12.6279C133.649 15.0777 133.337 17.4636 132.142 19.6625Z" fill="#484848"/>
<path d="M23.7296 14.0988C23.7098 14.6104 23.7594 15.0974 23.0006 15.1023C22.6584 15.1023 22.3113 15.2155 21.979 15.3188C21.1955 15.5549 20.6599 16.0715 20.6351 16.8881C20.5855 18.536 20.5954 20.184 20.6202 21.832C20.6401 22.9487 20.6748 22.9634 19.6433 23.357C17.0348 24.3458 14.3568 25.0246 11.5301 25C5.51463 24.9508 0.505882 20.2627 0.0595579 14.3251C-0.168563 11.2604 0.193455 8.33828 1.82998 5.68184C3.82356 2.45477 6.74451 0.62478 10.5482 0.137767C13.0377 -0.181989 15.3933 0.167283 17.61 1.32824C18.0712 1.56929 18.3787 1.60864 18.6068 1.01833C18.6911 0.792037 19.073 0.614941 19.3556 0.546071C19.6879 0.467361 20.0499 0.526393 20.5062 0.526393C20.5062 1.19542 20.4963 1.8005 20.5062 2.40557C20.5409 4.36347 20.5855 6.31644 20.6202 8.27433C20.6252 8.60884 20.7095 8.98763 20.1789 9.06142C19.3408 9.1844 19.0531 9.04666 18.8399 8.50554C18.3688 7.29538 17.9373 6.06063 17.3422 4.90459C15.0858 0.521474 9.56131 1.01341 7.09661 3.72887C5.713 5.25386 4.97904 7.04942 4.60215 9.02206C3.98225 12.2983 4.13103 15.5156 5.53447 18.5901C6.45191 20.5923 7.88015 22.1517 10.0423 22.87C12.1698 23.5734 14.2626 23.4308 16.2562 22.3485C16.6579 22.1321 16.8959 21.8369 16.8959 21.3892C16.9058 19.9233 16.9505 18.4573 16.9009 16.9914C16.8661 15.9977 16.4049 15.5352 15.4082 15.3286C14.7833 15.2007 14.1485 15.0974 13.5138 15.063C12.7401 15.0236 13.003 14.4776 12.9534 14.0791C12.9038 13.661 13.117 13.5085 13.5386 13.5134C16.6727 13.5232 19.8069 13.5183 22.9411 13.5282C23.3279 13.5282 23.7544 13.4888 23.7296 14.0988Z" fill="#484848"/>
<path d="M162.606 23.5192C159.819 25.2066 156.893 25.3 153.868 24.3112C153.208 24.0948 152.574 23.7898 151.914 23.5635C151.765 23.5094 151.433 23.5684 151.408 23.6471C151.046 24.7884 150.129 24.4932 149.162 24.4834C149.162 22.3632 149.167 20.3069 149.162 18.2555C149.157 17.7243 149.127 17.193 149.102 16.6666C149.087 16.3124 149.246 16.1648 149.603 16.1206C150.471 16.0123 150.689 16.1107 150.942 16.9273C151.359 18.2851 151.993 19.5297 152.841 20.6709C154.632 23.0716 157.012 23.6865 159.611 22.9781C162.318 22.2402 162.695 19.1853 161.753 17.252C161.178 16.0664 160.206 15.3089 159.011 14.8169C157.602 14.2414 156.179 13.7101 154.77 13.1345C153.511 12.6131 152.34 11.9441 151.373 10.9602C149.291 8.84488 148.879 3.65008 152.707 1.35275C155.738 -0.462477 158.693 -0.37393 161.723 1.23961C161.951 1.36259 162.194 1.45606 162.422 1.56428C163.166 0.418081 163.191 0.408243 164.6 0.580419C164.619 0.723079 164.654 0.880498 164.659 1.04284C164.709 3.32048 164.758 5.60305 164.803 7.88561C164.808 8.20537 164.877 8.55464 164.376 8.60876C163.414 8.7219 163.191 8.64811 163.042 8.09715C162.651 6.63119 162.095 5.2341 161.252 3.95999C159.933 1.96767 157.399 1.1363 155.366 2.01686C152.926 3.07452 152.355 6.17861 154.359 7.99384C155.157 8.71698 156.199 9.20891 157.191 9.68117C158.713 10.3994 160.29 10.9995 161.837 11.6686C162.189 11.8211 162.507 12.0621 162.849 12.2491C166.906 14.4873 166.687 21.0399 162.606 23.5192Z" fill="#484848"/>
<path d="M83.78 1.01836C82.8328 0.723197 81.8013 0.565778 80.8094 0.546101C77.2587 0.491989 73.7129 0.526424 70.1621 0.526424H69.5522V1.97271C69.7952 1.98254 69.9836 1.98254 70.1621 2.00714C72.731 2.37117 72.7161 2.66633 72.7558 4.69801V5.00301C72.7558 9.60749 72.7607 14.2169 72.7558 18.8214C72.7558 19.574 72.7905 20.3316 72.731 21.0843C72.6318 22.2452 72.121 22.7421 70.9506 22.9093C70.4894 22.9782 70.0233 23.0274 69.5422 23.0914V24.4196C69.5869 24.4589 69.6018 24.4835 69.6166 24.4835C72.9591 24.4934 76.3016 24.5032 79.6391 24.4934C79.7829 24.4934 79.9961 24.3655 80.0557 24.2425C80.3929 23.5439 80.1052 23.0668 79.3465 23.0176C79.163 23.0077 78.9795 22.993 78.796 22.9684C76.9909 22.747 76.614 22.3239 76.614 20.5333V20.4743C76.6239 18.8411 76.6338 17.2128 76.6388 15.5796C76.6438 15.1171 76.6438 14.6547 76.6438 14.0742C77.1298 14.0742 77.5215 14.0988 77.9083 14.0693C79.2424 13.9709 80.6061 13.9955 81.9005 13.7151C84.7966 13.0953 87.063 11.5752 87.8564 8.58919C88.8334 4.90462 87.4101 2.14488 83.78 1.01836ZM79.0043 12.3033C78.3894 12.3426 77.7695 12.3525 77.1496 12.3722C76.738 12.3869 76.5793 12.2049 76.5842 11.7769C76.6041 10.2519 76.5942 8.72202 76.5942 7.19211H76.6289C76.6289 5.68679 76.6438 4.17656 76.619 2.67125C76.609 2.24327 76.7281 2.07601 77.1645 2.09077C78.0075 2.12028 78.8555 2.06125 79.6887 2.15472C82.0443 2.42036 83.5469 4.15688 83.7155 6.81824C83.8841 9.45008 82.5452 12.0967 79.0043 12.3033Z" fill="#484848"/>
<path d="M47.6228 23.0323C45.9218 22.8159 44.8804 21.8467 44.2952 20.307C43.6356 18.5754 42.9562 16.8536 42.2818 15.127C40.427 10.365 38.5525 5.60806 36.7225 0.836317C36.4647 0.15745 36.0084 0.206643 35.4629 0.16237C34.9025 0.118096 34.7785 0.467368 34.6248 0.860913C32.8693 5.35718 31.1088 9.85344 29.3384 14.3399C28.5498 16.3322 27.7564 18.3147 26.9332 20.2873C26.3877 21.5959 25.4851 22.5404 24.042 22.9093C22.9113 23.1946 22.9162 23.2094 23.0154 24.5081H31.3914C32.3783 24.5081 32.413 24.4687 32.3833 23.4701C32.3783 23.3521 32.3585 23.2389 32.3436 23.0815C31.6394 22.9536 30.9501 22.8454 30.2707 22.6929C29.016 22.4223 28.6639 21.9255 29.016 20.7005C29.4078 19.3133 29.9037 17.9506 30.3947 16.5929C30.4591 16.4207 30.7864 16.2387 30.9947 16.2387C33.4247 16.2141 35.8596 16.2141 38.2896 16.2338C38.4682 16.2338 38.7508 16.3814 38.8054 16.524C39.4749 18.2556 40.1146 19.9922 40.7543 21.7336C40.9329 22.2108 40.7543 22.5355 40.2535 22.6437C39.4749 22.8208 38.6913 22.9733 37.8532 23.1454V24.4737C37.9772 24.4884 38.0566 24.5032 38.1359 24.5032C41.2304 24.5032 44.3249 24.5032 47.4145 24.513C47.7864 24.513 48.0592 24.4196 47.9848 24.0063C47.9203 23.6669 48.3121 23.1159 47.6228 23.0323ZM37.278 14.5612C35.5125 14.5661 33.7421 14.5612 31.9717 14.5612C31.3567 14.5612 31.2377 14.4382 31.446 13.8971C32.4329 11.3145 33.4346 8.73675 34.4364 6.15902C34.4463 6.12951 34.4959 6.11475 34.6496 6.00161C35.7654 8.8253 36.8664 11.6146 38.002 14.4973C37.635 14.5317 37.4565 14.5612 37.278 14.5612Z" fill="#484848"/>
<path d="M230.884 19.4363C230.804 20.9022 230.675 22.3633 230.596 23.8243C230.566 24.331 230.388 24.5179 229.842 24.5179C223.946 24.4983 218.049 24.5081 212.153 24.5081H211.607V23.0864C212.108 23.0274 212.574 22.988 213.041 22.9142C214.142 22.7421 214.637 22.2944 214.687 21.1974C214.756 19.6527 214.707 18.1031 214.712 16.5585C214.727 12.746 214.747 8.93353 214.766 5.12597V4.82097C214.747 3.14348 214.265 2.53841 212.604 2.12027C211.844 1.92677 211.518 1.41024 211.627 0.570679H221.868V1.90873C221.243 2.00712 220.668 2.06615 220.112 2.19897C219.135 2.4351 218.719 2.90736 218.615 3.8863C218.555 4.4717 218.565 5.06202 218.565 5.65234C218.555 10.4634 218.55 15.2696 218.545 20.0807C218.545 20.2824 218.54 20.489 218.545 20.6907C218.644 22.0927 219.155 22.7765 220.549 22.8552C222.101 22.9388 223.668 22.806 225.225 22.6978C226.068 22.6388 226.743 22.1518 227.189 21.4532C227.883 20.371 228.568 19.2789 229.168 18.1474C229.718 17.1045 229.664 17.0799 230.884 17.2029C230.884 17.9457 230.918 18.6935 230.879 19.4363H230.884Z" fill="#484848"/>
<path d="M68.005 19.5346C67.9257 20.9809 67.7967 22.4223 67.7025 23.8636C67.6728 24.2916 67.5636 24.5179 67.0479 24.5179C61.0622 24.4982 55.0814 24.5081 49.1007 24.5031C49.0015 24.5031 48.9023 24.4933 48.7585 24.4884C48.7387 24.3703 48.7188 24.3113 48.7139 24.2523C48.661 23.5144 49.0065 23.0913 49.7503 22.9831C51.4365 22.7371 51.8927 22.2058 51.8877 20.4545C51.8778 16.2977 51.8481 12.1409 51.8382 7.98406C51.8332 6.94116 51.8927 5.90319 51.8927 4.86521C51.8927 3.14345 51.4017 2.53837 49.7107 2.11531C48.947 1.92509 48.6345 1.39545 48.7734 0.526367H58.1462C59.1033 0.526367 59.1182 0.541125 59.0389 1.4758C59.0289 1.61846 58.9992 1.7562 58.9744 1.92345C58.4983 1.98741 58.0321 2.0366 57.5759 2.12023C56.2816 2.36127 55.8055 2.86305 55.7013 4.15191C55.6617 4.67828 55.6914 5.20956 55.6914 5.74085C55.6865 10.5274 55.6765 15.3188 55.6716 20.1102C55.6716 20.2922 55.6666 20.4791 55.6765 20.6612C55.7658 22.0828 56.2915 22.7863 57.7148 22.8601C59.2471 22.9388 60.7944 22.8158 62.3317 22.7076C63.1698 22.6486 63.8542 22.1714 64.3055 21.4728C64.9998 20.3906 65.6891 19.3034 66.2891 18.172C66.8396 17.1291 66.79 17.1045 68.01 17.193C68.01 17.9703 68.0447 18.7574 68.005 19.5346Z" fill="#484848"/>
<path d="M174.131 22.5403C174.176 23.7603 173.189 24.7344 171.875 24.7737C170.486 24.8082 169.405 23.8932 169.355 22.6437C169.306 21.1925 170.283 20.1004 171.696 20.0364C173.055 19.9774 174.081 21.035 174.131 22.5403Z" fill="#484848"/>
<path d="M207.804 22.6535C207.799 23.844 206.747 24.7786 205.423 24.7737C204.03 24.7737 203.028 23.7997 203.033 22.4616C203.038 21.0744 204.109 20.0167 205.483 20.0364C206.847 20.061 207.804 21.1433 207.804 22.6535Z" fill="#484848"/>
<path d="M238 22.6682C237.99 23.8784 236.909 24.8081 235.545 24.7737C234.186 24.7392 233.209 23.7554 233.229 22.4468C233.254 21.0547 234.325 20.0069 235.694 20.0364C237.058 20.0708 238.01 21.158 238 22.6682Z" fill="#484848"/>
</g>
<defs>
<clipPath id="clip0_0_1271">
<rect width="300" height="300" fill="white"/>
</clipPath>
</defs>
</svg>
