<svg width="17" height="17" viewBox="0 0 17 17" fill="none" xmlns="http://www.w3.org/2000/svg">
<g id="uil:facebook">
<path id="Vector" d="M14.8041 1.41675H2.19579C1.98914 1.41675 1.79096 1.49884 1.64484 1.64496C1.49872 1.79108 1.41663 1.98927 1.41663 2.19591V14.8042C1.41663 15.0109 1.49872 15.2091 1.64484 15.3552C1.79096 15.5013 1.98914 15.5834 2.19579 15.5834H8.98163V10.0938H7.13996V7.96883H8.98163V6.37508C8.94348 6.00091 8.98765 5.62292 9.11105 5.26763C9.23445 4.91234 9.43408 4.58834 9.69596 4.31837C9.95783 4.0484 10.2756 3.83899 10.627 3.70483C10.9783 3.57067 11.3548 3.51501 11.73 3.54175C12.2813 3.53836 12.8323 3.56674 13.3804 3.62675V5.53925H12.2541C11.3616 5.53925 11.1916 5.96425 11.1916 6.5805V7.94758H13.3166L13.0404 10.0726H11.1916V15.5834H14.8041C14.9064 15.5834 15.0078 15.5633 15.1023 15.5241C15.1968 15.4849 15.2827 15.4276 15.3551 15.3552C15.4274 15.2829 15.4848 15.197 15.524 15.1024C15.5631 15.0079 15.5833 14.9066 15.5833 14.8042V2.19591C15.5833 2.09359 15.5631 1.99227 15.524 1.89774C15.4848 1.80321 15.4274 1.71731 15.3551 1.64496C15.2827 1.57261 15.1968 1.51522 15.1023 1.47606C15.0078 1.4369 14.9064 1.41675 14.8041 1.41675Z" fill="#FCB414"/>
</g>
</svg>
