<svg width="15" height="15" viewBox="0 0 15 15" fill="none" xmlns="http://www.w3.org/2000/svg">
<path d="M4.52496 0.416748H10.475C12.7416 0.416748 14.5833 2.25841 14.5833 4.52508V10.4751C14.5833 11.5647 14.1505 12.6097 13.38 13.3801C12.6095 14.1506 11.5646 14.5834 10.475 14.5834H4.52496C2.25829 14.5834 0.416626 12.7417 0.416626 10.4751V4.52508C0.416626 3.43548 0.849467 2.39051 1.61993 1.62005C2.39039 0.849589 3.43536 0.416748 4.52496 0.416748ZM4.38329 1.83341C3.70699 1.83341 3.05839 2.10207 2.58017 2.58029C2.10195 3.05851 1.83329 3.70711 1.83329 4.38341V10.6167C1.83329 12.0263 2.97371 13.1667 4.38329 13.1667H10.6166C11.2929 13.1667 11.9415 12.8981 12.4197 12.4199C12.898 11.9417 13.1666 11.2931 13.1666 10.6167V4.38341C13.1666 2.97383 12.0262 1.83341 10.6166 1.83341H4.38329ZM11.2187 2.89591C11.4535 2.89591 11.6787 2.9892 11.8448 3.15525C12.0108 3.3213 12.1041 3.5465 12.1041 3.78133C12.1041 4.01616 12.0108 4.24137 11.8448 4.40742C11.6787 4.57346 11.4535 4.66675 11.2187 4.66675C10.9839 4.66675 10.7587 4.57346 10.5926 4.40742C10.4266 4.24137 10.3333 4.01616 10.3333 3.78133C10.3333 3.5465 10.4266 3.3213 10.5926 3.15525C10.7587 2.9892 10.9839 2.89591 11.2187 2.89591ZM7.49996 3.95842C8.43927 3.95842 9.34011 4.33155 10.0043 4.99575C10.6685 5.65994 11.0416 6.56077 11.0416 7.50008C11.0416 8.43939 10.6685 9.34023 10.0043 10.0044C9.34011 10.6686 8.43927 11.0417 7.49996 11.0417C6.56065 11.0417 5.65981 10.6686 4.99562 10.0044C4.33143 9.34023 3.95829 8.43939 3.95829 7.50008C3.95829 6.56077 4.33143 5.65994 4.99562 4.99575C5.65981 4.33155 6.56065 3.95842 7.49996 3.95842ZM7.49996 5.37508C6.93637 5.37508 6.39587 5.59896 5.99736 5.99748C5.59884 6.39599 5.37496 6.9365 5.37496 7.50008C5.37496 8.06367 5.59884 8.60417 5.99736 9.00268C6.39587 9.4012 6.93637 9.62508 7.49996 9.62508C8.06354 9.62508 8.60405 9.4012 9.00256 9.00268C9.40108 8.60417 9.62496 8.06367 9.62496 7.50008C9.62496 6.9365 9.40108 6.39599 9.00256 5.99748C8.60405 5.59896 8.06354 5.37508 7.49996 5.37508Z" fill="#FCB414"/>
</svg>
