<svg width="458" height="378" viewBox="0 0 458 378" fill="none" xmlns="http://www.w3.org/2000/svg">
<g clip-path="url(#clip0_0_1102)">
<path d="M209.074 90.401L251.191 65.0229C251.566 63.0759 252.465 61.6727 253.727 60.9141L211.61 86.2921C210.348 87.0508 209.449 88.454 209.074 90.401Z" fill="#5A7788"/>
<path d="M238.905 52.1526C239.133 52.0116 239.449 52.0318 239.797 52.2466L254.015 60.7597L211.898 86.1378L197.68 77.6247C197.332 77.4166 197.016 77.3964 196.788 77.5307L238.905 52.1526Z" fill="url(#paint0_linear_0_1102)" stroke="url(#paint1_linear_0_1102)" stroke-width="1.87" stroke-linecap="round" stroke-linejoin="round"/>
<path d="M218.259 86.9702L260.376 61.5922C257.927 60.1218 255.693 59.9137 254.015 60.7597C253.915 60.8067 253.821 60.8604 253.727 60.9208L211.61 86.2989C211.704 86.2451 211.798 86.1914 211.898 86.1377C213.569 85.2918 215.803 85.5066 218.259 86.9702Z" fill="#23404D"/>
<path d="M197.687 77.6246C196.989 77.2084 196.426 77.5441 196.426 78.3698V81.3373C196.412 82.1497 196.976 83.1568 197.667 83.573L209.074 90.4009C209.476 88.3062 210.489 86.8426 211.898 86.131L197.68 77.6179L197.687 77.6246Z" fill="#FFFEFB" stroke="url(#paint2_linear_0_1102)" stroke-width="1.87" stroke-linecap="round" stroke-linejoin="round"/>
<path d="M224.848 109.931L266.965 84.5533C268.643 83.5395 269.683 81.3911 269.689 78.3363C269.689 77.571 269.629 76.7854 269.508 75.9932C269.119 73.4286 268.119 70.7565 266.717 68.3597C265.053 65.5197 262.825 63.0558 260.376 61.5922L218.259 86.9702C220.708 88.4405 222.943 90.8978 224.6 93.7377C226.002 96.1345 227.002 98.7999 227.391 101.371C227.512 102.164 227.572 102.949 227.572 103.714C227.566 106.769 226.526 108.918 224.848 109.931Z" fill="#FFFEFB" stroke="url(#paint3_linear_0_1102)" stroke-width="1.87" stroke-linecap="round" stroke-linejoin="round"/>
<path d="M275.144 129.952L317.261 104.574C317.637 102.634 318.536 101.23 319.798 100.472L277.681 125.85C276.419 126.608 275.52 128.005 275.144 129.952Z" fill="#5A7788"/>
<path d="M277.976 125.689L320.093 100.31L266.717 68.3596L224.6 93.7377L277.976 125.689Z" fill="url(#paint4_linear_0_1102)"/>
<path d="M275.144 129.952C275.547 127.857 276.56 126.4 277.976 125.689L224.6 93.7378C226.002 96.1346 227.002 98.8 227.391 101.371L275.144 129.959V129.952Z" fill="#FFFEFB" stroke="url(#paint5_linear_0_1102)" stroke-width="1.87" stroke-linecap="round" stroke-linejoin="round"/>
<path d="M284.343 126.528L326.46 101.15C324.011 99.6794 321.77 99.4713 320.099 100.311C319.999 100.364 319.898 100.418 319.804 100.472L277.687 125.85C277.781 125.789 277.882 125.736 277.982 125.689C279.66 124.849 281.894 125.058 284.343 126.528Z" fill="#23404D"/>
<path d="M290.932 149.489L333.049 124.111C334.727 123.097 335.767 120.949 335.773 117.894C335.773 117.129 335.713 116.343 335.592 115.551C335.203 112.986 334.203 110.314 332.801 107.917C331.137 105.077 328.909 102.613 326.46 101.15L284.343 126.528C286.792 127.998 289.027 130.455 290.684 133.295C292.086 135.692 293.086 138.358 293.475 140.929C293.596 141.721 293.656 142.507 293.656 143.272C293.65 146.327 292.61 148.475 290.932 149.489Z" fill="#FFFEFB" stroke="url(#paint6_linear_0_1102)" stroke-width="1.87" stroke-linecap="round" stroke-linejoin="round"/>
<path d="M307.391 144.796C307.391 143.97 306.848 142.97 306.15 142.554L290.684 133.295C292.086 135.692 293.086 138.357 293.475 140.929L306.13 148.502C306.828 148.918 307.378 148.576 307.378 147.763V144.796H307.391Z" fill="#FFFEFB" stroke="url(#paint7_linear_0_1102)" stroke-width="1.87" stroke-linecap="round" stroke-linejoin="round"/>
<path d="M332.801 107.917L348.267 117.176C348.965 117.592 349.508 118.592 349.508 119.418V122.385C349.502 122.795 349.361 123.077 349.139 123.218L307.022 148.596C307.244 148.462 307.385 148.173 307.385 147.763V144.796C307.391 143.963 306.848 142.97 306.15 142.554L290.684 133.295L332.801 107.917Z" fill="#FFFEFB" stroke="url(#paint8_linear_0_1102)" stroke-width="1.87" stroke-linecap="round" stroke-linejoin="round"/>
<path d="M200.606 32.5887L265.019 71.4011C266.388 72.2269 268.616 72.2336 269.998 71.4078L317.375 43.0488C318.066 42.6325 318.409 42.0954 318.409 41.5516L318.536 89.0851C318.536 89.629 318.194 90.1661 317.503 90.5823L270.125 118.941C268.743 119.767 266.522 119.76 265.147 118.935L200.733 80.1222C200.056 79.7127 199.713 79.1756 199.713 78.6385L199.586 31.105C199.586 31.6421 199.928 32.1792 200.606 32.5887Z" fill="#FFFEFB" stroke="url(#paint9_linear_0_1102)" stroke-width="1.87" stroke-linecap="round" stroke-linejoin="round"/>
<path d="M200.626 29.6078C199.244 30.4336 199.251 31.7696 200.613 32.5887L265.026 71.401C266.395 72.2268 268.622 72.2335 270.005 71.4077L317.382 43.0488C318.764 42.223 318.758 40.8869 317.382 40.0611L252.969 1.24207C251.607 0.422994 249.386 0.41628 248.003 1.24207L200.626 29.6011V29.6078Z" fill="#FFFEFB" stroke="url(#paint10_linear_0_1102)" stroke-width="1.87" stroke-linecap="round" stroke-linejoin="round"/>
<path d="M244.997 93.2677L258.719 101.485C260.088 102.304 261.208 104.298 261.202 105.943V108.911C261.188 110.556 260.061 111.207 258.692 110.388L244.971 102.17C243.602 101.351 242.481 99.3571 242.488 97.7122V94.7447C242.501 93.0999 243.629 92.4486 244.997 93.2677Z" fill="url(#paint11_linear_0_1102)"/>
<path d="M245.024 84.3518L258.746 92.5695C260.115 93.3886 261.235 95.3826 261.228 97.0274C261.228 98.6723 260.101 99.3235 258.732 98.5045L245.011 90.2868C243.642 89.4677 242.522 87.4737 242.528 85.8289C242.528 84.184 243.656 83.5327 245.024 84.3518Z" fill="url(#paint12_linear_0_1102)"/>
<path d="M211.898 81.4851C212.932 82.1027 213.777 81.6059 213.777 80.3773L213.797 72.9586C213.797 71.7299 212.959 70.2193 211.932 69.6017L205.705 65.8755C204.672 65.2579 203.827 65.7547 203.827 66.9833L203.806 74.402C203.806 75.6306 204.645 77.1412 205.672 77.7589L211.898 81.4851ZM205.705 64.3851L211.932 68.1112C213.65 69.1384 215.045 71.6494 215.039 73.6971L215.018 81.1158C215.018 83.1635 213.603 83.996 211.892 82.9621L205.665 79.2359C203.947 78.2087 202.552 75.6978 202.558 73.6501L202.579 66.2314C202.579 64.1836 203.994 63.3511 205.705 64.3851Z" fill="url(#paint13_linear_0_1102)"/>
<path d="M207.141 69.7091L210.476 71.7031V73.6837C210.469 74.6034 209.926 75.06 209.221 74.8519V75.9193L210.462 76.6646V77.6515L209.214 76.9063L208.376 76.4027L207.128 75.6575V74.6706L208.376 75.4158V74.3483C207.671 73.7105 207.134 72.6162 207.141 71.6897V69.7091Z" fill="url(#paint14_linear_0_1102)"/>
<path d="M273.635 77.4568L315.752 52.0787C315.752 52.0787 315.752 52.0787 315.758 52.0787C315.778 52.0653 315.98 51.978 316.208 52.0049C316.436 52.0317 316.577 52.1324 316.637 52.1727L274.52 77.5508C274.353 77.4501 274.031 77.3762 274.031 77.3762C273.883 77.3628 273.749 77.3896 273.635 77.4635V77.4568Z" fill="#93A2D4"/>
<path d="M304.325 141.499L346.435 116.121L346.496 95.6578L304.379 121.036L304.325 141.499Z" fill="#FFFEFB" stroke="url(#paint15_linear_0_1102)" stroke-width="1.87" stroke-linecap="round" stroke-linejoin="round"/>
<path d="M304.379 121.036L346.496 95.6578L329.56 59.907L287.45 85.2783L304.379 121.036Z" fill="#FFFEFB" stroke="url(#paint16_linear_0_1102)" stroke-width="1.87" stroke-linecap="round" stroke-linejoin="round"/>
<path d="M287.45 85.2784L329.56 59.907L316.637 52.166L274.52 77.5441L287.45 85.2784Z" fill="#FFFEFB" stroke="url(#paint17_linear_0_1102)" stroke-width="1.87" stroke-linecap="round" stroke-linejoin="round"/>
<path d="M274.52 77.5441C273.836 77.1346 273.272 77.4702 273.272 78.2826L273.152 122.842L304.325 141.5L304.379 121.029L287.45 85.2784L274.52 77.5374V77.5441Z" fill="#FFFEFB" stroke="url(#paint18_linear_0_1102)" stroke-width="1.87" stroke-linecap="round" stroke-linejoin="round"/>
<path d="M221.835 45.4321L274.205 14.0787L290.302 23.7801L237.932 55.1268L221.835 45.4321Z" fill="#FFFEFB" stroke="url(#paint19_linear_0_1102)" stroke-width="1.87" stroke-linecap="round" stroke-linejoin="round"/>
<path d="M221.809 45.4187L238.026 55.1268L237.972 74.4424C237.972 75.2547 237.409 75.5904 236.724 75.1809L223.01 66.9699C222.312 66.5537 221.755 65.5466 221.755 64.7342L221.809 45.4187Z" fill="#FFFEFB" stroke="url(#paint20_linear_0_1102)" stroke-width="1.87" stroke-linecap="round" stroke-linejoin="round"/>
<path d="M284.343 126.528C281.894 125.057 279.653 124.849 277.983 125.689C276.567 126.4 275.554 127.864 275.151 129.952C275.024 130.596 274.956 131.308 274.956 132.073C274.936 138.223 279.123 145.722 284.283 148.811C289.443 151.899 293.643 149.422 293.663 143.272C293.663 142.507 293.603 141.721 293.482 140.929C293.093 138.364 292.093 135.692 290.691 133.295C289.027 130.455 286.799 127.991 284.35 126.528H284.343Z" fill="#FFFEFB" stroke="url(#paint21_linear_0_1102)" stroke-width="1.87" stroke-linecap="round" stroke-linejoin="round"/>
<path d="M218.259 86.9702C215.81 85.4999 213.576 85.2918 211.898 86.1377C210.489 86.8494 209.476 88.313 209.074 90.4077C208.946 91.0522 208.879 91.7639 208.879 92.5292C208.859 98.679 213.032 106.172 218.199 109.26C223.359 112.348 227.559 109.871 227.579 103.721C227.579 102.956 227.519 102.17 227.398 101.378C227.009 98.8133 226.009 96.1412 224.607 93.7444C222.943 90.9045 220.715 88.4405 218.266 86.9769L218.259 86.9702Z" fill="#FFFEFB" stroke="url(#paint22_linear_0_1102)" stroke-width="1.87" stroke-linecap="round" stroke-linejoin="round"/>
<path d="M306.895 114.92L340.591 94.6173L327.044 66.0166L293.355 86.3191L306.895 114.92Z" fill="#FFFEFB" stroke="url(#paint23_linear_0_1102)" stroke-width="1.87" stroke-linecap="round" stroke-linejoin="round"/>
<path d="M277.372 83.9222C276.822 83.5932 276.372 83.8618 276.372 84.513L276.272 104.869L301.212 119.801L301.259 118.713L287.712 90.1123L277.372 83.9222Z" fill="#FFFEFB" stroke="url(#paint24_linear_0_1102)" stroke-width="1.87" stroke-linecap="round" stroke-linejoin="round"/>
<path d="M218.246 92.5427C217.018 91.8109 215.904 91.7035 215.065 92.1265C214.361 92.4823 213.851 93.2141 213.65 94.2614C213.589 94.5837 213.556 94.9395 213.556 95.3222C213.549 98.3971 215.636 102.143 218.212 103.688C220.795 105.232 222.896 103.99 222.902 100.915C222.902 100.532 222.869 100.143 222.808 99.7399C222.614 98.4576 222.111 97.1215 221.413 95.9265C220.581 94.5031 219.467 93.2745 218.239 92.5427H218.246Z" fill="url(#paint25_linear_0_1102)"/>
<path d="M284.323 132.1C283.095 131.368 281.981 131.261 281.143 131.684C280.438 132.04 279.928 132.772 279.727 133.819C279.667 134.141 279.633 134.497 279.633 134.88C279.626 137.955 281.713 141.701 284.296 143.252C286.88 144.796 288.98 143.554 288.986 140.479C288.986 140.096 288.953 139.707 288.893 139.304C288.698 138.022 288.195 136.686 287.497 135.491C286.665 134.067 285.551 132.839 284.323 132.107V132.1Z" fill="url(#paint26_linear_0_1102)"/>
<path d="M336.357 113.322L341.349 110.334C342.034 109.925 342.597 110.26 342.597 111.073V112.57C342.597 113.382 342.047 114.389 341.363 114.799L336.371 117.786C335.686 118.196 335.123 117.86 335.123 117.048V115.551C335.123 114.738 335.673 113.731 336.357 113.322Z" fill="url(#paint27_linear_0_1102)"/>
<path d="M310.001 128.522L314.987 125.541C315.671 125.131 316.235 125.467 316.235 126.279V127.777C316.235 128.589 315.685 129.596 315 130.006L310.015 132.986C309.317 133.403 308.767 133.06 308.767 132.248V130.751C308.767 129.938 309.31 128.938 310.001 128.522Z" fill="url(#paint28_linear_0_1102)"/>
<path d="M331.479 119.754V118.498L319.871 125.447V126.702L331.479 119.754ZM331.473 117.243V115.987L319.865 122.936V124.191L331.473 117.243ZM319.865 121.674L331.466 114.725C332.05 114.376 332.519 114.671 332.526 115.349L332.539 119.123C332.539 119.821 332.07 120.66 331.486 121.009L319.885 127.958C319.301 128.307 318.831 128.025 318.825 127.333L318.811 123.56C318.811 122.876 319.281 122.023 319.865 121.674Z" fill="url(#paint29_linear_0_1102)"/>
</g>
<g clip-path="url(#clip1_0_1102)">
<path d="M191.524 264.126L270.884 216.257C271.592 212.584 273.286 209.937 275.663 208.506L196.303 256.376C193.926 257.807 192.232 260.454 191.524 264.126Z" fill="#5A7788"/>
<path d="M247.735 191.98C248.165 191.714 248.759 191.752 249.416 192.157L276.206 208.215L196.847 256.085L170.057 240.027C169.399 239.634 168.805 239.596 168.375 239.85L247.735 191.98Z" fill="url(#paint30_linear_0_1102)" stroke="url(#paint31_linear_0_1102)" stroke-width="1.87" stroke-linecap="round" stroke-linejoin="round"/>
<path d="M208.833 257.655L288.192 209.785C283.577 207.012 279.367 206.619 276.206 208.215C276.017 208.304 275.84 208.405 275.663 208.519L196.303 256.389C196.48 256.287 196.657 256.186 196.847 256.085C199.995 254.489 204.205 254.894 208.833 257.655Z" fill="#23404D"/>
<path d="M170.069 240.027C168.755 239.242 167.693 239.875 167.693 241.433V247.03C167.667 248.562 168.729 250.462 170.032 251.247L191.524 264.126C192.283 260.175 194.192 257.414 196.847 256.072L170.057 240.014L170.069 240.027Z" fill="#FFFEFB" stroke="url(#paint32_linear_0_1102)" stroke-width="1.87" stroke-linecap="round" stroke-linejoin="round"/>
<path d="M221.248 300.965L300.607 253.096C303.768 251.184 305.728 247.131 305.74 241.369C305.74 239.925 305.626 238.444 305.399 236.949C304.666 232.112 302.782 227.072 300.139 222.551C297.004 217.194 292.807 212.546 288.192 209.785L208.833 257.655C213.447 260.428 217.657 265.063 220.78 270.42C223.422 274.941 225.306 279.969 226.04 284.819C226.267 286.313 226.381 287.795 226.381 289.239C226.368 295.001 224.409 299.053 221.248 300.965Z" fill="#FFFEFB" stroke="url(#paint33_linear_0_1102)" stroke-width="1.87" stroke-linecap="round" stroke-linejoin="round"/>
<path d="M316.019 338.729L395.378 290.86C396.086 287.2 397.78 284.553 400.157 283.122L320.798 330.992C318.421 332.423 316.727 335.057 316.019 338.729Z" fill="#5A7788"/>
<path d="M321.354 330.688L400.714 282.818L300.139 222.551L220.78 270.42L321.354 330.688Z" fill="url(#paint34_linear_0_1102)"/>
<path d="M316.019 338.729C316.777 334.778 318.686 332.03 321.354 330.688L220.78 270.42C223.422 274.941 225.306 279.969 226.039 284.819L316.019 338.742V338.729Z" fill="#FFFEFB" stroke="url(#paint35_linear_0_1102)" stroke-width="1.87" stroke-linecap="round" stroke-linejoin="round"/>
<path d="M333.352 332.271L412.712 284.401C408.097 281.628 403.874 281.235 400.726 282.818C400.536 282.919 400.347 283.021 400.17 283.122L320.81 330.992C320.987 330.878 321.177 330.776 321.367 330.688C324.527 329.105 328.738 329.497 333.352 332.271Z" fill="#23404D"/>
<path d="M345.768 375.581L425.127 327.712C428.288 325.799 430.247 321.747 430.26 315.985C430.26 314.541 430.146 313.06 429.919 311.565C429.185 306.728 427.301 301.687 424.659 297.166C421.524 291.81 417.326 287.162 412.712 284.401L333.352 332.271C337.967 335.044 342.177 339.679 345.3 345.036C347.942 349.557 349.826 354.584 350.559 359.435C350.787 360.929 350.901 362.411 350.901 363.854C350.888 369.616 348.928 373.669 345.768 375.581Z" fill="#FFFEFB" stroke="url(#paint36_linear_0_1102)" stroke-width="1.87" stroke-linecap="round" stroke-linejoin="round"/>
<path d="M376.781 366.729C376.781 365.171 375.756 363.285 374.442 362.499L345.3 345.036C347.942 349.557 349.826 354.584 350.559 359.435L374.404 373.72C375.719 374.505 376.755 373.859 376.755 372.327V366.729H376.781Z" fill="#FFFEFB" stroke="url(#paint37_linear_0_1102)" stroke-width="1.87" stroke-linecap="round" stroke-linejoin="round"/>
<path d="M424.659 297.166L453.801 314.63C455.116 315.415 456.14 317.302 456.14 318.86V324.457C456.127 325.23 455.862 325.761 455.445 326.027L376.085 373.897C376.502 373.644 376.768 373.099 376.768 372.327V366.729C376.781 365.159 375.756 363.285 374.442 362.499L345.3 345.036L424.659 297.166Z" fill="#FFFEFB" stroke="url(#paint38_linear_0_1102)" stroke-width="1.87" stroke-linecap="round" stroke-linejoin="round"/>
<path d="M175.569 155.077L296.941 228.287C299.52 229.845 303.717 229.858 306.322 228.3L395.593 174.808C396.895 174.023 397.54 173.009 397.54 171.984L397.78 261.644C397.78 262.67 397.136 263.683 395.833 264.468L306.562 317.96C303.958 319.518 299.773 319.505 297.181 317.948L175.809 244.738C174.532 243.965 173.888 242.952 173.888 241.939L173.647 152.279C173.647 153.292 174.292 154.305 175.569 155.077Z" fill="#FFFEFB" stroke="url(#paint39_linear_0_1102)" stroke-width="1.87" stroke-linecap="round" stroke-linejoin="round"/>
<path d="M175.607 149.455C173.003 151.012 173.015 153.532 175.582 155.077L296.953 228.287C299.532 229.845 303.73 229.858 306.334 228.3L395.606 174.808C398.21 173.25 398.198 170.73 395.606 169.172L274.234 95.9496C271.668 94.4046 267.483 94.392 264.878 95.9496L175.607 149.442V149.455Z" fill="#FFFEFB" stroke="url(#paint40_linear_0_1102)" stroke-width="1.87" stroke-linecap="round" stroke-linejoin="round"/>
<path d="M259.214 269.534L285.069 285.034C287.648 286.579 289.76 290.34 289.747 293.443V299.041C289.722 302.143 287.598 303.372 285.018 301.827L259.164 286.326C256.585 284.781 254.473 281.02 254.486 277.917V272.32C254.511 269.217 256.635 267.989 259.214 269.534Z" fill="url(#paint41_linear_0_1102)"/>
<path d="M259.265 252.716L285.12 268.217C287.699 269.762 289.81 273.523 289.798 276.626C289.798 279.728 287.674 280.957 285.094 279.412L259.24 263.911C256.661 262.366 254.549 258.605 254.562 255.502C254.562 252.399 256.686 251.171 259.265 252.716Z" fill="url(#paint42_linear_0_1102)"/>
<path d="M196.847 247.309C198.794 248.474 200.387 247.536 200.387 245.219L200.425 231.225C200.425 228.908 198.845 226.058 196.91 224.893L185.178 217.865C183.231 216.7 181.638 217.637 181.638 219.954L181.6 233.948C181.6 236.266 183.18 239.115 185.114 240.28L196.847 247.309ZM185.178 215.054L196.91 222.082C200.147 224.02 202.777 228.756 202.764 232.618L202.726 246.612C202.726 250.474 200.058 252.045 196.834 250.095L185.102 243.066C181.865 241.129 179.235 236.392 179.248 232.53L179.286 218.536C179.286 214.674 181.954 213.103 185.178 215.054Z" fill="url(#paint43_linear_0_1102)"/>
<path d="M187.883 225.096L194.167 228.857V232.593C194.154 234.328 193.13 235.189 191.803 234.797V236.81L194.141 238.216V240.077L191.79 238.672L190.21 237.722L187.858 236.316V234.455L190.21 235.86V233.847C188.882 232.644 187.871 230.58 187.883 228.832V225.096Z" fill="url(#paint44_linear_0_1102)"/>
<path d="M313.174 239.71L392.534 191.841C392.534 191.841 392.534 191.841 392.546 191.841C392.584 191.815 392.963 191.651 393.393 191.701C393.823 191.752 394.089 191.942 394.202 192.018L314.843 239.888C314.527 239.698 313.92 239.558 313.92 239.558C313.642 239.533 313.389 239.584 313.174 239.723V239.71Z" fill="#93A2D4"/>
<path d="M371.003 360.511L450.349 312.642L450.463 274.042L371.104 321.912L371.003 360.511Z" fill="#FFFEFB" stroke="url(#paint45_linear_0_1102)" stroke-width="1.87" stroke-linecap="round" stroke-linejoin="round"/>
<path d="M371.104 321.912L450.463 274.042L418.553 206.607L339.206 254.464L371.104 321.912Z" fill="#FFFEFB" stroke="url(#paint46_linear_0_1102)" stroke-width="1.87" stroke-linecap="round" stroke-linejoin="round"/>
<path d="M339.206 254.464L418.553 206.607L394.202 192.005L314.843 239.875L339.206 254.464Z" fill="#FFFEFB" stroke="url(#paint47_linear_0_1102)" stroke-width="1.87" stroke-linecap="round" stroke-linejoin="round"/>
<path d="M314.843 239.875C313.553 239.102 312.491 239.736 312.491 241.268L312.264 325.318L371.003 360.511L371.104 321.899L339.206 254.464L314.843 239.862V239.875Z" fill="#FFFEFB" stroke="url(#paint48_linear_0_1102)" stroke-width="1.87" stroke-linecap="round" stroke-linejoin="round"/>
<path d="M215.571 179.303L314.249 120.163L344.579 138.462L245.901 197.59L215.571 179.303Z" fill="#FFFEFB" stroke="url(#paint49_linear_0_1102)" stroke-width="1.87" stroke-linecap="round" stroke-linejoin="round"/>
<path d="M215.521 179.278L246.078 197.59L245.977 234.024C245.977 235.556 244.915 236.19 243.626 235.417L217.784 219.929C216.469 219.144 215.419 217.244 215.419 215.712L215.521 179.278Z" fill="#FFFEFB" stroke="url(#paint50_linear_0_1102)" stroke-width="1.87" stroke-linecap="round" stroke-linejoin="round"/>
<path d="M333.352 332.271C328.738 329.497 324.515 329.105 321.367 330.688C318.699 332.03 316.79 334.791 316.032 338.729C315.791 339.945 315.665 341.287 315.665 342.731C315.627 354.331 323.516 368.477 333.238 374.302C342.961 380.128 350.875 375.455 350.913 363.854C350.913 362.411 350.799 360.929 350.572 359.435C349.839 354.597 347.955 349.557 345.312 345.036C342.177 339.679 337.98 335.031 333.365 332.271H333.352Z" fill="#FFFEFB" stroke="url(#paint51_linear_0_1102)" stroke-width="1.87" stroke-linecap="round" stroke-linejoin="round"/>
<path d="M208.832 257.655C204.218 254.882 200.008 254.489 196.847 256.085C194.192 257.427 192.283 260.188 191.524 264.139C191.284 265.355 191.158 266.697 191.158 268.141C191.12 279.741 198.984 293.874 208.719 299.699C218.441 305.525 226.356 300.852 226.393 289.251C226.393 287.808 226.28 286.326 226.052 284.832C225.319 279.994 223.435 274.954 220.793 270.433C217.657 265.076 213.46 260.428 208.845 257.668L208.832 257.655Z" fill="#FFFEFB" stroke="url(#paint52_linear_0_1102)" stroke-width="1.87" stroke-linecap="round" stroke-linejoin="round"/>
<path d="M375.845 310.375L439.338 272.079L413.812 218.131L350.332 256.427L375.845 310.375Z" fill="#FFFEFB" stroke="url(#paint53_linear_0_1102)" stroke-width="1.87" stroke-linecap="round" stroke-linejoin="round"/>
<path d="M320.216 251.906C319.18 251.285 318.333 251.792 318.333 253.02L318.143 291.417L365.136 319.581L365.225 317.53L339.699 263.582L320.216 251.906Z" fill="#FFFEFB" stroke="url(#paint54_linear_0_1102)" stroke-width="1.87" stroke-linecap="round" stroke-linejoin="round"/>
<path d="M208.807 268.166C206.494 266.786 204.395 266.583 202.815 267.381C201.487 268.052 200.526 269.432 200.147 271.408C200.033 272.016 199.97 272.687 199.97 273.409C199.957 279.209 203.889 286.275 208.744 289.188C213.612 292.101 217.569 289.758 217.581 283.958C217.581 283.236 217.518 282.501 217.404 281.742C217.038 279.323 216.09 276.803 214.775 274.549C213.207 271.864 211.108 269.546 208.795 268.166H208.807Z" fill="url(#paint55_linear_0_1102)"/>
<path d="M333.314 342.782C331.001 341.401 328.902 341.199 327.322 341.997C325.994 342.668 325.033 344.048 324.654 346.024C324.54 346.632 324.477 347.303 324.477 348.025C324.464 353.825 328.396 360.891 333.264 363.816C338.131 366.729 342.088 364.386 342.101 358.586C342.101 357.864 342.038 357.13 341.924 356.37C341.557 353.951 340.609 351.431 339.294 349.177C337.727 346.492 335.628 344.175 333.314 342.794V342.782Z" fill="url(#paint56_linear_0_1102)"/>
<path d="M431.36 307.361L440.766 301.725C442.056 300.953 443.118 301.586 443.118 303.118V305.942C443.118 307.475 442.081 309.374 440.791 310.147L431.385 315.782C430.096 316.555 429.034 315.922 429.034 314.389V311.565C429.034 310.033 430.07 308.133 431.36 307.361Z" fill="url(#paint57_linear_0_1102)"/>
<path d="M381.699 336.032L391.092 330.409C392.382 329.637 393.444 330.27 393.444 331.802V334.626C393.444 336.159 392.407 338.058 391.118 338.831L381.724 344.453C380.409 345.239 379.372 344.593 379.372 343.06V340.236C379.372 338.704 380.396 336.817 381.699 336.032Z" fill="url(#paint58_linear_0_1102)"/>
<path d="M422.168 319.493V317.125L400.296 330.232V332.6L422.168 319.493ZM422.156 314.756V312.388L400.284 325.495V327.864L422.156 314.756ZM400.284 323.115L422.143 310.007C423.243 309.349 424.128 309.906 424.141 311.185L424.166 318.302C424.166 319.619 423.281 321.202 422.181 321.861L400.322 334.968C399.222 335.627 398.337 335.095 398.324 333.79L398.299 326.673C398.299 325.381 399.184 323.773 400.284 323.115Z" fill="url(#paint59_linear_0_1102)"/>
</g>
<g clip-path="url(#clip2_0_1102)">
<path d="M13.2852 157.569L55.4022 132.191C55.7779 130.244 56.677 128.841 57.9385 128.082L15.8215 153.46C14.56 154.219 13.6609 155.622 13.2852 157.569Z" fill="#5A7788"/>
<path d="M43.1167 119.321C43.3449 119.18 43.6602 119.2 44.0091 119.415L58.2271 127.928L16.11 153.306L1.89211 144.793C1.5432 144.585 1.22785 144.565 0.999722 144.699L43.1167 119.321Z" fill="url(#paint60_linear_0_1102)" stroke="url(#paint61_linear_0_1102)" stroke-width="1.87" stroke-linecap="round" stroke-linejoin="round"/>
<path d="M22.4709 154.138L64.5879 128.76C62.1388 127.29 59.9045 127.082 58.2271 127.928C58.1264 127.975 58.0325 128.029 57.9386 128.089L15.8215 153.467C15.9155 153.413 16.0094 153.36 16.1101 153.306C17.7808 152.46 20.0151 152.675 22.4709 154.138Z" fill="#23404D"/>
<path d="M1.89877 144.793C1.20096 144.377 0.637337 144.712 0.637337 145.538V148.506C0.623918 149.318 1.18754 150.325 1.87864 150.741L13.2852 157.569C13.6878 155.474 14.7009 154.011 16.11 153.299L1.89205 144.786L1.89877 144.793Z" fill="#FFFEFB" stroke="url(#paint62_linear_0_1102)" stroke-width="1.87" stroke-linecap="round" stroke-linejoin="round"/>
<path d="M29.0598 177.1L71.1769 151.721C72.8543 150.708 73.8943 148.559 73.901 145.505C73.901 144.739 73.8406 143.954 73.7198 143.161C73.3307 140.597 72.3309 137.925 70.9286 135.528C69.2646 132.688 67.0369 130.224 64.5879 128.76L22.4709 154.138C24.9199 155.609 27.1543 158.066 28.8116 160.906C30.2139 163.303 31.2137 165.968 31.6028 168.54C31.7236 169.332 31.784 170.117 31.784 170.883C31.7773 173.937 30.7373 176.086 29.0598 177.1Z" fill="#FFFEFB" stroke="url(#paint63_linear_0_1102)" stroke-width="1.87" stroke-linecap="round" stroke-linejoin="round"/>
<path d="M79.356 197.12L121.473 171.742C121.849 169.802 122.748 168.399 124.009 167.64L81.8923 193.018C80.6308 193.777 79.7317 195.173 79.356 197.12Z" fill="#5A7788"/>
<path d="M82.1876 192.857L124.305 167.479L70.9286 135.528L28.8116 160.906L82.1876 192.857Z" fill="url(#paint64_linear_0_1102)"/>
<path d="M79.356 197.12C79.7586 195.025 80.7717 193.569 82.1875 192.857L28.8116 160.906C30.2139 163.303 31.2136 165.968 31.6028 168.54L79.356 197.127V197.12Z" fill="#FFFEFB" stroke="url(#paint65_linear_0_1102)" stroke-width="1.87" stroke-linecap="round" stroke-linejoin="round"/>
<path d="M88.555 193.696L130.672 168.318C128.223 166.848 125.982 166.64 124.311 167.479C124.211 167.532 124.11 167.586 124.016 167.64L81.8989 193.018C81.9929 192.958 82.0935 192.904 82.1942 192.857C83.8716 192.018 86.1059 192.226 88.555 193.696Z" fill="#23404D"/>
<path d="M95.1439 216.657L137.261 191.279C138.938 190.265 139.978 188.117 139.985 185.062C139.985 184.297 139.925 183.511 139.804 182.719C139.415 180.154 138.415 177.482 137.013 175.085C135.349 172.246 133.121 169.782 130.672 168.318L88.555 193.696C91.004 195.166 93.2384 197.624 94.8957 200.464C96.298 202.86 97.2978 205.526 97.6869 208.097C97.8077 208.889 97.8681 209.675 97.8681 210.44C97.8614 213.495 96.8214 215.643 95.1439 216.657Z" fill="#FFFEFB" stroke="url(#paint66_linear_0_1102)" stroke-width="1.87" stroke-linecap="round" stroke-linejoin="round"/>
<path d="M111.603 211.964C111.603 211.138 111.06 210.138 110.362 209.722L94.8958 200.464C96.2981 202.86 97.2979 205.526 97.687 208.097L110.342 215.67C111.039 216.086 111.59 215.744 111.59 214.932V211.964H111.603Z" fill="#FFFEFB" stroke="url(#paint67_linear_0_1102)" stroke-width="1.87" stroke-linecap="round" stroke-linejoin="round"/>
<path d="M137.013 175.085L152.479 184.344C153.176 184.76 153.72 185.76 153.72 186.586V189.554C153.713 189.963 153.572 190.245 153.351 190.386L111.234 215.764C111.455 215.63 111.596 215.341 111.596 214.932V211.964C111.603 211.132 111.059 210.138 110.362 209.722L94.8957 200.464L137.013 175.085Z" fill="#FFFEFB" stroke="url(#paint68_linear_0_1102)" stroke-width="1.87" stroke-linecap="round" stroke-linejoin="round"/>
<path d="M4.81749 99.7569L69.231 138.569C70.5997 139.395 72.8274 139.402 74.2096 138.576L121.587 110.217C122.278 109.801 122.62 109.264 122.62 108.72L122.748 156.253C122.748 156.797 122.406 157.334 121.715 157.751L74.3371 186.11C72.9549 186.935 70.7339 186.929 69.3584 186.103L4.94498 147.29C4.26729 146.881 3.9251 146.344 3.9251 145.807L3.79762 98.2732C3.79762 98.8103 4.1398 99.3474 4.81749 99.7569Z" fill="#FFFEFB" stroke="url(#paint69_linear_0_1102)" stroke-width="1.87" stroke-linecap="round" stroke-linejoin="round"/>
<path d="M4.83769 96.776C3.45549 97.6018 3.4622 98.9378 4.82428 99.7569L69.2377 138.569C70.6065 139.395 72.8341 139.402 74.2164 138.576L121.594 110.217C122.976 109.391 122.969 108.055 121.594 107.229L57.1803 68.4103C55.8183 67.5912 53.5973 67.5845 52.2151 68.4103L4.83769 96.7693V96.776Z" fill="#FFFEFB" stroke="url(#paint70_linear_0_1102)" stroke-width="1.87" stroke-linecap="round" stroke-linejoin="round"/>
<path d="M49.2092 160.436L62.9306 168.654C64.2994 169.473 65.4199 171.467 65.4132 173.112V176.079C65.3998 177.724 64.2725 178.375 62.9037 177.556L49.1823 169.338C47.8135 168.519 46.693 166.525 46.6997 164.88V161.913C46.7131 160.268 47.8404 159.617 49.2092 160.436Z" fill="url(#paint71_linear_0_1102)"/>
<path d="M49.236 151.52L62.9574 159.738C64.3262 160.557 65.4467 162.551 65.44 164.196C65.44 165.841 64.3128 166.492 62.944 165.673L49.2226 157.455C47.8538 156.636 46.7333 154.642 46.74 152.997C46.74 151.352 47.8672 150.701 49.236 151.52Z" fill="url(#paint72_linear_0_1102)"/>
<path d="M16.1101 148.653C17.1434 149.271 17.9888 148.774 17.9888 147.545L18.0089 140.127C18.0089 138.898 17.1702 137.388 16.1436 136.77L9.91698 133.044C8.88368 132.426 8.03825 132.923 8.03825 134.152L8.01812 141.57C8.01812 142.799 8.85684 144.309 9.88342 144.927L16.1101 148.653ZM9.91698 131.553L16.1436 135.279C17.8613 136.307 19.2569 138.818 19.2502 140.865L19.2301 148.284C19.2301 150.332 17.8143 151.164 16.1034 150.13L9.87672 146.404C8.15903 145.377 6.7634 142.866 6.77011 140.818L6.79024 133.4C6.79024 131.352 8.20599 130.519 9.91698 131.553Z" fill="url(#paint73_linear_0_1102)"/>
<path d="M11.3528 136.877L14.6875 138.871V140.852C14.6808 141.772 14.1373 142.228 13.4328 142.02V143.088L14.6741 143.833V144.82L13.4261 144.074L12.5873 143.571L11.3393 142.826V141.839L12.5873 142.584V141.517C11.8828 140.879 11.3461 139.784 11.3528 138.858V136.877Z" fill="url(#paint74_linear_0_1102)"/>
<path d="M77.8463 144.625L119.963 119.247C119.963 119.247 119.963 119.247 119.97 119.247C119.99 119.233 120.191 119.146 120.42 119.173C120.648 119.2 120.789 119.301 120.849 119.341L78.732 144.719C78.5642 144.618 78.2422 144.544 78.2422 144.544C78.0946 144.531 77.9604 144.558 77.8463 144.632V144.625Z" fill="#93A2D4"/>
<path d="M108.537 208.668L150.647 183.29L150.707 162.826L108.59 188.204L108.537 208.668Z" fill="#FFFEFB" stroke="url(#paint75_linear_0_1102)" stroke-width="1.87" stroke-linecap="round" stroke-linejoin="round"/>
<path d="M108.59 188.204L150.707 162.826L133.772 127.075L91.6616 152.447L108.59 188.204Z" fill="#FFFEFB" stroke="url(#paint76_linear_0_1102)" stroke-width="1.87" stroke-linecap="round" stroke-linejoin="round"/>
<path d="M91.6617 152.447L133.772 127.075L120.849 119.334L78.732 144.712L91.6617 152.447Z" fill="#FFFEFB" stroke="url(#paint77_linear_0_1102)" stroke-width="1.87" stroke-linecap="round" stroke-linejoin="round"/>
<path d="M78.732 144.712C78.0476 144.303 77.484 144.638 77.484 145.451L77.3632 190.01L108.537 208.668L108.59 188.197L91.6617 152.447L78.732 144.706V144.712Z" fill="#FFFEFB" stroke="url(#paint78_linear_0_1102)" stroke-width="1.87" stroke-linecap="round" stroke-linejoin="round"/>
<path d="M26.0472 112.6L78.4166 81.2469L94.5133 90.9484L42.1438 122.295L26.0472 112.6Z" fill="#FFFEFB" stroke="url(#paint79_linear_0_1102)" stroke-width="1.87" stroke-linecap="round" stroke-linejoin="round"/>
<path d="M26.0204 112.587L42.2378 122.295L42.1841 141.611C42.1841 142.423 41.6205 142.759 40.9361 142.349L27.2214 134.138C26.5236 133.722 25.9667 132.715 25.9667 131.902L26.0204 112.587Z" fill="#FFFEFB" stroke="url(#paint80_linear_0_1102)" stroke-width="1.87" stroke-linecap="round" stroke-linejoin="round"/>
<path d="M88.5551 193.696C86.106 192.226 83.865 192.018 82.1942 192.857C80.7785 193.568 79.7653 195.032 79.3627 197.12C79.2352 197.765 79.1681 198.476 79.1681 199.242C79.148 205.391 83.3349 212.891 88.4947 215.979C93.6545 219.067 97.8547 216.59 97.8749 210.44C97.8749 209.675 97.8145 208.889 97.6937 208.097C97.3046 205.532 96.3048 202.86 94.9025 200.463C93.2385 197.624 91.0108 195.16 88.5618 193.696H88.5551Z" fill="#FFFEFB" stroke="url(#paint81_linear_0_1102)" stroke-width="1.87" stroke-linecap="round" stroke-linejoin="round"/>
<path d="M22.4708 154.138C20.0218 152.668 17.7874 152.46 16.11 153.306C14.7009 154.018 13.6878 155.481 13.2852 157.576C13.1577 158.22 13.0906 158.932 13.0906 159.697C13.0705 165.847 17.2439 173.34 22.4104 176.428C27.5702 179.517 31.7705 177.039 31.7906 170.889C31.7906 170.124 31.7303 169.338 31.6095 168.546C31.2203 165.982 30.2206 163.309 28.8182 160.913C27.1542 158.073 24.9266 155.609 22.4775 154.145L22.4708 154.138Z" fill="#FFFEFB" stroke="url(#paint82_linear_0_1102)" stroke-width="1.87" stroke-linecap="round" stroke-linejoin="round"/>
<path d="M111.106 182.088L144.803 161.785L131.256 133.185L97.5662 153.487L111.106 182.088Z" fill="#FFFEFB" stroke="url(#paint83_linear_0_1102)" stroke-width="1.87" stroke-linecap="round" stroke-linejoin="round"/>
<path d="M81.5837 151.09C81.0335 150.761 80.5839 151.03 80.5839 151.681L80.4833 172.037L105.423 186.969L105.47 185.881L91.9234 157.281L81.5837 151.09Z" fill="#FFFEFB" stroke="url(#paint84_linear_0_1102)" stroke-width="1.87" stroke-linecap="round" stroke-linejoin="round"/>
<path d="M22.4575 159.711C21.2296 158.979 20.1158 158.872 19.277 159.295C18.5725 159.651 18.0626 160.382 17.8613 161.43C17.8009 161.752 17.7673 162.108 17.7673 162.49C17.7606 165.565 19.8474 169.312 22.4239 170.856C25.0072 172.4 27.1073 171.158 27.114 168.083C27.114 167.7 27.0805 167.311 27.0201 166.908C26.8255 165.626 26.3223 164.29 25.6245 163.095C24.7924 161.671 23.6786 160.443 22.4507 159.711H22.4575Z" fill="url(#paint85_linear_0_1102)"/>
<path d="M88.5349 199.268C87.307 198.537 86.1932 198.429 85.3544 198.852C84.6499 199.208 84.14 199.94 83.9387 200.987C83.8783 201.309 83.8447 201.665 83.8447 202.048C83.838 205.123 85.9248 208.869 88.508 210.42C91.0913 211.964 93.1914 210.722 93.1981 207.647C93.1981 207.265 93.1646 206.875 93.1042 206.472C92.9096 205.19 92.4064 203.854 91.7086 202.659C90.8766 201.236 89.7627 200.007 88.5349 199.275V199.268Z" fill="url(#paint86_linear_0_1102)"/>
<path d="M140.569 180.49L145.561 177.502C146.245 177.093 146.809 177.428 146.809 178.241V179.738C146.809 180.55 146.259 181.557 145.574 181.967L140.582 184.955C139.898 185.364 139.334 185.028 139.334 184.216V182.719C139.334 181.907 139.885 180.9 140.569 180.49Z" fill="url(#paint87_linear_0_1102)"/>
<path d="M114.213 195.69L119.198 192.709C119.883 192.3 120.446 192.635 120.446 193.448V194.945C120.446 195.757 119.896 196.764 119.212 197.174L114.226 200.155C113.529 200.571 112.978 200.229 112.978 199.416V197.919C112.978 197.107 113.522 196.106 114.213 195.69Z" fill="url(#paint88_linear_0_1102)"/>
<path d="M135.691 186.922V185.666L124.083 192.615V193.871L135.691 186.922ZM135.684 184.411V183.155L124.076 190.104V191.36L135.684 184.411ZM124.076 188.842L135.678 181.893C136.261 181.544 136.731 181.84 136.738 182.518L136.751 186.291C136.751 186.989 136.281 187.828 135.698 188.177L124.097 195.126C123.513 195.475 123.043 195.193 123.036 194.502L123.023 190.729C123.023 190.044 123.493 189.191 124.076 188.842Z" fill="url(#paint89_linear_0_1102)"/>
</g>
<defs>
<linearGradient id="paint0_linear_0_1102" x1="254.015" y1="69.0982" x2="196.788" y2="69.0982" gradientUnits="userSpaceOnUse">
<stop stop-color="#FCB414"/>
<stop offset="1" stop-color="#FDD240"/>
</linearGradient>
<linearGradient id="paint1_linear_0_1102" x1="254.646" y1="1.48172e-05" x2="196.164" y2="1.48172e-05" gradientUnits="userSpaceOnUse">
<stop stop-color="#FCB414"/>
<stop offset="1" stop-color="#FDD240"/>
</linearGradient>
<linearGradient id="paint2_linear_0_1102" x1="212.529" y1="83.9221" x2="195.788" y2="83.9221" gradientUnits="userSpaceOnUse">
<stop stop-color="#FCB414"/>
<stop offset="1" stop-color="#FDD240"/>
</linearGradient>
<linearGradient id="paint3_linear_0_1102" x1="270.32" y1="85.7618" x2="217.635" y2="85.7618" gradientUnits="userSpaceOnUse">
<stop stop-color="#FCB414"/>
<stop offset="1" stop-color="#FDD240"/>
</linearGradient>
<linearGradient id="paint4_linear_0_1102" x1="320.093" y1="97.0274" x2="224.6" y2="97.0274" gradientUnits="userSpaceOnUse">
<stop stop-color="#FDD240"/>
<stop offset="1" stop-color="#FCB414"/>
</linearGradient>
<linearGradient id="paint5_linear_0_1102" x1="278.607" y1="111.845" x2="223.976" y2="111.845" gradientUnits="userSpaceOnUse">
<stop stop-color="#FCB414"/>
<stop offset="1" stop-color="#FDD240"/>
</linearGradient>
<linearGradient id="paint6_linear_0_1102" x1="336.404" y1="125.319" x2="283.713" y2="125.319" gradientUnits="userSpaceOnUse">
<stop stop-color="#FCB414"/>
<stop offset="1" stop-color="#FDD240"/>
</linearGradient>
<linearGradient id="paint7_linear_0_1102" x1="308.015" y1="140.989" x2="290.06" y2="140.989" gradientUnits="userSpaceOnUse">
<stop stop-color="#FCB414"/>
<stop offset="1" stop-color="#FDD240"/>
</linearGradient>
<linearGradient id="paint8_linear_0_1102" x1="350.132" y1="128.253" x2="290.06" y2="128.253" gradientUnits="userSpaceOnUse">
<stop stop-color="#FCB414"/>
<stop offset="1" stop-color="#FDD240"/>
</linearGradient>
<linearGradient id="paint9_linear_0_1102" x1="319.167" y1="75.3286" x2="198.962" y2="75.3286" gradientUnits="userSpaceOnUse">
<stop stop-color="#FCB414"/>
<stop offset="1" stop-color="#FDD240"/>
</linearGradient>
<linearGradient id="paint10_linear_0_1102" x1="319.039" y1="36.3283" x2="198.962" y2="36.3283" gradientUnits="userSpaceOnUse">
<stop stop-color="#FCB414"/>
<stop offset="1" stop-color="#FDD240"/>
</linearGradient>
<linearGradient id="paint11_linear_0_1102" x1="261.208" y1="101.828" x2="242.495" y2="101.828" gradientUnits="userSpaceOnUse">
<stop stop-color="#FDD240"/>
<stop offset="1" stop-color="#FCB414"/>
</linearGradient>
<linearGradient id="paint12_linear_0_1102" x1="261.228" y1="91.4281" x2="242.522" y2="91.4281" gradientUnits="userSpaceOnUse">
<stop stop-color="#FDD240"/>
<stop offset="1" stop-color="#FCB414"/>
</linearGradient>
<linearGradient id="paint13_linear_0_1102" x1="215.045" y1="73.6836" x2="202.558" y2="73.6836" gradientUnits="userSpaceOnUse">
<stop stop-color="#FDD240"/>
<stop offset="1" stop-color="#FCB414"/>
</linearGradient>
<linearGradient id="paint14_linear_0_1102" x1="210.476" y1="73.6837" x2="207.128" y2="73.6837" gradientUnits="userSpaceOnUse">
<stop stop-color="#FDD240"/>
<stop offset="1" stop-color="#FCB414"/>
</linearGradient>
<linearGradient id="paint15_linear_0_1102" x1="347.12" y1="118.579" x2="303.694" y2="118.579" gradientUnits="userSpaceOnUse">
<stop stop-color="#FCB414"/>
<stop offset="1" stop-color="#FDD240"/>
</linearGradient>
<linearGradient id="paint16_linear_0_1102" x1="347.12" y1="90.4681" x2="286.819" y2="90.4681" gradientUnits="userSpaceOnUse">
<stop stop-color="#FCB414"/>
<stop offset="1" stop-color="#FDD240"/>
</linearGradient>
<linearGradient id="paint17_linear_0_1102" x1="330.191" y1="68.7222" x2="273.896" y2="68.7222" gradientUnits="userSpaceOnUse">
<stop stop-color="#FCB414"/>
<stop offset="1" stop-color="#FDD240"/>
</linearGradient>
<linearGradient id="paint18_linear_0_1102" x1="305.003" y1="109.435" x2="272.521" y2="109.435" gradientUnits="userSpaceOnUse">
<stop stop-color="#FCB414"/>
<stop offset="1" stop-color="#FDD240"/>
</linearGradient>
<linearGradient id="paint19_linear_0_1102" x1="290.932" y1="34.6027" x2="221.211" y2="34.6027" gradientUnits="userSpaceOnUse">
<stop stop-color="#FCB414"/>
<stop offset="1" stop-color="#FDD240"/>
</linearGradient>
<linearGradient id="paint20_linear_0_1102" x1="238.65" y1="60.3904" x2="221.131" y2="60.3904" gradientUnits="userSpaceOnUse">
<stop stop-color="#FCB414"/>
<stop offset="1" stop-color="#FDD240"/>
</linearGradient>
<linearGradient id="paint21_linear_0_1102" x1="294.287" y1="137.666" x2="274.326" y2="137.666" gradientUnits="userSpaceOnUse">
<stop stop-color="#FCB414"/>
<stop offset="1" stop-color="#FDD240"/>
</linearGradient>
<linearGradient id="paint22_linear_0_1102" x1="228.203" y1="98.1084" x2="208.255" y2="98.1084" gradientUnits="userSpaceOnUse">
<stop stop-color="#FCB414"/>
<stop offset="1" stop-color="#FDD240"/>
</linearGradient>
<linearGradient id="paint23_linear_0_1102" x1="341.215" y1="90.4682" x2="292.724" y2="90.4682" gradientUnits="userSpaceOnUse">
<stop stop-color="#FCB414"/>
<stop offset="1" stop-color="#FDD240"/>
</linearGradient>
<linearGradient id="paint24_linear_0_1102" x1="301.883" y1="101.788" x2="275.648" y2="101.788" gradientUnits="userSpaceOnUse">
<stop stop-color="#FCB414"/>
<stop offset="1" stop-color="#FDD240"/>
</linearGradient>
<linearGradient id="paint25_linear_0_1102" x1="222.902" y1="98.1084" x2="213.556" y2="98.1084" gradientUnits="userSpaceOnUse">
<stop stop-color="#FDD240"/>
<stop offset="1" stop-color="#FCB414"/>
</linearGradient>
<linearGradient id="paint26_linear_0_1102" x1="288.98" y1="137.666" x2="279.626" y2="137.666" gradientUnits="userSpaceOnUse">
<stop stop-color="#FDD240"/>
<stop offset="1" stop-color="#FCB414"/>
</linearGradient>
<linearGradient id="paint27_linear_0_1102" x1="342.604" y1="114.054" x2="335.116" y2="114.054" gradientUnits="userSpaceOnUse">
<stop stop-color="#FDD240"/>
<stop offset="1" stop-color="#FCB414"/>
</linearGradient>
<linearGradient id="paint28_linear_0_1102" x1="316.235" y1="129.26" x2="308.76" y2="129.26" gradientUnits="userSpaceOnUse">
<stop stop-color="#FDD240"/>
<stop offset="1" stop-color="#FCB414"/>
</linearGradient>
<linearGradient id="paint29_linear_0_1102" x1="332.533" y1="121.338" x2="318.811" y2="121.338" gradientUnits="userSpaceOnUse">
<stop stop-color="#FDD240"/>
<stop offset="1" stop-color="#FCB414"/>
</linearGradient>
<linearGradient id="paint30_linear_0_1102" x1="276.206" y1="223.944" x2="168.375" y2="223.944" gradientUnits="userSpaceOnUse">
<stop stop-color="#FCB414"/>
<stop offset="1" stop-color="#FDD240"/>
</linearGradient>
<linearGradient id="paint31_linear_0_1102" x1="277.395" y1="93.6068" x2="167.2" y2="93.6068" gradientUnits="userSpaceOnUse">
<stop stop-color="#FCB414"/>
<stop offset="1" stop-color="#FDD240"/>
</linearGradient>
<linearGradient id="paint32_linear_0_1102" x1="198.035" y1="251.906" x2="166.491" y2="251.906" gradientUnits="userSpaceOnUse">
<stop stop-color="#FCB414"/>
<stop offset="1" stop-color="#FDD240"/>
</linearGradient>
<linearGradient id="paint33_linear_0_1102" x1="306.929" y1="255.375" x2="207.657" y2="255.375" gradientUnits="userSpaceOnUse">
<stop stop-color="#FCB414"/>
<stop offset="1" stop-color="#FDD240"/>
</linearGradient>
<linearGradient id="paint34_linear_0_1102" x1="400.714" y1="276.626" x2="220.78" y2="276.626" gradientUnits="userSpaceOnUse">
<stop stop-color="#FDD240"/>
<stop offset="1" stop-color="#FCB414"/>
</linearGradient>
<linearGradient id="paint35_linear_0_1102" x1="322.543" y1="304.575" x2="219.604" y2="304.575" gradientUnits="userSpaceOnUse">
<stop stop-color="#FCB414"/>
<stop offset="1" stop-color="#FDD240"/>
</linearGradient>
<linearGradient id="paint36_linear_0_1102" x1="431.448" y1="329.991" x2="332.164" y2="329.991" gradientUnits="userSpaceOnUse">
<stop stop-color="#FCB414"/>
<stop offset="1" stop-color="#FDD240"/>
</linearGradient>
<linearGradient id="paint37_linear_0_1102" x1="377.956" y1="359.549" x2="344.124" y2="359.549" gradientUnits="userSpaceOnUse">
<stop stop-color="#FCB414"/>
<stop offset="1" stop-color="#FDD240"/>
</linearGradient>
<linearGradient id="paint38_linear_0_1102" x1="457.316" y1="335.525" x2="344.124" y2="335.525" gradientUnits="userSpaceOnUse">
<stop stop-color="#FCB414"/>
<stop offset="1" stop-color="#FDD240"/>
</linearGradient>
<linearGradient id="paint39_linear_0_1102" x1="398.969" y1="235.696" x2="172.472" y2="235.696" gradientUnits="userSpaceOnUse">
<stop stop-color="#FCB414"/>
<stop offset="1" stop-color="#FDD240"/>
</linearGradient>
<linearGradient id="paint40_linear_0_1102" x1="398.729" y1="162.131" x2="172.472" y2="162.131" gradientUnits="userSpaceOnUse">
<stop stop-color="#FCB414"/>
<stop offset="1" stop-color="#FDD240"/>
</linearGradient>
<linearGradient id="paint41_linear_0_1102" x1="289.76" y1="285.68" x2="254.499" y2="285.68" gradientUnits="userSpaceOnUse">
<stop stop-color="#FDD240"/>
<stop offset="1" stop-color="#FCB414"/>
</linearGradient>
<linearGradient id="paint42_linear_0_1102" x1="289.798" y1="266.064" x2="254.549" y2="266.064" gradientUnits="userSpaceOnUse">
<stop stop-color="#FDD240"/>
<stop offset="1" stop-color="#FCB414"/>
</linearGradient>
<linearGradient id="paint43_linear_0_1102" x1="202.777" y1="232.593" x2="179.248" y2="232.593" gradientUnits="userSpaceOnUse">
<stop stop-color="#FDD240"/>
<stop offset="1" stop-color="#FCB414"/>
</linearGradient>
<linearGradient id="paint44_linear_0_1102" x1="194.167" y1="232.593" x2="187.858" y2="232.593" gradientUnits="userSpaceOnUse">
<stop stop-color="#FDD240"/>
<stop offset="1" stop-color="#FCB414"/>
</linearGradient>
<linearGradient id="paint45_linear_0_1102" x1="451.639" y1="317.277" x2="369.814" y2="317.277" gradientUnits="userSpaceOnUse">
<stop stop-color="#FCB414"/>
<stop offset="1" stop-color="#FDD240"/>
</linearGradient>
<linearGradient id="paint46_linear_0_1102" x1="451.639" y1="264.253" x2="338.017" y2="264.253" gradientUnits="userSpaceOnUse">
<stop stop-color="#FCB414"/>
<stop offset="1" stop-color="#FDD240"/>
</linearGradient>
<linearGradient id="paint47_linear_0_1102" x1="419.741" y1="223.234" x2="313.667" y2="223.234" gradientUnits="userSpaceOnUse">
<stop stop-color="#FCB414"/>
<stop offset="1" stop-color="#FDD240"/>
</linearGradient>
<linearGradient id="paint48_linear_0_1102" x1="372.28" y1="300.028" x2="311.075" y2="300.028" gradientUnits="userSpaceOnUse">
<stop stop-color="#FCB414"/>
<stop offset="1" stop-color="#FDD240"/>
</linearGradient>
<linearGradient id="paint49_linear_0_1102" x1="345.768" y1="158.877" x2="214.395" y2="158.877" gradientUnits="userSpaceOnUse">
<stop stop-color="#FCB414"/>
<stop offset="1" stop-color="#FDD240"/>
</linearGradient>
<linearGradient id="paint50_linear_0_1102" x1="247.254" y1="207.519" x2="214.244" y2="207.519" gradientUnits="userSpaceOnUse">
<stop stop-color="#FCB414"/>
<stop offset="1" stop-color="#FDD240"/>
</linearGradient>
<linearGradient id="paint51_linear_0_1102" x1="352.089" y1="353.28" x2="314.476" y2="353.28" gradientUnits="userSpaceOnUse">
<stop stop-color="#FCB414"/>
<stop offset="1" stop-color="#FDD240"/>
</linearGradient>
<linearGradient id="paint52_linear_0_1102" x1="227.569" y1="278.664" x2="189.982" y2="278.664" gradientUnits="userSpaceOnUse">
<stop stop-color="#FCB414"/>
<stop offset="1" stop-color="#FDD240"/>
</linearGradient>
<linearGradient id="paint53_linear_0_1102" x1="440.513" y1="264.253" x2="349.143" y2="264.253" gradientUnits="userSpaceOnUse">
<stop stop-color="#FCB414"/>
<stop offset="1" stop-color="#FDD240"/>
</linearGradient>
<linearGradient id="paint54_linear_0_1102" x1="366.401" y1="285.604" x2="316.967" y2="285.604" gradientUnits="userSpaceOnUse">
<stop stop-color="#FCB414"/>
<stop offset="1" stop-color="#FDD240"/>
</linearGradient>
<linearGradient id="paint55_linear_0_1102" x1="217.581" y1="278.664" x2="199.97" y2="278.664" gradientUnits="userSpaceOnUse">
<stop stop-color="#FDD240"/>
<stop offset="1" stop-color="#FCB414"/>
</linearGradient>
<linearGradient id="paint56_linear_0_1102" x1="342.088" y1="353.28" x2="324.464" y2="353.28" gradientUnits="userSpaceOnUse">
<stop stop-color="#FDD240"/>
<stop offset="1" stop-color="#FCB414"/>
</linearGradient>
<linearGradient id="paint57_linear_0_1102" x1="443.13" y1="308.741" x2="429.021" y2="308.741" gradientUnits="userSpaceOnUse">
<stop stop-color="#FDD240"/>
<stop offset="1" stop-color="#FCB414"/>
</linearGradient>
<linearGradient id="paint58_linear_0_1102" x1="393.444" y1="337.425" x2="379.36" y2="337.425" gradientUnits="userSpaceOnUse">
<stop stop-color="#FDD240"/>
<stop offset="1" stop-color="#FCB414"/>
</linearGradient>
<linearGradient id="paint59_linear_0_1102" x1="424.153" y1="322.481" x2="398.299" y2="322.481" gradientUnits="userSpaceOnUse">
<stop stop-color="#FDD240"/>
<stop offset="1" stop-color="#FCB414"/>
</linearGradient>
<linearGradient id="paint60_linear_0_1102" x1="58.2271" y1="136.266" x2="0.999722" y2="136.266" gradientUnits="userSpaceOnUse">
<stop stop-color="#FCB414"/>
<stop offset="1" stop-color="#FDD240"/>
</linearGradient>
<linearGradient id="paint61_linear_0_1102" x1="58.8578" y1="67.1682" x2="0.375715" y2="67.1682" gradientUnits="userSpaceOnUse">
<stop stop-color="#FCB414"/>
<stop offset="1" stop-color="#FDD240"/>
</linearGradient>
<linearGradient id="paint62_linear_0_1102" x1="16.7407" y1="151.09" x2="-8.68636e-05" y2="151.09" gradientUnits="userSpaceOnUse">
<stop stop-color="#FCB414"/>
<stop offset="1" stop-color="#FDD240"/>
</linearGradient>
<linearGradient id="paint63_linear_0_1102" x1="74.5317" y1="152.93" x2="21.8469" y2="152.93" gradientUnits="userSpaceOnUse">
<stop stop-color="#FCB414"/>
<stop offset="1" stop-color="#FDD240"/>
</linearGradient>
<linearGradient id="paint64_linear_0_1102" x1="124.305" y1="164.196" x2="28.8116" y2="164.196" gradientUnits="userSpaceOnUse">
<stop stop-color="#FDD240"/>
<stop offset="1" stop-color="#FCB414"/>
</linearGradient>
<linearGradient id="paint65_linear_0_1102" x1="82.8182" y1="179.013" x2="28.1876" y2="179.013" gradientUnits="userSpaceOnUse">
<stop stop-color="#FCB414"/>
<stop offset="1" stop-color="#FDD240"/>
</linearGradient>
<linearGradient id="paint66_linear_0_1102" x1="140.616" y1="192.488" x2="87.9243" y2="192.488" gradientUnits="userSpaceOnUse">
<stop stop-color="#FCB414"/>
<stop offset="1" stop-color="#FDD240"/>
</linearGradient>
<linearGradient id="paint67_linear_0_1102" x1="112.227" y1="208.157" x2="94.2718" y2="208.157" gradientUnits="userSpaceOnUse">
<stop stop-color="#FCB414"/>
<stop offset="1" stop-color="#FDD240"/>
</linearGradient>
<linearGradient id="paint68_linear_0_1102" x1="154.344" y1="195.421" x2="94.2717" y2="195.421" gradientUnits="userSpaceOnUse">
<stop stop-color="#FCB414"/>
<stop offset="1" stop-color="#FDD240"/>
</linearGradient>
<linearGradient id="paint69_linear_0_1102" x1="123.379" y1="142.497" x2="3.17361" y2="142.497" gradientUnits="userSpaceOnUse">
<stop stop-color="#FCB414"/>
<stop offset="1" stop-color="#FDD240"/>
</linearGradient>
<linearGradient id="paint70_linear_0_1102" x1="123.251" y1="103.496" x2="3.17369" y2="103.496" gradientUnits="userSpaceOnUse">
<stop stop-color="#FCB414"/>
<stop offset="1" stop-color="#FDD240"/>
</linearGradient>
<linearGradient id="paint71_linear_0_1102" x1="65.4199" y1="168.996" x2="46.7064" y2="168.996" gradientUnits="userSpaceOnUse">
<stop stop-color="#FDD240"/>
<stop offset="1" stop-color="#FCB414"/>
</linearGradient>
<linearGradient id="paint72_linear_0_1102" x1="65.44" y1="158.596" x2="46.7333" y2="158.596" gradientUnits="userSpaceOnUse">
<stop stop-color="#FDD240"/>
<stop offset="1" stop-color="#FCB414"/>
</linearGradient>
<linearGradient id="paint73_linear_0_1102" x1="19.2569" y1="140.852" x2="6.77011" y2="140.852" gradientUnits="userSpaceOnUse">
<stop stop-color="#FDD240"/>
<stop offset="1" stop-color="#FCB414"/>
</linearGradient>
<linearGradient id="paint74_linear_0_1102" x1="14.6875" y1="140.852" x2="11.3393" y2="140.852" gradientUnits="userSpaceOnUse">
<stop stop-color="#FDD240"/>
<stop offset="1" stop-color="#FCB414"/>
</linearGradient>
<linearGradient id="paint75_linear_0_1102" x1="151.331" y1="185.747" x2="107.906" y2="185.747" gradientUnits="userSpaceOnUse">
<stop stop-color="#FCB414"/>
<stop offset="1" stop-color="#FDD240"/>
</linearGradient>
<linearGradient id="paint76_linear_0_1102" x1="151.331" y1="157.636" x2="91.0309" y2="157.636" gradientUnits="userSpaceOnUse">
<stop stop-color="#FCB414"/>
<stop offset="1" stop-color="#FDD240"/>
</linearGradient>
<linearGradient id="paint77_linear_0_1102" x1="134.403" y1="135.89" x2="78.108" y2="135.89" gradientUnits="userSpaceOnUse">
<stop stop-color="#FCB414"/>
<stop offset="1" stop-color="#FDD240"/>
</linearGradient>
<linearGradient id="paint78_linear_0_1102" x1="109.214" y1="176.603" x2="76.7325" y2="176.603" gradientUnits="userSpaceOnUse">
<stop stop-color="#FCB414"/>
<stop offset="1" stop-color="#FDD240"/>
</linearGradient>
<linearGradient id="paint79_linear_0_1102" x1="95.144" y1="101.771" x2="25.4231" y2="101.771" gradientUnits="userSpaceOnUse">
<stop stop-color="#FCB414"/>
<stop offset="1" stop-color="#FDD240"/>
</linearGradient>
<linearGradient id="paint80_linear_0_1102" x1="42.8618" y1="127.559" x2="25.3427" y2="127.559" gradientUnits="userSpaceOnUse">
<stop stop-color="#FCB414"/>
<stop offset="1" stop-color="#FDD240"/>
</linearGradient>
<linearGradient id="paint81_linear_0_1102" x1="98.4989" y1="204.834" x2="78.5374" y2="204.834" gradientUnits="userSpaceOnUse">
<stop stop-color="#FCB414"/>
<stop offset="1" stop-color="#FDD240"/>
</linearGradient>
<linearGradient id="paint82_linear_0_1102" x1="32.4147" y1="165.277" x2="12.4666" y2="165.277" gradientUnits="userSpaceOnUse">
<stop stop-color="#FCB414"/>
<stop offset="1" stop-color="#FDD240"/>
</linearGradient>
<linearGradient id="paint83_linear_0_1102" x1="145.427" y1="157.636" x2="96.9355" y2="157.636" gradientUnits="userSpaceOnUse">
<stop stop-color="#FCB414"/>
<stop offset="1" stop-color="#FDD240"/>
</linearGradient>
<linearGradient id="paint84_linear_0_1102" x1="106.094" y1="168.956" x2="79.8593" y2="168.956" gradientUnits="userSpaceOnUse">
<stop stop-color="#FCB414"/>
<stop offset="1" stop-color="#FDD240"/>
</linearGradient>
<linearGradient id="paint85_linear_0_1102" x1="27.114" y1="165.277" x2="17.7673" y2="165.277" gradientUnits="userSpaceOnUse">
<stop stop-color="#FDD240"/>
<stop offset="1" stop-color="#FCB414"/>
</linearGradient>
<linearGradient id="paint86_linear_0_1102" x1="93.1914" y1="204.834" x2="83.838" y2="204.834" gradientUnits="userSpaceOnUse">
<stop stop-color="#FDD240"/>
<stop offset="1" stop-color="#FCB414"/>
</linearGradient>
<linearGradient id="paint87_linear_0_1102" x1="146.816" y1="181.222" x2="139.328" y2="181.222" gradientUnits="userSpaceOnUse">
<stop stop-color="#FDD240"/>
<stop offset="1" stop-color="#FCB414"/>
</linearGradient>
<linearGradient id="paint88_linear_0_1102" x1="120.446" y1="196.429" x2="112.972" y2="196.429" gradientUnits="userSpaceOnUse">
<stop stop-color="#FDD240"/>
<stop offset="1" stop-color="#FCB414"/>
</linearGradient>
<linearGradient id="paint89_linear_0_1102" x1="136.744" y1="188.506" x2="123.023" y2="188.506" gradientUnits="userSpaceOnUse">
<stop stop-color="#FDD240"/>
<stop offset="1" stop-color="#FCB414"/>
</linearGradient>
<clipPath id="clip0_0_1102">
<rect width="154.344" height="150.771" fill="white" transform="matrix(-1 0 0 1 350.132 0)"/>
</clipPath>
<clipPath id="clip1_0_1102">
<rect width="290.824" height="284.393" fill="white" transform="matrix(-1 0 0 1 457.316 93.6068)"/>
</clipPath>
<clipPath id="clip2_0_1102">
<rect width="154.344" height="150.771" fill="white" transform="matrix(-1 0 0 1 154.344 67.1682)"/>
</clipPath>
</defs>
</svg>
