<svg width="59" height="59" viewBox="0 0 59 59" fill="white" xmlns="http://www.w3.org/2000/svg">
<g clip-path="url(#clip0_161:86)">
<path d="M18.2646 31.2033H19.9932V32.938H18.2646V31.2033Z" fill="white"/>
<path d="M38.3671 5.75561C38.1231 6.33432 37.9526 7.52388 37.0968 7.46454C35.7958 7.36129 36.2117 6.08345 36.5072 5.2699L34.1245 4.15074L31.2633 0H28.3452L27.3051 1.17723L26.0308 0.0735195L21.7291 4.37245V8.98494L19.9932 12.4398V20.9238L18.2646 22.6512V29.4685H19.9932V23.3666L21.7217 21.6393V12.8491L23.4575 9.39425V5.08794L26.1149 2.43237L27.467 3.60361L29.1248 1.72748H30.3552L32.9664 5.51546L34.4574 6.21586C34.0551 9.26358 38.5052 10.3679 39.5799 7.48309H40.7354V9.51951L37.6278 11.0723L34.7212 14.0176V16.5031H36.4497V14.726L38.6572 12.4891L42.4639 10.587V5.75561H38.3671Z" fill="white"/>
<path d="M36.4498 18.2306H34.7213V19.8803L36.4596 21.8527V24.4227L31.5784 25.7214C30.9369 27.1258 29.757 26.9422 28.6939 26.1242L27.2626 28.3768C26.9128 28.9273 26.7994 29.5808 26.9433 30.2168C27.1013 30.9818 27.6484 31.564 28.3218 31.927L26.4189 35.0847H25.012L23.2124 38.8592L26.043 40.7453V42.4126L21.5073 46.0235L22.575 48.231V48.4812H19.62L18.2646 46.2076V43.8443L19.9932 36.9346V34.6435H18.2646V36.722L16.5361 43.6317V46.6833L18.6378 50.2086H24.3034V47.8355L23.6645 46.5147L27.7715 43.2451V39.8209L25.4166 38.252L26.103 36.8123H27.3956L30.6782 31.3649L28.942 30.2769C28.6157 30.0817 28.5111 29.6194 28.7216 29.3029L29.5 28.1559C30.7202 28.5188 31.9609 28.2558 32.693 27.2123L38.1881 25.7503V21.2003L36.4498 19.2278V18.2306Z" fill="white"/>
<path d="M21.7217 51.8919V55.7848L25.7396 59H29.5257V54.9666L25.8496 51.8919H21.7217ZM27.7973 57.2726H26.3464L23.4502 54.955V53.6192H25.2217L27.7973 55.7733V57.2726Z" fill="white"/>
<path d="M25.1787 5.27484H26.9072V7.0022H25.1787V5.27484Z" fill="white"/>
<path d="M25.1787 8.72968H26.9072V10.457H25.1787V8.72968Z" fill="white"/>
</g>
<defs>
<clipPath id="clip0_161:86">
<rect width="59" height="59" fill="white"/>
</clipPath>
</defs>
</svg>
