<svg width="36" height="32" viewBox="0 0 36 32" fill="white" xmlns="http://www.w3.org/2000/svg">
<path d="M21.8572 32H20.3503C20.2139 32 20.0831 31.9473 19.9867 31.8534C19.8902 31.7595 19.8361 31.6322 19.8361 31.4994C19.8361 31.3666 19.8902 31.2393 19.9867 31.1454C20.0831 31.0516 20.2139 30.9988 20.3503 30.9988H21.8572C21.9936 30.9988 22.1244 31.0516 22.2209 31.1454C22.3173 31.2393 22.3715 31.3666 22.3715 31.4994C22.3715 31.6322 22.3173 31.7595 22.2209 31.8534C22.1244 31.9473 21.9936 32 21.8572 32Z" fill="white"/>
<path d="M35.4857 32H30.5691C30.4327 32 30.3019 31.9472 30.2055 31.8534C30.109 31.7595 30.0549 31.6322 30.0549 31.4994C30.0549 31.3666 30.109 31.2393 30.2055 31.1454C30.3019 31.0515 30.4327 30.9988 30.5691 30.9988H34.9714V10.119H1.02857V30.9988H16.7451C16.8815 30.9988 17.0124 31.0515 17.1088 31.1454C17.2052 31.2393 17.2594 31.3666 17.2594 31.4994C17.2594 31.6322 17.2052 31.7595 17.1088 31.8534C17.0124 31.9472 16.8815 32 16.7451 32H0.514286C0.377889 32 0.247078 31.9472 0.150631 31.8534C0.0541835 31.7595 0 31.6322 0 31.4994V9.61842C0 9.48565 0.0541835 9.35832 0.150631 9.26444C0.247078 9.17056 0.377889 9.11782 0.514286 9.11782H35.4857C35.6221 9.11782 35.7529 9.17056 35.8494 9.26444C35.9458 9.35832 36 9.48565 36 9.61842V31.4994C36 31.6322 35.9458 31.7595 35.8494 31.8534C35.7529 31.9472 35.6221 32 35.4857 32Z" fill="white"/>
<path d="M26.9692 32H25.4572C25.3208 32 25.19 31.9473 25.0935 31.8534C24.9971 31.7595 24.9429 31.6322 24.9429 31.4994C24.9429 31.3666 24.9971 31.2393 25.0935 31.1454C25.19 31.0516 25.3208 30.9988 25.4572 30.9988H26.9692C27.1056 30.9988 27.2364 31.0516 27.3329 31.1454C27.4293 31.2393 27.4835 31.3666 27.4835 31.4994C27.4835 31.6322 27.4293 31.7595 27.3329 31.8534C27.2364 31.9473 27.1056 32 26.9692 32Z" fill="white"/>
<path d="M35.4858 10.119H0.514319C0.423292 10.119 0.333901 10.0955 0.255275 10.0508C0.176648 10.0062 0.111605 9.94201 0.0667868 9.86489C0.0219688 9.78777 -0.00101762 9.70046 0.000175185 9.61186C0.00136799 9.52326 0.0266972 9.43656 0.073576 9.36061L5.69369 0.242788C5.73944 0.168672 5.80413 0.107353 5.88146 0.0648051C5.95879 0.0222569 6.04612 -6.98395e-05 6.13495 1.64111e-07H29.8651C29.9539 -6.98395e-05 30.0413 0.0222569 30.1186 0.0648051C30.1959 0.107353 30.2606 0.168672 30.3064 0.242788L35.9265 9.36061C35.9734 9.43656 35.9987 9.52326 35.9999 9.61186C36.0011 9.70046 35.9781 9.78777 35.9333 9.86489C35.8885 9.94201 35.8234 10.0062 35.7448 10.0508C35.6662 10.0955 35.5768 10.119 35.4858 10.119ZM1.42255 9.11783H34.5775L29.574 1.00119H6.42861L1.42255 9.11783Z" fill="white"/>
<path d="M14.2529 10.119C14.1791 10.119 14.1062 10.1035 14.039 10.0736C13.9719 10.0437 13.9122 10 13.8639 9.94565C13.8157 9.89127 13.78 9.82741 13.7594 9.75843C13.7387 9.68944 13.7336 9.61693 13.7443 9.54583L15.12 0.42801C15.1379 0.309042 15.1992 0.200325 15.2927 0.121735C15.3862 0.0431446 15.5056 -6.67001e-05 15.6292 1.6338e-06H20.375C20.4985 -6.67001e-05 20.6179 0.0431446 20.7114 0.121735C20.8049 0.200325 20.8662 0.309042 20.8841 0.42801L22.2578 9.54583C22.2685 9.61693 22.2633 9.68944 22.2427 9.75843C22.222 9.82741 22.1864 9.89127 22.1381 9.94565C22.0899 10 22.0302 10.0437 21.963 10.0736C21.8959 10.1035 21.823 10.119 21.7492 10.119H14.2529ZM14.8485 9.11783H21.1516L19.9286 1.00119H16.0714L14.8485 9.11783Z" fill="white"/>
<path d="M21.7471 17.4132C21.6455 17.4132 21.5462 17.3839 21.4617 17.3291L18 15.0829L14.5383 17.3291C14.4609 17.3794 14.3709 17.4083 14.2779 17.4127C14.1849 17.4171 14.0924 17.3968 14.0103 17.354C13.9282 17.3113 13.8596 17.2476 13.8117 17.1699C13.7639 17.0921 13.7386 17.0032 13.7386 16.9126V9.61842C13.7386 9.48565 13.7928 9.35832 13.8893 9.26444C13.9857 9.17056 14.1165 9.11782 14.2529 9.11782H21.7471C21.8835 9.11782 22.0143 9.17056 22.1107 9.26444C22.2072 9.35832 22.2614 9.48565 22.2614 9.61842V16.9126C22.2614 17.0453 22.2072 17.1727 22.1107 17.2666C22.0143 17.3604 21.8835 17.4132 21.7471 17.4132ZM18 13.9806C18.1015 13.9808 18.2008 14.0101 18.2854 14.0647L21.2328 15.9775V10.119H14.7672V15.976L17.7146 14.0632C17.7994 14.0091 17.8986 13.9804 18 13.9806Z" fill="white"/>
<path d="M10.9862 28.3657C10.8498 28.3657 10.719 28.3129 10.6225 28.2191C10.5261 28.1252 10.4719 27.9978 10.4719 27.8651V22.4977C10.4719 22.3649 10.5261 22.2376 10.6225 22.1437C10.719 22.0499 10.8498 21.9971 10.9862 21.9971C11.1226 21.9971 11.2534 22.0499 11.3498 22.1437C11.4463 22.2376 11.5004 22.3649 11.5004 22.4977V27.8651C11.5004 27.9978 11.4463 28.1252 11.3498 28.2191C11.2534 28.3129 11.1226 28.3657 10.9862 28.3657Z" fill="white"/>
<path d="M12.4714 24.411C12.3351 24.411 12.2043 24.3582 12.1078 24.2643L10.9862 23.1725L9.86401 24.2633C9.76702 24.3545 9.63711 24.405 9.50227 24.4038C9.36742 24.4027 9.23843 24.35 9.14308 24.2572C9.04773 24.1644 8.99364 24.0388 8.99247 23.9076C8.9913 23.7763 9.04313 23.6499 9.13682 23.5555L10.6226 22.1082C10.719 22.0144 10.8498 21.9617 10.9862 21.9617C11.1226 21.9617 11.2533 22.0144 11.3498 22.1082L12.835 23.554C12.9078 23.6238 12.9576 23.7132 12.9779 23.8108C12.9983 23.9083 12.9883 24.0095 12.9493 24.1015C12.9103 24.1935 12.844 24.272 12.7588 24.3271C12.6737 24.3823 12.5737 24.4115 12.4714 24.411Z" fill="white"/>
<path d="M5.28788 28.3657C5.15148 28.3657 5.02067 28.3129 4.92422 28.2191C4.82777 28.1252 4.77359 27.9978 4.77359 27.8651V22.4977C4.77359 22.3649 4.82777 22.2376 4.92422 22.1437C5.02067 22.0499 5.15148 21.9971 5.28788 21.9971C5.42427 21.9971 5.55508 22.0499 5.65153 22.1437C5.74798 22.2376 5.80216 22.3649 5.80216 22.4977V27.8651C5.80216 27.9978 5.74798 28.1252 5.65153 28.2191C5.55508 28.3129 5.42427 28.3657 5.28788 28.3657Z" fill="white"/>
<path d="M3.80265 24.411C3.70095 24.411 3.60154 24.3816 3.51699 24.3266C3.43244 24.2716 3.36654 24.1934 3.32762 24.1019C3.2887 24.0105 3.27852 23.9098 3.29835 23.8128C3.31819 23.7157 3.36715 23.6265 3.43905 23.5565L4.92431 22.1082C5.02075 22.0144 5.15154 21.9617 5.28791 21.9617C5.42428 21.9617 5.55507 22.0144 5.65151 22.1082L7.13677 23.554C7.23045 23.6484 7.28229 23.7748 7.28111 23.9061C7.27994 24.0373 7.22586 24.1629 7.1305 24.2557C7.03515 24.3485 6.90616 24.4012 6.77132 24.4023C6.63647 24.4034 6.50656 24.353 6.40957 24.2618L5.28791 23.17L4.16574 24.2633C4.06961 24.3574 3.93901 24.4106 3.80265 24.411Z" fill="white"/>
</svg>
