<svg width="54" height="54" viewBox="0 0 54 54" fill="white" xmlns="http://www.w3.org/2000/svg">
<path d="M50.4141 35.106V34.0426C50.4142 33.855 50.3825 33.6687 50.3205 33.4916L48.8426 27.6328H50.4141C50.6099 27.6328 50.7977 27.555 50.9361 27.4166C51.0746 27.2781 51.1524 27.0903 51.1524 26.8945C51.1524 26.6987 51.0746 26.511 50.9361 26.3725C50.7977 26.234 50.6099 26.1563 50.4141 26.1563H37.6119C37.5192 26.1525 37.4268 26.1679 37.3404 26.2016C37.2541 26.2353 37.1756 26.2866 37.1101 26.3521C37.0445 26.4177 36.9933 26.4961 36.9595 26.5824C36.9258 26.6688 36.9103 26.7612 36.9141 26.8538V41.6602H19.8783C19.2087 41.3302 18.4722 41.1587 17.7257 41.1587C16.9792 41.1587 16.2427 41.3302 15.5731 41.6602H10.9548C10.285 41.3302 9.54838 41.1587 8.80174 41.1587C8.0551 41.1587 7.31844 41.3302 6.64865 41.6602H2.11054C1.79958 41.6676 1.50389 41.7964 1.28682 42.0192C1.06974 42.242 0.948555 42.5409 0.949221 42.852V45.7505C0.949006 46.0605 1.0706 46.3583 1.28782 46.5796C1.50504 46.8009 1.80049 46.928 2.11054 46.9336H3.98788C4.17442 47.9369 4.66208 48.8596 5.38598 49.5789C5.95044 50.1279 6.63906 50.5326 7.39336 50.7586C8.14767 50.9846 8.94537 51.0253 9.71875 50.8772C10.4921 50.729 11.2183 50.3965 11.8357 49.9077C12.4531 49.4189 12.9434 48.7884 13.265 48.0696C13.5874 48.7876 14.078 49.4173 14.6954 49.9054C15.3128 50.3935 16.0387 50.7257 16.8116 50.8738C17.5846 51.0219 18.3819 50.9815 19.1359 50.7561C19.89 50.5307 20.5786 50.1269 21.1435 49.579C21.8674 48.8596 22.355 47.9369 22.5414 46.9336H39.9444C40.1308 47.9368 40.6183 48.8593 41.3421 49.5785C42.2569 50.4681 43.4824 50.966 44.7584 50.9665C46.0344 50.967 47.2603 50.4701 48.1758 49.5813C48.8998 48.8612 49.3874 47.9376 49.5736 46.9336H52.3113C52.5096 46.9286 52.6979 46.8461 52.8361 46.7039C52.9743 46.5618 53.0514 46.3711 53.0508 46.1728V39.4841C53.0498 38.5838 52.8039 37.7007 52.3395 36.9295C51.875 36.1582 51.2094 35.5279 50.4141 35.106ZM3.9593 45.457H2.42578V43.1367H4.8773C4.38244 43.875 4.06741 44.6133 3.9593 45.457ZM12.211 46.1548C12.1897 47.0453 11.8208 47.8921 11.1832 48.5141C10.5455 49.1361 9.68982 49.4839 8.79907 49.483C7.90832 49.4822 7.05327 49.1328 6.41683 48.5096C5.7804 47.8863 5.41312 47.0388 5.39357 46.1483C5.39283 46.1242 5.39294 46.0994 5.39294 46.0754C5.39233 45.2155 5.7173 44.3873 6.3025 43.7573L6.31653 43.7433C6.32148 43.7384 6.32623 43.7334 6.33108 43.7282C6.57652 43.4682 6.86167 43.2489 7.17589 43.0784C7.67506 42.8083 8.23369 42.6668 8.80126 42.6668C9.36884 42.6668 9.92747 42.8083 10.4266 43.0784L10.4298 43.0801C10.7436 43.2503 11.0284 43.4692 11.2736 43.7286C11.2784 43.7338 11.2833 43.7392 11.2882 43.7438L11.3025 43.758C11.8879 44.3878 12.2129 45.2161 12.2119 46.0759C12.2118 46.0994 12.2119 46.1242 12.211 46.1548ZM13.2657 44.0544C13.1139 43.7332 12.9339 43.4262 12.7278 43.1368H13.8025C13.5971 43.4264 13.4175 43.7334 13.2655 44.0543L13.2657 44.0544ZM21.0938 46.0754V46.163C21.0938 47.9951 19.5398 49.4844 17.7056 49.4844C16.8165 49.4783 15.9646 49.1265 15.3304 48.5033C14.6962 47.8802 14.3293 47.0347 14.3076 46.1459C14.3066 46.1226 14.312 46.0987 14.312 46.0754C14.3123 45.4617 14.4782 44.8595 14.7922 44.3322C15.1061 43.805 15.5565 43.3722 16.0959 43.0795C16.0969 43.0795 16.0993 43.0784 16.1 43.0779C16.5985 42.806 17.1577 42.6645 17.7255 42.6665C18.2927 42.6666 18.8509 42.8079 19.3497 43.0779L19.3531 43.0797C19.853 43.3518 20.276 43.746 20.5825 44.2257C20.889 44.7053 21.0691 45.2547 21.106 45.8227C21.1117 45.9011 21.0938 45.9837 21.0938 46.0754ZM36.9141 45.457H22.5703C22.4611 44.6133 22.1434 43.875 21.6569 43.1367H36.9141V45.457ZM43.5586 27.6328H47.3197L48.8965 33.8833C48.9027 33.9042 48.91 33.9247 48.9184 33.9448C48.931 33.9759 48.9375 34.0091 48.9375 34.0426V34.6006C48.6596 34.5391 48.3769 34.5015 48.0926 34.4883H44.9568C44.2008 34.4883 43.5586 33.9121 43.5586 33.156V27.6328ZM38.3906 27.6328H42.082V33.156C42.082 34.4849 43.0313 35.6044 44.2969 35.9167V37.8633H38.3906V27.6328ZM48.1676 46.1555C48.1466 47.0459 47.778 47.8927 47.1407 48.5149C46.5033 49.137 45.6478 49.485 44.7571 49.4845C43.8665 49.4839 43.0114 49.1348 42.3748 48.5119C41.7382 47.889 41.3707 47.0417 41.3508 46.1512C41.3502 46.126 41.3508 46.1002 41.3508 46.0753C41.3508 45.1928 41.6931 44.3448 42.3055 43.7095C42.918 43.0742 43.7529 42.7011 44.6348 42.6687C45.5166 42.6364 46.3767 42.9472 47.034 43.5359C47.6914 44.1247 48.0949 44.9454 48.1596 45.8254C48.1657 45.9058 48.1687 45.9899 48.1687 46.0753C48.1676 46.1009 48.1676 46.1276 48.1676 46.1555ZM51.5742 45.457H49.602C49.4469 44.2825 48.8702 43.2044 47.9794 42.4235C47.0885 41.6425 45.9442 41.212 44.7595 41.212C43.5748 41.212 42.4305 41.6425 41.5397 42.4235C40.6488 43.2044 40.0722 44.2825 39.9171 45.457H38.3906V42.444C38.3906 42.4393 38.3914 42.4346 38.3914 42.4298C38.3914 42.4249 38.3906 42.4203 38.3906 42.4154V39.3399H44.9965C45.4042 39.3399 45.7734 39.0608 45.7734 38.6529V35.9649H48.0926C50.0121 35.9649 51.5742 37.565 51.5742 39.4841V45.457Z" fill="white"/>
<path d="M7.27734 26.9754C7.08154 26.9754 6.89375 27.0532 6.7553 27.1916C6.61685 27.3301 6.53906 27.5179 6.53906 27.7137V36.2074C6.53906 36.4032 6.61685 36.591 6.7553 36.7294C6.89375 36.8679 7.08154 36.9457 7.27734 36.9457C7.47315 36.9457 7.66093 36.8679 7.79939 36.7294C7.93784 36.591 8.01562 36.4032 8.01562 36.2074V27.7137C8.01562 27.5179 7.93784 27.3301 7.79939 27.1916C7.66093 27.0532 7.47315 26.9754 7.27734 26.9754Z" fill="white"/>
<path d="M12.9727 26.9754C12.7769 26.9754 12.5891 27.0532 12.4506 27.1916C12.3122 27.3301 12.2344 27.5179 12.2344 27.7137V36.2074C12.2344 36.4032 12.3122 36.591 12.4506 36.7294C12.5891 36.8679 12.7769 36.9457 12.9727 36.9457C13.1685 36.9457 13.3562 36.8679 13.4947 36.7294C13.6332 36.591 13.7109 36.4032 13.7109 36.2074V27.7137C13.7109 27.5179 13.6332 27.3301 13.4947 27.1916C13.3562 27.0532 13.1685 26.9754 12.9727 26.9754Z" fill="white"/>
<path d="M18.5625 26.9754C18.3667 26.9754 18.1789 27.0532 18.0405 27.1916C17.902 27.3301 17.8242 27.5179 17.8242 27.7137V36.2074C17.8242 36.4032 17.902 36.591 18.0405 36.7294C18.1789 36.8679 18.3667 36.9457 18.5625 36.9457C18.7583 36.9457 18.9461 36.8679 19.0845 36.7294C19.223 36.591 19.3008 36.4032 19.3008 36.2074V27.7137C19.3008 27.5179 19.223 27.3301 19.0845 27.1916C18.9461 27.0532 18.7583 26.9754 18.5625 26.9754Z" fill="white"/>
<path d="M24.1523 26.9754C23.9565 26.9754 23.7688 27.0532 23.6303 27.1916C23.4918 27.3301 23.4141 27.5179 23.4141 27.7137V36.2074C23.4141 36.4032 23.4918 36.591 23.6303 36.7294C23.7688 36.8679 23.9565 36.9457 24.1523 36.9457C24.3481 36.9457 24.5359 36.8679 24.6744 36.7294C24.8128 36.591 24.8906 36.4032 24.8906 36.2074V27.7137C24.8906 27.5179 24.8128 27.3301 24.6744 27.1916C24.5359 27.0532 24.3481 26.9754 24.1523 26.9754Z" fill="white"/>
<path d="M29.8477 26.9754C29.6519 26.9754 29.4641 27.0532 29.3256 27.1916C29.1872 27.3301 29.1094 27.5179 29.1094 27.7137V36.2074C29.1094 36.4032 29.1872 36.591 29.3256 36.7294C29.4641 36.8679 29.6519 36.9457 29.8477 36.9457C30.0435 36.9457 30.2312 36.8679 30.3697 36.7294C30.5082 36.591 30.5859 36.4032 30.5859 36.2074V27.7137C30.5859 27.5179 30.5082 27.3301 30.3697 27.1916C30.2312 27.0532 30.0435 26.9754 29.8477 26.9754Z" fill="white"/>
<path d="M2.74226 40.289H34.3829C34.7906 40.289 35.1212 39.907 35.1212 39.4993V24.4212C35.1212 24.3971 35.1212 24.3729 35.1212 24.349V24.3466C35.1193 24.3249 35.1154 24.3035 35.1095 24.2827C35.0998 24.2339 35.0854 24.1862 35.0662 24.1404C35.0658 24.1398 35.0654 24.1391 35.0651 24.1384C35.0579 24.1214 35.0493 24.1049 35.0411 24.0886C35.0386 24.0836 35.0363 24.0781 35.0337 24.0734C35.0271 24.0613 35.0197 24.0498 35.0126 24.0381C35.0072 24.0292 35.0021 24.02 34.9962 24.0114C34.9903 24.0027 34.9856 23.9969 34.9804 23.9903C34.9715 23.978 34.9628 23.9656 34.9531 23.9538C34.9505 23.9506 34.9476 23.9478 34.945 23.9447C34.8984 23.8898 34.8439 23.8421 34.7834 23.8031C34.767 23.7925 34.7502 23.782 34.7328 23.7726C34.7316 23.7719 34.73 23.7714 34.7286 23.7706C34.708 23.7596 34.6869 23.7497 34.6653 23.7407L34.6791 23.7401L19.5118 17.482V16.6374C20.5665 16.2534 21.439 15.1844 21.439 13.9282C21.4351 13.2966 21.2237 12.6838 20.8374 12.1841C20.451 11.6844 19.9111 11.3256 19.3009 11.1629V8.75387H19.6243C19.7886 8.75477 19.9484 8.70061 20.0782 8.60002C20.208 8.49944 20.3004 8.35824 20.3406 8.19899L21.4023 3.95419C21.4295 3.84714 21.4314 3.73525 21.4081 3.6273C21.3848 3.51935 21.3368 3.41825 21.268 3.33193C21.1984 3.24487 21.1097 3.17495 21.0088 3.12756C20.9079 3.08016 20.7975 3.05655 20.6861 3.05855H16.4391C16.3276 3.05634 16.217 3.07992 16.1161 3.12743C16.0152 3.17495 15.9267 3.24513 15.8574 3.3325C15.788 3.41987 15.7398 3.52207 15.7165 3.63113C15.6932 3.7402 15.6953 3.85317 15.7228 3.96126L16.7846 8.2011C16.8248 8.36016 16.9172 8.50112 17.0471 8.60135C17.177 8.70159 17.3368 8.7553 17.5008 8.75387H17.8243V11.8047C17.8243 11.9016 17.8434 11.9976 17.8805 12.0872C17.9176 12.1768 17.972 12.2581 18.0405 12.3267C18.1091 12.3953 18.1905 12.4496 18.28 12.4867C18.3696 12.5238 18.4656 12.5429 18.5626 12.5429C18.8365 12.5429 19.1044 12.6242 19.3322 12.7764C19.56 12.9286 19.7375 13.1449 19.8424 13.3981C19.9472 13.6512 19.9746 13.9297 19.9212 14.1984C19.8677 14.4671 19.7358 14.7139 19.5421 14.9077C19.3484 15.1014 19.1015 15.2333 18.8328 15.2868C18.5641 15.3402 18.2856 15.3128 18.0325 15.2079C17.7794 15.1031 17.563 14.9256 17.4108 14.6978C17.2586 14.47 17.1773 14.2021 17.1773 13.9282C17.1773 13.7324 17.0996 13.5446 16.9611 13.4061C16.8227 13.2677 16.6349 13.1899 16.4391 13.1899C16.3429 13.1902 16.2477 13.2096 16.1591 13.247C16.0705 13.2844 15.9902 13.339 15.9229 13.4077C15.8556 13.4764 15.8026 13.5578 15.767 13.6471C15.7314 13.7365 15.7139 13.832 15.7156 13.9282C15.7086 14.5946 15.9377 15.242 16.3622 15.7558C16.7868 16.2695 17.3794 16.6165 18.0352 16.7352V17.4778L2.48112 23.7374C2.48006 23.7374 2.47163 23.7384 2.47057 23.739C2.45349 23.7459 2.43334 23.7538 2.41699 23.7621C2.41109 23.765 2.40307 23.7676 2.39738 23.7707C2.38388 23.7779 2.37006 23.786 2.35709 23.7939C2.34897 23.799 2.34 23.8035 2.33209 23.8088C2.32418 23.8141 2.31627 23.8204 2.30847 23.8261C2.29644 23.8347 2.28431 23.8432 2.27313 23.8525C2.27208 23.8532 2.27124 23.8541 2.27018 23.855C2.14805 23.9556 2.06201 24.0933 2.02507 24.2472C2.02328 24.2547 2.02096 24.2621 2.01927 24.2697C2.01727 24.2802 2.0159 24.2908 2.01431 24.3008C2.01189 24.3149 2.00936 24.329 2.00778 24.343C2.00704 24.3498 2.00693 24.3569 2.0063 24.3641C2.00493 24.382 2.00377 24.4 2.00366 24.4182C2.00366 24.4195 2.00366 24.4206 2.00366 24.4219V39.4993C2.00398 39.907 2.33452 40.289 2.74226 40.289ZM18.0774 7.2773L17.3848 4.53512H19.7408L19.0477 7.2773H18.0774ZM18.741 18.82L30.6543 23.7304H6.55084L18.741 18.82ZM3.48054 25.207H33.6446V38.8125H3.48054V25.207Z" fill="white"/>
</svg>
