<svg width="41" height="25" viewBox="0 0 41 25" fill="none" xmlns="http://www.w3.org/2000/svg">
<path d="M13.25 23.75C14.1783 23.75 15.0685 23.3813 15.7249 22.7249C16.3813 22.0685 16.75 21.1783 16.75 20.25C16.75 19.3217 16.3813 18.4315 15.7249 17.7751C15.0685 17.1187 14.1783 16.75 13.25 16.75C12.3217 16.75 11.4315 17.1187 10.7751 17.7751C10.1187 18.4315 9.75 19.3217 9.75 20.25C9.75 21.1783 10.1187 22.0685 10.7751 22.7249C11.4315 23.3813 12.3217 23.75 13.25 23.75ZM30.75 23.75C31.6783 23.75 32.5685 23.3813 33.2249 22.7249C33.8813 22.0685 34.25 21.1783 34.25 20.25C34.25 19.3217 33.8813 18.4315 33.2249 17.7751C32.5685 17.1187 31.6783 16.75 30.75 16.75C29.8217 16.75 28.9315 17.1187 28.2751 17.7751C27.6187 18.4315 27.25 19.3217 27.25 20.25C27.25 21.1783 27.6187 22.0685 28.2751 22.7249C28.9315 23.3813 29.8217 23.75 30.75 23.75Z" stroke="white" stroke-width="2" stroke-miterlimit="1.5" stroke-linecap="round" stroke-linejoin="round"/>
<path d="M16.8375 20.25H25.5V2.05C25.5 1.77152 25.3894 1.50445 25.1925 1.30754C24.9955 1.11062 24.7285 1 24.45 1H1M9.1375 20.25H5.55C5.41211 20.25 5.27557 20.2228 5.14818 20.1701C5.02079 20.1173 4.90504 20.04 4.80754 19.9425C4.71004 19.845 4.63269 19.7292 4.57993 19.6018C4.52716 19.4744 4.5 19.3379 4.5 19.2V10.625" stroke="white" stroke-width="2" stroke-linecap="round"/>
<path d="M2.75 6.25H9.75" stroke="white" stroke-width="2" stroke-linecap="round" stroke-linejoin="round"/>
<path d="M25.5 6.25H35.3175C35.5205 6.25005 35.7191 6.30892 35.8893 6.41949C36.0595 6.53006 36.194 6.68758 36.2765 6.873L39.409 13.922C39.4687 14.0558 39.4997 14.2007 39.5 14.3472V19.2C39.5 19.3379 39.4728 19.4744 39.4201 19.6018C39.3673 19.7292 39.29 19.845 39.1925 19.9425C39.095 20.04 38.9792 20.1173 38.8518 20.1701C38.7244 20.2228 38.5879 20.25 38.45 20.25H35.125M25.5 20.25H27.25" stroke="white" stroke-width="2" stroke-linecap="round"/>
</svg>
