<svg width="53" height="53" viewBox="0 0 53 53" fill="none" xmlns="http://www.w3.org/2000/svg">
<g clip-path="url(#clip0_160:31)">
<path d="M52.075 39.9115C52.095 39.9075 52.1144 39.9021 52.134 39.8971C52.1507 39.8928 52.1676 39.8893 52.184 39.8842C52.2031 39.8784 52.2218 39.8712 52.2405 39.8644C52.2571 39.8585 52.2738 39.8531 52.2902 39.8462C52.3078 39.8388 52.3248 39.8303 52.342 39.8221C52.3587 39.8142 52.3757 39.8068 52.3921 39.7979C52.4085 39.7892 52.424 39.7792 52.4399 39.7697C52.4563 39.7599 52.4729 39.7507 52.4888 39.74C52.5058 39.7286 52.5216 39.7161 52.538 39.7038C52.5518 39.6936 52.5659 39.6839 52.5794 39.6729C52.6042 39.6525 52.6278 39.6307 52.6508 39.6083C52.6549 39.6044 52.6594 39.601 52.6635 39.5969C52.6678 39.5926 52.6715 39.5878 52.6756 39.5834C52.6977 39.5607 52.7192 39.5374 52.7394 39.5129C52.7512 39.4985 52.7614 39.4834 52.7725 39.4686C52.7838 39.4533 52.7958 39.4384 52.8064 39.4225C52.8177 39.4054 52.8277 39.3878 52.8381 39.3703C52.8468 39.3556 52.8562 39.3412 52.8643 39.3261C52.8738 39.3084 52.8818 39.2902 52.8902 39.2723C52.8977 39.2563 52.9057 39.2405 52.9126 39.2241C52.9199 39.2065 52.9257 39.1886 52.9322 39.1707C52.9385 39.1532 52.9452 39.1359 52.9506 39.1181C52.9561 39.1 52.9601 39.0816 52.9647 39.0632C52.9691 39.0451 52.9743 39.0274 52.9778 39.0091C52.9821 38.9875 52.9847 38.9658 52.9878 38.944C52.9899 38.9287 52.9929 38.9135 52.9944 38.898C52.9982 38.8599 53.0002 38.8217 53.0002 38.7834V14.2157C53.0002 13.5808 52.4857 13.0663 51.8508 13.0663H15.6449C15.6348 13.0663 15.6249 13.0676 15.6148 13.0679C15.5929 13.0685 15.5712 13.0694 15.5494 13.0712C15.5321 13.0726 15.5149 13.0746 15.4977 13.0769C15.4781 13.0794 15.4587 13.0823 15.4392 13.0858C15.421 13.089 15.4029 13.0929 15.385 13.097C15.3667 13.1013 15.3485 13.1059 15.3304 13.1111C15.3125 13.1162 15.2948 13.1217 15.2774 13.1275C15.2594 13.1336 15.2415 13.1401 15.2239 13.1471C15.2072 13.1537 15.1908 13.1604 15.1745 13.1678C15.1565 13.1759 15.1385 13.1847 15.1207 13.1937C15.1056 13.2015 15.0907 13.2095 15.076 13.2179C15.0582 13.228 15.0407 13.2388 15.0234 13.2498C15.0092 13.259 14.9952 13.2685 14.9814 13.2781C14.9652 13.2896 14.9491 13.3016 14.9333 13.3142C14.9189 13.3256 14.9048 13.3374 14.8909 13.3496C14.8771 13.3617 14.8634 13.3738 14.8501 13.3866C14.8349 13.4012 14.8204 13.4164 14.806 13.4317C14.7988 13.4394 14.7911 13.4461 14.7842 13.4539C14.7801 13.4585 14.7768 13.4636 14.7729 13.4682C14.7585 13.4849 14.745 13.5023 14.7315 13.52C14.7217 13.5328 14.7116 13.5457 14.7024 13.5589C14.6904 13.5761 14.6794 13.5937 14.6683 13.6115C14.6593 13.626 14.65 13.6404 14.6417 13.6553C14.632 13.6725 14.6236 13.6901 14.6149 13.7077C14.6069 13.7238 14.5986 13.7399 14.5914 13.7563C14.5839 13.7736 14.5773 13.7915 14.5707 13.8092C14.5641 13.8265 14.5574 13.8436 14.5517 13.8611C14.546 13.8787 14.5414 13.8967 14.5365 13.9146C14.5316 13.933 14.5264 13.9512 14.5223 13.9698C14.5185 13.9871 14.5159 14.0047 14.5128 14.0222C14.5094 14.0421 14.506 14.062 14.5036 14.082C14.5016 14.0985 14.5007 14.1154 14.4995 14.1322C14.4979 14.1537 14.4965 14.1751 14.4962 14.1967C14.4961 14.203 14.4953 14.2092 14.4953 14.2154V21.3037C14.4953 21.9386 15.0098 22.4531 15.6447 22.4531C16.2796 22.4531 16.7941 21.9386 16.7941 21.3037V16.7682L27.0132 25.8157C26.9598 25.8533 26.9085 25.8948 26.8607 25.9425L16.794 36.0092V28.4557C16.794 27.8208 16.2795 27.3063 15.6446 27.3063C15.0096 27.3063 14.4952 27.8208 14.4952 28.4557V29.8601H8.55662C7.9217 29.8601 7.40723 30.3746 7.40723 31.0095C7.40723 31.6444 7.9217 32.1589 8.55662 32.1589H14.4952V38.7842C14.4952 39.4191 15.0096 39.9335 15.6446 39.9335H51.8505C51.8884 39.9335 51.9262 39.9316 51.9639 39.9279C51.9815 39.9262 51.9986 39.9228 52.0159 39.9204C52.0358 39.9176 52.0554 39.9153 52.075 39.9115ZM50.7013 36.0094L40.6344 25.9426C40.628 25.9362 40.6211 25.9308 40.6145 25.9247L48.1826 19.5039C48.6665 19.0932 48.726 18.368 48.3153 17.8838C47.9049 17.4 47.1797 17.3403 46.6952 17.7511L33.7636 28.7225L18.6768 15.3653H50.7013V36.0094ZM28.4864 27.5683C28.5684 27.4864 28.6349 27.395 28.6868 27.2979L32.9857 31.1039C33.203 31.2962 33.4752 31.3928 33.7477 31.3928C34.0122 31.3928 34.2766 31.3019 34.4914 31.1198L38.8725 27.4028C38.9123 27.4611 38.9572 27.5167 39.0089 27.5683L49.0756 37.6351H18.4197L28.4864 27.5683Z" fill="black"/>
<path d="M1.1494 26.1566H20.5615C21.1964 26.1566 21.7109 25.6421 21.7109 25.0072C21.7109 24.3723 21.1964 23.8578 20.5615 23.8578H1.1494C0.514469 23.8578 0 24.3723 0 25.0072C0 25.6421 0.514469 26.1566 1.1494 26.1566Z" fill="black"/>
<path d="M3.16087 19.8225H11.8771C12.512 19.8225 13.0265 19.308 13.0265 18.6731C13.0265 18.0382 12.512 17.5237 11.8771 17.5237H3.16087C2.52594 17.5237 2.01147 18.0382 2.01147 18.6731C2.01147 19.308 2.52594 19.8225 3.16087 19.8225Z" fill="black"/>
<path d="M9.57829 34.7133H1.1494C0.514469 34.7133 0 35.2278 0 35.8627C0 36.4976 0.514469 37.0121 1.1494 37.0121H9.57829C10.2132 37.0121 10.7277 36.4976 10.7277 35.8627C10.7277 35.2278 10.2132 34.7133 9.57829 34.7133Z" fill="black"/>
</g>
<defs>
<clipPath id="clip0_160:31">
<rect width="53" height="53" fill="white"/>
</clipPath>
</defs>
</svg>
