<svg width="39" height="39" viewBox="0 0 39 39" fill="none" xmlns="http://www.w3.org/2000/svg">
<path d="M19.5 34.125C16.6075 34.125 13.7799 33.2673 11.3748 31.6602C8.96972 30.0532 7.0952 27.7691 5.98827 25.0968C4.88134 22.4244 4.59171 19.4838 5.15602 16.6468C5.72033 13.8098 7.11323 11.2039 9.15857 9.15857C11.2039 7.11323 13.8098 5.72033 16.6468 5.15602C19.4838 4.59171 22.4244 4.88134 25.0968 5.98827C27.7691 7.0952 30.0532 8.96972 31.6602 11.3748C33.2673 13.7799 34.125 16.6075 34.125 19.5C34.125 23.3788 32.5842 27.0987 29.8414 29.8414C27.0987 32.5842 23.3788 34.125 19.5 34.125ZM19.5 7.31251C17.0895 7.31251 14.7332 8.02729 12.729 9.36647C10.7248 10.7057 9.16267 12.6091 8.24022 14.8361C7.31778 17.063 7.07643 19.5135 7.54669 21.8777C8.01694 24.2418 9.17769 26.4134 10.8821 28.1179C12.5866 29.8223 14.7582 30.9831 17.1223 31.4533C19.4865 31.9236 21.937 31.6822 24.164 30.7598C26.3909 29.8373 28.2944 28.2752 29.6335 26.271C30.9727 24.2668 31.6875 21.9105 31.6875 19.5C31.6875 16.2677 30.4035 13.1677 28.1179 10.8821C25.8323 8.59654 22.7323 7.31251 19.5 7.31251Z" fill="white"/>
<path d="M24.375 20.7188H19.5C19.1781 20.7145 18.8705 20.5848 18.6429 20.3571C18.4152 20.1295 18.2855 19.8219 18.2812 19.5V11.375C18.2812 11.0518 18.4097 10.7418 18.6382 10.5132C18.8668 10.2847 19.1768 10.1563 19.5 10.1562C19.8232 10.1563 20.1332 10.2847 20.3618 10.5132C20.5903 10.7418 20.7188 11.0518 20.7188 11.375V18.2812H24.375C24.6982 18.2812 25.0082 18.4097 25.2368 18.6382C25.4653 18.8668 25.5938 19.1768 25.5938 19.5C25.5938 19.8232 25.4653 20.1332 25.2368 20.3618C25.0082 20.5903 24.6982 20.7188 24.375 20.7188Z" fill="white"/>
</svg>
