<svg width="39" height="28" viewBox="0 0 39 28" fill="none" xmlns="http://www.w3.org/2000/svg">
<path d="M6.69231 9.66667L10.9615 19.0556L15.2308 9.66667M20.2115 9.66667V19.0556M25.9038 15.8417H28.01C28.9364 15.8417 29.8273 15.4444 30.4591 14.7583C30.9798 14.1945 31.2943 13.4665 31.35 12.6957C31.4056 11.9249 31.1992 11.1581 30.7651 10.5232C30.5822 10.2588 30.3393 10.043 30.057 9.89389C29.7746 9.74481 29.461 9.66687 29.1428 9.66667H25.9038V15.8417ZM25.9038 15.8417V19.0556M3.84615 1H35.1538C35.9087 1 36.6326 1.30436 37.1664 1.84614C37.7001 2.38791 38 3.12271 38 3.88889V24.1111C38 24.8773 37.7001 25.6121 37.1664 26.1539C36.6326 26.6956 35.9087 27 35.1538 27H3.84615C3.09131 27 2.36738 26.6956 1.83362 26.1539C1.29986 25.6121 1 24.8773 1 24.1111V3.88889C1 3.12271 1.29986 2.38791 1.83362 1.84614C2.36738 1.30436 3.09131 1 3.84615 1Z" stroke="white" stroke-width="2" stroke-linecap="round" stroke-linejoin="round"/>
</svg>
